<mxfile host="Electron" agent="Mozilla/5.0 (Windows NT 10.0; Win64; x64) AppleWebKit/537.36 (KHTML, like Gecko) draw.io/26.0.16 Chrome/132.0.6834.196 Electron/34.2.0 Safari/537.36" version="26.0.16">
  <diagram name="第 1 页" id="Iy1oJeOUKkw4GSN7wLvz">
    <mxGraphModel dx="2514" dy="993" grid="1" gridSize="10" guides="1" tooltips="1" connect="1" arrows="1" fold="1" page="1" pageScale="1" pageWidth="827" pageHeight="1169" math="0" shadow="0">
      <root>
        <mxCell id="0" />
        <mxCell id="1" parent="0" />
        <mxCell id="oJ5wStfypiaaaqxFmI3H-1" value="UEngine::TickWorldTravel" style="rounded=1;whiteSpace=wrap;html=1;align=left;fontFamily=Helvetica;fontColor=#000000;labelBackgroundColor=none;" parent="1" vertex="1">
          <mxGeometry x="46" y="100" width="200" height="60" as="geometry" />
        </mxCell>
        <mxCell id="oJ5wStfypiaaaqxFmI3H-2" value="&lt;div&gt;// 如果有TravelURL&lt;/div&gt;!Context.TravelURL.IsEmgpy()" style="rounded=1;whiteSpace=wrap;html=1;align=left;fontFamily=Helvetica;fontColor=#000000;labelBackgroundColor=none;" parent="1" vertex="1">
          <mxGeometry x="96" y="160" width="200" height="60" as="geometry" />
        </mxCell>
        <mxCell id="oJ5wStfypiaaaqxFmI3H-3" value="&lt;div&gt;// 创建PendingNetGame，PendingNetGame为在没有创建World之前负责接管NetDriver的类，主要负责握手相关逻辑&lt;/div&gt;Browse()" style="rounded=1;whiteSpace=wrap;html=1;align=left;fontFamily=Helvetica;fontColor=#000000;labelBackgroundColor=none;" parent="1" vertex="1">
          <mxGeometry x="144" y="220" width="370" height="60" as="geometry" />
        </mxCell>
        <mxCell id="oJ5wStfypiaaaqxFmI3H-4" value="&lt;div style=&quot;&quot;&gt;&lt;div style=&quot;font-size: 10.5pt;&quot;&gt;&lt;font&gt;// 客户端模式&lt;/font&gt;&lt;/div&gt;&lt;div style=&quot;font-size: 10.5pt;&quot;&gt;&lt;span style=&quot;&quot;&gt;URL&lt;/span&gt;&lt;span style=&quot;&quot;&gt;.&lt;/span&gt;&lt;span style=&quot;&quot;&gt;IsInternal&lt;/span&gt;&lt;span style=&quot;&quot;&gt;() &amp;amp;&amp;amp; &lt;/span&gt;&lt;span style=&quot;font-weight: bold; font-style: italic;&quot;&gt;GIsClient&lt;/span&gt;&lt;/div&gt;&lt;/div&gt;" style="rounded=1;whiteSpace=wrap;html=1;align=left;fontFamily=Helvetica;fontColor=#000000;labelBackgroundColor=none;" parent="1" vertex="1">
          <mxGeometry x="184" y="280" width="220" height="60" as="geometry" />
        </mxCell>
        <mxCell id="oJ5wStfypiaaaqxFmI3H-5" value="&lt;div style=&quot;&quot;&gt;&lt;div style=&quot;font-size: 10.5pt;&quot;&gt;&lt;div style=&quot;font-size: 10.5pt;&quot;&gt;&lt;font&gt;// 创建PendingNetGame&lt;/font&gt;&lt;/div&gt;&lt;div style=&quot;font-size: 10.5pt;&quot;&gt;&lt;span style=&quot;&quot;&gt;WorldContext&lt;/span&gt;&lt;span style=&quot;&quot;&gt;.&lt;/span&gt;&lt;span style=&quot;&quot;&gt;PendingNetGame &lt;/span&gt;&lt;span style=&quot;&quot;&gt;= NewObject&lt;/span&gt;&lt;span style=&quot;&quot;&gt;&amp;lt;&lt;/span&gt;&lt;span style=&quot;&quot;&gt;UPendingNetGame&lt;/span&gt;&lt;span style=&quot;&quot;&gt;&amp;gt;()&lt;/span&gt;&lt;/div&gt;&lt;/div&gt;&lt;/div&gt;" style="rounded=1;whiteSpace=wrap;html=1;align=left;fontFamily=Helvetica;fontColor=#000000;labelBackgroundColor=none;" parent="1" vertex="1">
          <mxGeometry x="225" y="340" width="420" height="60" as="geometry" />
        </mxCell>
        <mxCell id="oJ5wStfypiaaaqxFmI3H-6" value="&lt;div style=&quot;&quot;&gt;&lt;div style=&quot;font-size: 10.5pt;&quot;&gt;&lt;div style=&quot;font-size: 10.5pt;&quot;&gt;&lt;div&gt;&lt;div style=&quot;font-size: 10.5pt;&quot;&gt;&lt;span style=&quot;&quot;&gt;// 初始化NetDriver&lt;/span&gt;&lt;/div&gt;&lt;div style=&quot;font-size: 10.5pt;&quot;&gt;&lt;span style=&quot;&quot;&gt;WorldContext&lt;/span&gt;&lt;span style=&quot;&quot;&gt;.&lt;/span&gt;&lt;span style=&quot;&quot;&gt;PendingNetGame&lt;/span&gt;&lt;span style=&quot;&quot;&gt;-&amp;gt;InitNetDriver&lt;/span&gt;&lt;span style=&quot;&quot;&gt;()&lt;/span&gt;&lt;/div&gt;&lt;/div&gt;&lt;/div&gt;&lt;/div&gt;&lt;/div&gt;" style="rounded=1;whiteSpace=wrap;html=1;align=left;fontFamily=Helvetica;fontColor=#000000;labelBackgroundColor=none;" parent="1" vertex="1">
          <mxGeometry x="225" y="400" width="420" height="60" as="geometry" />
        </mxCell>
        <mxCell id="oJ5wStfypiaaaqxFmI3H-7" value="&lt;div style=&quot;&quot;&gt;&lt;div style=&quot;font-size: 10.5pt;&quot;&gt;&lt;div style=&quot;font-size: 10.5pt;&quot;&gt;&lt;div style=&quot;font-size: 10.5pt;&quot;&gt;&lt;div&gt;&lt;div style=&quot;font-size: 10.5pt;&quot;&gt;&lt;span style=&quot;font-weight: bold; font-style: italic;&quot;&gt;// 创建NetDriver&lt;/span&gt;&lt;/div&gt;&lt;div style=&quot;font-size: 10.5pt;&quot;&gt;&lt;span style=&quot;font-weight: bold; font-style: italic;&quot;&gt;GEngine&lt;/span&gt;&lt;span style=&quot;&quot;&gt;-&amp;gt;&lt;/span&gt;&lt;span style=&quot;&quot;&gt;CreateNamedNetDrive&lt;/span&gt;&lt;/div&gt;&lt;/div&gt;&lt;/div&gt;&lt;/div&gt;&lt;/div&gt;&lt;/div&gt;" style="rounded=1;whiteSpace=wrap;html=1;align=left;fontFamily=Helvetica;fontColor=#000000;labelBackgroundColor=none;" parent="1" vertex="1">
          <mxGeometry x="270" y="460" width="420" height="60" as="geometry" />
        </mxCell>
        <mxCell id="oJ5wStfypiaaaqxFmI3H-8" value="&lt;div style=&quot;&quot;&gt;&lt;div style=&quot;font-size: 10.5pt;&quot;&gt;&lt;div style=&quot;font-size: 10.5pt;&quot;&gt;&lt;div style=&quot;font-size: 10.5pt;&quot;&gt;&lt;div style=&quot;font-size: 10.5pt;&quot;&gt;&lt;div&gt;&lt;div style=&quot;font-size: 10.5pt;&quot;&gt;// 客户端初始化连接&lt;/div&gt;&lt;div style=&quot;font-size: 10.5pt;&quot;&gt;NetDriver&lt;span style=&quot;&quot;&gt;-&amp;gt;&lt;/span&gt;InitConnect&lt;/div&gt;&lt;/div&gt;&lt;/div&gt;&lt;/div&gt;&lt;/div&gt;&lt;/div&gt;&lt;/div&gt;" style="rounded=1;whiteSpace=wrap;html=1;align=left;fontFamily=Helvetica;fontColor=#000000;labelBackgroundColor=none;" parent="1" vertex="1">
          <mxGeometry x="270" y="520" width="420" height="60" as="geometry" />
        </mxCell>
        <mxCell id="oJ5wStfypiaaaqxFmI3H-9" value="&lt;div style=&quot;&quot;&gt;&lt;div style=&quot;font-size: 10.5pt;&quot;&gt;&lt;div style=&quot;font-size: 10.5pt;&quot;&gt;&lt;div style=&quot;font-size: 10.5pt;&quot;&gt;&lt;div style=&quot;font-size: 10.5pt;&quot;&gt;&lt;div style=&quot;font-size: 10.5pt;&quot;&gt;&lt;div&gt;&lt;div style=&quot;font-size: 10.5pt;&quot;&gt;&lt;span style=&quot;&quot;&gt;// 开始握手&lt;/span&gt;&lt;/div&gt;&lt;div style=&quot;font-size: 10.5pt;&quot;&gt;&lt;span style=&quot;&quot;&gt;BeginHandshake&lt;/span&gt;&lt;/div&gt;&lt;/div&gt;&lt;/div&gt;&lt;/div&gt;&lt;/div&gt;&lt;/div&gt;&lt;/div&gt;&lt;/div&gt;" style="rounded=1;whiteSpace=wrap;html=1;align=left;fontFamily=Helvetica;fontColor=#000000;labelBackgroundColor=none;" parent="1" vertex="1">
          <mxGeometry x="270" y="580" width="420" height="60" as="geometry" />
        </mxCell>
        <mxCell id="oJ5wStfypiaaaqxFmI3H-10" value="&lt;div style=&quot;&quot;&gt;&lt;div style=&quot;font-size: 10.5pt;&quot;&gt;&lt;div&gt;&lt;div style=&quot;font-size: 10.5pt;&quot;&gt;&lt;span style=&quot;&quot;&gt;BeginHandshaking&lt;/span&gt;&lt;/div&gt;&lt;/div&gt;&lt;/div&gt;&lt;/div&gt;" style="rounded=1;whiteSpace=wrap;html=1;align=left;fontFamily=Helvetica;fontColor=#000000;labelBackgroundColor=none;" parent="1" vertex="1">
          <mxGeometry x="270" y="640" width="420" height="60" as="geometry" />
        </mxCell>
        <mxCell id="oJ5wStfypiaaaqxFmI3H-11" value="&lt;div style=&quot;&quot;&gt;&lt;div style=&quot;font-size: 10.5pt;&quot;&gt;&lt;div style=&quot;font-size: 10.5pt;&quot;&gt;&lt;div&gt;&lt;div style=&quot;font-size: 10.5pt;&quot;&gt;&lt;span style=&quot;&quot;&gt;// 注册回调，握手成功后再发送加入场景&lt;/span&gt;&lt;/div&gt;&lt;div style=&quot;font-size: 10.5pt;&quot;&gt;&lt;span style=&quot;&quot;&gt;HandshakeCompleteDel &lt;/span&gt;&lt;span style=&quot;&quot;&gt;= &lt;/span&gt;&lt;span style=&quot;&quot;&gt;InHandshakeDel&lt;/span&gt;&lt;span style=&quot;&quot;&gt;;&lt;/span&gt;&lt;/div&gt;&lt;/div&gt;&lt;/div&gt;&lt;/div&gt;&lt;/div&gt;" style="rounded=1;whiteSpace=wrap;html=1;align=left;fontFamily=Helvetica;fontColor=#000000;labelBackgroundColor=none;" parent="1" vertex="1">
          <mxGeometry x="326" y="700" width="300" height="60" as="geometry" />
        </mxCell>
        <mxCell id="oJ5wStfypiaaaqxFmI3H-12" value="&lt;div style=&quot;&quot;&gt;&lt;div style=&quot;font-size: 10.5pt;&quot;&gt;&lt;div style=&quot;font-size: 10.5pt;&quot;&gt;&lt;div style=&quot;font-size: 10.5pt;&quot;&gt;&lt;div&gt;&lt;div style=&quot;font-size: 10.5pt;&quot;&gt;&lt;span style=&quot;&quot;&gt;StatelessConnectHandlerComponent&lt;/span&gt;::&lt;span style=&quot;&quot;&gt;NotifyHandshakeBegin&lt;/span&gt;&lt;span style=&quot;&quot;&gt;()&lt;/span&gt;&lt;/div&gt;&lt;/div&gt;&lt;/div&gt;&lt;/div&gt;&lt;/div&gt;&lt;/div&gt;" style="rounded=1;whiteSpace=wrap;html=1;align=left;fontFamily=Helvetica;fontColor=#000000;labelBackgroundColor=none;" parent="1" vertex="1">
          <mxGeometry x="-480" y="860" width="410" height="60" as="geometry" />
        </mxCell>
        <mxCell id="oJ5wStfypiaaaqxFmI3H-13" value="&lt;div style=&quot;&quot;&gt;&lt;div style=&quot;font-size: 10.5pt;&quot;&gt;&lt;div style=&quot;font-size: 10.5pt;&quot;&gt;&lt;div style=&quot;font-size: 10.5pt;&quot;&gt;&lt;div style=&quot;font-size: 10.5pt;&quot;&gt;&lt;div&gt;&lt;div style=&quot;font-size: 10.5pt;&quot;&gt;SendInitialPacket&lt;/div&gt;&lt;/div&gt;&lt;/div&gt;&lt;/div&gt;&lt;/div&gt;&lt;/div&gt;&lt;/div&gt;" style="rounded=1;whiteSpace=wrap;html=1;align=left;fontFamily=Helvetica;fontColor=#000000;labelBackgroundColor=none;" parent="1" vertex="1">
          <mxGeometry x="-430" y="920" width="190" height="60" as="geometry" />
        </mxCell>
        <mxCell id="oJ5wStfypiaaaqxFmI3H-14" value="&lt;div style=&quot;&quot;&gt;&lt;div style=&quot;font-size: 10.5pt;&quot;&gt;&lt;div style=&quot;font-size: 10.5pt;&quot;&gt;&lt;div style=&quot;font-size: 10.5pt;&quot;&gt;&lt;div style=&quot;font-size: 10.5pt;&quot;&gt;&lt;div style=&quot;font-size: 10.5pt;&quot;&gt;&lt;div style=&quot;font-size: 10.5pt;&quot;&gt;&lt;font&gt;// 序列化消息&lt;/font&gt;EHandshakePacketType为InitialPacket&lt;/div&gt;&lt;div style=&quot;font-size: 10.5pt;&quot;&gt;&lt;span style=&quot;&quot;&gt;BeginHandshakePacket&lt;/span&gt;&lt;/div&gt;&lt;/div&gt;&lt;/div&gt;&lt;/div&gt;&lt;/div&gt;&lt;/div&gt;&lt;/div&gt;" style="rounded=1;whiteSpace=wrap;html=1;align=left;fontFamily=Helvetica;fontColor=#000000;labelBackgroundColor=none;" parent="1" vertex="1">
          <mxGeometry x="-382" y="980" width="342" height="60" as="geometry" />
        </mxCell>
        <mxCell id="oJ5wStfypiaaaqxFmI3H-69" style="rounded=0;orthogonalLoop=1;jettySize=auto;html=1;entryX=0;entryY=0.5;entryDx=0;entryDy=0;fontFamily=Helvetica;fontColor=#000000;labelBackgroundColor=none;" parent="1" source="oJ5wStfypiaaaqxFmI3H-15" target="oJ5wStfypiaaaqxFmI3H-16" edge="1">
          <mxGeometry relative="1" as="geometry" />
        </mxCell>
        <mxCell id="S93yyvXEkiN3lrwmMDB--1" value="发送Initial" style="edgeLabel;html=1;align=center;verticalAlign=middle;resizable=0;points=[];fontFamily=Helvetica;fontColor=#000000;labelBackgroundColor=none;" parent="oJ5wStfypiaaaqxFmI3H-69" vertex="1" connectable="0">
          <mxGeometry x="0.0348" y="1" relative="1" as="geometry">
            <mxPoint as="offset" />
          </mxGeometry>
        </mxCell>
        <mxCell id="oJ5wStfypiaaaqxFmI3H-15" value="&lt;div style=&quot;&quot;&gt;&lt;div style=&quot;font-size: 10.5pt;&quot;&gt;&lt;div style=&quot;font-size: 10.5pt;&quot;&gt;&lt;div style=&quot;font-size: 10.5pt;&quot;&gt;&lt;div style=&quot;font-size: 10.5pt;&quot;&gt;&lt;div style=&quot;font-size: 10.5pt;&quot;&gt;&lt;div style=&quot;font-size: 10.5pt;&quot;&gt;&lt;div style=&quot;&quot;&gt;&lt;div style=&quot;font-size: 10.5pt;&quot;&gt;&lt;span style=&quot;&quot;&gt;// 发送到服务器&lt;/span&gt;&lt;/div&gt;&lt;div style=&quot;font-size: 10.5pt;&quot;&gt;&lt;span style=&quot;&quot;&gt;SendToServer&lt;/span&gt;&lt;/div&gt;&lt;/div&gt;&lt;/div&gt;&lt;/div&gt;&lt;/div&gt;&lt;/div&gt;&lt;/div&gt;&lt;/div&gt;&lt;/div&gt;" style="rounded=1;whiteSpace=wrap;html=1;align=left;fontFamily=Helvetica;fontColor=#000000;labelBackgroundColor=none;" parent="1" vertex="1">
          <mxGeometry x="-382" y="1040" width="342" height="60" as="geometry" />
        </mxCell>
        <mxCell id="oJ5wStfypiaaaqxFmI3H-16" value="&lt;div style=&quot;&quot;&gt;&lt;div style=&quot;font-size: 10.5pt;&quot;&gt;&lt;div style=&quot;font-size: 10.5pt;&quot;&gt;&lt;div style=&quot;font-size: 10.5pt;&quot;&gt;&lt;div style=&quot;font-size: 10.5pt;&quot;&gt;&lt;div&gt;&lt;div style=&quot;font-size: 10.5pt;&quot;&gt;&lt;span style=&quot;&quot;&gt;UIpNetDriver&lt;/span&gt;::&lt;span style=&quot;&quot;&gt;TickDispatch&lt;/span&gt;&lt;/div&gt;&lt;/div&gt;&lt;/div&gt;&lt;/div&gt;&lt;/div&gt;&lt;/div&gt;&lt;/div&gt;" style="rounded=1;whiteSpace=wrap;html=1;align=left;fontFamily=Helvetica;fontColor=#000000;labelBackgroundColor=none;" parent="1" vertex="1">
          <mxGeometry x="910" y="1090" width="260" height="60" as="geometry" />
        </mxCell>
        <mxCell id="oJ5wStfypiaaaqxFmI3H-17" value="&lt;div style=&quot;&quot;&gt;&lt;div style=&quot;font-size: 10.5pt;&quot;&gt;&lt;div style=&quot;font-size: 10.5pt;&quot;&gt;&lt;div style=&quot;font-size: 10.5pt;&quot;&gt;&lt;div style=&quot;font-size: 10.5pt;&quot;&gt;&lt;div style=&quot;font-size: 10.5pt;&quot;&gt;&lt;div&gt;&lt;div style=&quot;font-size: 10.5pt;&quot;&gt;&lt;span style=&quot;&quot;&gt;Connection == &lt;/span&gt;&lt;span style=&quot;&quot;&gt;nullptr&lt;/span&gt;&lt;/div&gt;&lt;/div&gt;&lt;/div&gt;&lt;/div&gt;&lt;/div&gt;&lt;/div&gt;&lt;/div&gt;&lt;/div&gt;" style="rounded=1;whiteSpace=wrap;html=1;align=left;fontFamily=Helvetica;fontColor=#000000;labelBackgroundColor=none;" parent="1" vertex="1">
          <mxGeometry x="980" y="1150" width="230" height="60" as="geometry" />
        </mxCell>
        <mxCell id="oJ5wStfypiaaaqxFmI3H-18" value="&lt;div style=&quot;&quot;&gt;&lt;div style=&quot;font-size: 10.5pt;&quot;&gt;&lt;div style=&quot;font-size: 10.5pt;&quot;&gt;&lt;div style=&quot;font-size: 10.5pt;&quot;&gt;&lt;div style=&quot;font-size: 10.5pt;&quot;&gt;&lt;div style=&quot;font-size: 10.5pt;&quot;&gt;&lt;div style=&quot;font-size: 10.5pt;&quot;&gt;&lt;div&gt;&lt;div style=&quot;font-size: 10.5pt;&quot;&gt;bAcceptingConnection&lt;/div&gt;&lt;/div&gt;&lt;/div&gt;&lt;/div&gt;&lt;/div&gt;&lt;/div&gt;&lt;/div&gt;&lt;/div&gt;&lt;/div&gt;" style="rounded=1;whiteSpace=wrap;html=1;align=left;fontFamily=Helvetica;fontColor=#000000;labelBackgroundColor=none;" parent="1" vertex="1">
          <mxGeometry x="1030" y="1210" width="230" height="60" as="geometry" />
        </mxCell>
        <mxCell id="oJ5wStfypiaaaqxFmI3H-19" value="&lt;div style=&quot;&quot;&gt;&lt;div style=&quot;font-size: 10.5pt;&quot;&gt;&lt;div style=&quot;font-size: 10.5pt;&quot;&gt;&lt;div style=&quot;font-size: 10.5pt;&quot;&gt;&lt;div style=&quot;font-size: 10.5pt;&quot;&gt;&lt;div style=&quot;font-size: 10.5pt;&quot;&gt;&lt;div style=&quot;font-size: 10.5pt;&quot;&gt;&lt;div style=&quot;font-size: 10.5pt;&quot;&gt;&lt;div&gt;&lt;div style=&quot;font-size: 10.5pt;&quot;&gt;&lt;span style=&quot;&quot;&gt;ProcessConnectionlessPacket&lt;/span&gt;&lt;/div&gt;&lt;/div&gt;&lt;/div&gt;&lt;/div&gt;&lt;/div&gt;&lt;/div&gt;&lt;/div&gt;&lt;/div&gt;&lt;/div&gt;&lt;/div&gt;" style="rounded=1;whiteSpace=wrap;html=1;align=left;fontFamily=Helvetica;fontColor=#000000;labelBackgroundColor=none;" parent="1" vertex="1">
          <mxGeometry x="1070" y="1270" width="230" height="60" as="geometry" />
        </mxCell>
        <mxCell id="oJ5wStfypiaaaqxFmI3H-20" value="&lt;div style=&quot;&quot;&gt;&lt;div style=&quot;font-size: 10.5pt;&quot;&gt;&lt;div style=&quot;font-size: 10.5pt;&quot;&gt;&lt;div style=&quot;font-size: 10.5pt;&quot;&gt;&lt;div style=&quot;font-size: 10.5pt;&quot;&gt;&lt;div style=&quot;font-size: 10.5pt;&quot;&gt;&lt;div style=&quot;font-size: 10.5pt;&quot;&gt;&lt;div style=&quot;font-size: 10.5pt;&quot;&gt;&lt;div style=&quot;font-size: 10.5pt;&quot;&gt;&lt;div style=&quot;font-size: 10.5pt;&quot;&gt;&lt;div style=&quot;&quot;&gt;&lt;div style=&quot;font-size: 10.5pt;&quot;&gt;ConnectionlessHandler&lt;span style=&quot;&quot;&gt;-&amp;gt;&lt;/span&gt;IncomingConnectionless&lt;span style=&quot;&quot;&gt;(&lt;/span&gt;PacketRef&lt;span style=&quot;&quot;&gt;)&lt;/span&gt;&lt;/div&gt;&lt;/div&gt;&lt;/div&gt;&lt;/div&gt;&lt;/div&gt;&lt;/div&gt;&lt;/div&gt;&lt;/div&gt;&lt;/div&gt;&lt;/div&gt;&lt;/div&gt;&lt;/div&gt;" style="rounded=1;whiteSpace=wrap;html=1;align=left;fontFamily=Helvetica;fontColor=#000000;labelBackgroundColor=none;" parent="1" vertex="1">
          <mxGeometry x="1120" y="1330" width="450" height="60" as="geometry" />
        </mxCell>
        <mxCell id="oJ5wStfypiaaaqxFmI3H-21" value="&lt;div style=&quot;&quot;&gt;&lt;div style=&quot;font-size: 10.5pt;&quot;&gt;&lt;div style=&quot;font-size: 10.5pt;&quot;&gt;&lt;div style=&quot;font-size: 10.5pt;&quot;&gt;&lt;div style=&quot;font-size: 10.5pt;&quot;&gt;&lt;div style=&quot;font-size: 10.5pt;&quot;&gt;&lt;div style=&quot;font-size: 10.5pt;&quot;&gt;&lt;div style=&quot;font-size: 10.5pt;&quot;&gt;&lt;div style=&quot;font-size: 10.5pt;&quot;&gt;&lt;div style=&quot;font-size: 10.5pt;&quot;&gt;&lt;div&gt;&lt;div style=&quot;font-size: 10.5pt;&quot;&gt;&lt;span style=&quot;&quot;&gt;PacketView&lt;/span&gt;&lt;span style=&quot;&quot;&gt;.&lt;/span&gt;&lt;span style=&quot;&quot;&gt;Traits&lt;/span&gt;&lt;span style=&quot;&quot;&gt;.&lt;/span&gt;&lt;span style=&quot;&quot;&gt;bConnectionlessPacket &lt;/span&gt;&lt;span style=&quot;&quot;&gt;= &lt;/span&gt;&lt;span style=&quot;&quot;&gt;true&lt;/span&gt;&lt;span style=&quot;&quot;&gt;;&lt;/span&gt;&lt;/div&gt;&lt;/div&gt;&lt;/div&gt;&lt;/div&gt;&lt;/div&gt;&lt;/div&gt;&lt;/div&gt;&lt;/div&gt;&lt;/div&gt;&lt;/div&gt;&lt;/div&gt;&lt;/div&gt;" style="rounded=1;whiteSpace=wrap;html=1;align=left;fontFamily=Helvetica;fontColor=#000000;labelBackgroundColor=none;" parent="1" vertex="1">
          <mxGeometry x="1170" y="1390" width="350" height="60" as="geometry" />
        </mxCell>
        <mxCell id="oJ5wStfypiaaaqxFmI3H-22" value="&lt;div style=&quot;&quot;&gt;&lt;div style=&quot;font-size: 10.5pt;&quot;&gt;&lt;div style=&quot;font-size: 10.5pt;&quot;&gt;&lt;div style=&quot;font-size: 10.5pt;&quot;&gt;&lt;div style=&quot;font-size: 10.5pt;&quot;&gt;&lt;div style=&quot;font-size: 10.5pt;&quot;&gt;&lt;div style=&quot;font-size: 10.5pt;&quot;&gt;&lt;div style=&quot;font-size: 10.5pt;&quot;&gt;&lt;div style=&quot;font-size: 10.5pt;&quot;&gt;&lt;div style=&quot;font-size: 10.5pt;&quot;&gt;&lt;div style=&quot;font-size: 10.5pt;&quot;&gt;&lt;div style=&quot;font-size: 10.5pt;&quot;&gt;&lt;div&gt;&lt;div style=&quot;font-size: 10.5pt;&quot;&gt;Incoming_Internal&lt;span style=&quot;&quot;&gt;(&lt;/span&gt;PacketView&lt;span style=&quot;&quot;&gt;)&lt;/span&gt;&lt;/div&gt;&lt;/div&gt;&lt;/div&gt;&lt;/div&gt;&lt;/div&gt;&lt;/div&gt;&lt;/div&gt;&lt;/div&gt;&lt;/div&gt;&lt;/div&gt;&lt;/div&gt;&lt;/div&gt;&lt;/div&gt;&lt;/div&gt;" style="rounded=1;whiteSpace=wrap;html=1;align=left;fontFamily=Helvetica;fontColor=#000000;labelBackgroundColor=none;" parent="1" vertex="1">
          <mxGeometry x="1170" y="1450" width="350" height="60" as="geometry" />
        </mxCell>
        <mxCell id="oJ5wStfypiaaaqxFmI3H-23" value="&lt;div style=&quot;&quot;&gt;&lt;div style=&quot;font-size: 10.5pt;&quot;&gt;&lt;div style=&quot;font-size: 10.5pt;&quot;&gt;&lt;div style=&quot;font-size: 10.5pt;&quot;&gt;&lt;div style=&quot;font-size: 10.5pt;&quot;&gt;&lt;div style=&quot;font-size: 10.5pt;&quot;&gt;&lt;div style=&quot;font-size: 10.5pt;&quot;&gt;&lt;div style=&quot;font-size: 10.5pt;&quot;&gt;&lt;div style=&quot;font-size: 10.5pt;&quot;&gt;&lt;div style=&quot;font-size: 10.5pt;&quot;&gt;&lt;div style=&quot;font-size: 10.5pt;&quot;&gt;&lt;div style=&quot;font-size: 10.5pt;&quot;&gt;&lt;div style=&quot;font-size: 10.5pt;&quot;&gt;&lt;div&gt;&lt;div style=&quot;font-size: 10.5pt;&quot;&gt;&lt;span style=&quot;&quot;&gt;PacketView&lt;/span&gt;&lt;span style=&quot;&quot;&gt;.&lt;/span&gt;&lt;span style=&quot;&quot;&gt;Traits&lt;/span&gt;&lt;span style=&quot;&quot;&gt;.&lt;/span&gt;&lt;span style=&quot;&quot;&gt;bConnectionlessPacket&lt;/span&gt;&lt;/div&gt;&lt;/div&gt;&lt;/div&gt;&lt;/div&gt;&lt;/div&gt;&lt;/div&gt;&lt;/div&gt;&lt;/div&gt;&lt;/div&gt;&lt;/div&gt;&lt;/div&gt;&lt;/div&gt;&lt;/div&gt;&lt;/div&gt;&lt;/div&gt;" style="rounded=1;whiteSpace=wrap;html=1;align=left;fontFamily=Helvetica;fontColor=#000000;labelBackgroundColor=none;" parent="1" vertex="1">
          <mxGeometry x="1230" y="1510" width="350" height="60" as="geometry" />
        </mxCell>
        <mxCell id="oJ5wStfypiaaaqxFmI3H-24" value="&lt;div style=&quot;&quot;&gt;&lt;div style=&quot;font-size: 10.5pt;&quot;&gt;&lt;div style=&quot;font-size: 10.5pt;&quot;&gt;&lt;div style=&quot;font-size: 10.5pt;&quot;&gt;&lt;div style=&quot;font-size: 10.5pt;&quot;&gt;&lt;div style=&quot;font-size: 10.5pt;&quot;&gt;&lt;div style=&quot;font-size: 10.5pt;&quot;&gt;&lt;div style=&quot;font-size: 10.5pt;&quot;&gt;&lt;div style=&quot;font-size: 10.5pt;&quot;&gt;&lt;div style=&quot;font-size: 10.5pt;&quot;&gt;&lt;div style=&quot;font-size: 10.5pt;&quot;&gt;&lt;div style=&quot;font-size: 10.5pt;&quot;&gt;&lt;div style=&quot;font-size: 10.5pt;&quot;&gt;&lt;div style=&quot;font-size: 10.5pt;&quot;&gt;&lt;div&gt;&lt;div style=&quot;font-size: 10.5pt;&quot;&gt;CurComponent&lt;span style=&quot;&quot;&gt;.&lt;/span&gt;IncomingConnectionless&lt;span style=&quot;&quot;&gt;(&lt;/span&gt;PacketRef&lt;span style=&quot;&quot;&gt;)&lt;/span&gt;&lt;/div&gt;&lt;/div&gt;&lt;/div&gt;&lt;/div&gt;&lt;/div&gt;&lt;/div&gt;&lt;/div&gt;&lt;/div&gt;&lt;/div&gt;&lt;/div&gt;&lt;/div&gt;&lt;/div&gt;&lt;/div&gt;&lt;/div&gt;&lt;/div&gt;&lt;/div&gt;" style="rounded=1;whiteSpace=wrap;html=1;align=left;fontFamily=Helvetica;fontColor=#000000;labelBackgroundColor=none;" parent="1" vertex="1">
          <mxGeometry x="1290" y="1570" width="350" height="60" as="geometry" />
        </mxCell>
        <mxCell id="oJ5wStfypiaaaqxFmI3H-25" value="&lt;div style=&quot;&quot;&gt;&lt;div style=&quot;font-size: 10.5pt;&quot;&gt;&lt;div style=&quot;font-size: 10.5pt;&quot;&gt;&lt;div style=&quot;font-size: 10.5pt;&quot;&gt;&lt;div style=&quot;font-size: 10.5pt;&quot;&gt;&lt;div style=&quot;font-size: 10.5pt;&quot;&gt;&lt;div style=&quot;font-size: 10.5pt;&quot;&gt;&lt;div style=&quot;font-size: 10.5pt;&quot;&gt;&lt;div style=&quot;font-size: 10.5pt;&quot;&gt;&lt;div style=&quot;font-size: 10.5pt;&quot;&gt;&lt;div style=&quot;font-size: 10.5pt;&quot;&gt;&lt;div style=&quot;font-size: 10.5pt;&quot;&gt;&lt;div style=&quot;font-size: 10.5pt;&quot;&gt;&lt;div style=&quot;font-size: 10.5pt;&quot;&gt;&lt;div style=&quot;font-size: 10.5pt;&quot;&gt;&lt;div style=&quot;font-size: 10.5pt;&quot;&gt;&lt;span style=&quot;&quot;&gt;// 第一次发包（&lt;/span&gt;EHandshakePacketType&lt;span style=&quot;font-size: 10.5pt; white-space: normal;&quot;&gt;::&lt;/span&gt;&lt;span style=&quot;font-size: 10.5pt; white-space: normal;&quot;&gt;InitialPacket&lt;/span&gt;）&lt;/div&gt;&lt;div style=&quot;font-size: 10.5pt;&quot;&gt;&lt;span style=&quot;&quot;&gt;const bool &lt;/span&gt;&lt;span style=&quot;&quot;&gt;bInitialConnect = HandshakeData.&lt;/span&gt;&lt;span style=&quot;&quot;&gt;HandshakePacketType &lt;/span&gt;&lt;span style=&quot;&quot;&gt;== &lt;/span&gt;&lt;span style=&quot;&quot;&gt;EHandshakePacketType&lt;/span&gt;::&lt;span style=&quot;&quot;&gt;InitialPacket &lt;/span&gt;&lt;span style=&quot;&quot;&gt;&amp;amp;&amp;amp;&lt;br&gt;&lt;/span&gt;&lt;span style=&quot;&quot;&gt;                            HandshakeData.&lt;/span&gt;&lt;span style=&quot;&quot;&gt;Timestamp &lt;/span&gt;&lt;span style=&quot;&quot;&gt;== &lt;/span&gt;&lt;span style=&quot;&quot;&gt;0.0&lt;/span&gt;&lt;span style=&quot;&quot;&gt;;&lt;br&gt;&lt;/span&gt;&lt;/div&gt;&lt;/div&gt;&lt;/div&gt;&lt;/div&gt;&lt;/div&gt;&lt;/div&gt;&lt;/div&gt;&lt;/div&gt;&lt;/div&gt;&lt;/div&gt;&lt;/div&gt;&lt;/div&gt;&lt;/div&gt;&lt;/div&gt;&lt;/div&gt;&lt;/div&gt;" style="rounded=1;whiteSpace=wrap;html=1;align=left;fontFamily=Helvetica;fontColor=#000000;labelBackgroundColor=none;" parent="1" vertex="1">
          <mxGeometry x="1350" y="1630" width="490" height="60" as="geometry" />
        </mxCell>
        <mxCell id="oJ5wStfypiaaaqxFmI3H-26" value="&lt;div style=&quot;&quot;&gt;&lt;div style=&quot;font-size: 10.5pt;&quot;&gt;&lt;div style=&quot;font-size: 10.5pt;&quot;&gt;&lt;div style=&quot;font-size: 10.5pt;&quot;&gt;&lt;div style=&quot;font-size: 10.5pt;&quot;&gt;&lt;div style=&quot;font-size: 10.5pt;&quot;&gt;&lt;div style=&quot;font-size: 10.5pt;&quot;&gt;&lt;div style=&quot;font-size: 10.5pt;&quot;&gt;&lt;div style=&quot;font-size: 10.5pt;&quot;&gt;&lt;div style=&quot;font-size: 10.5pt;&quot;&gt;&lt;div style=&quot;font-size: 10.5pt;&quot;&gt;&lt;div style=&quot;font-size: 10.5pt;&quot;&gt;&lt;div style=&quot;font-size: 10.5pt;&quot;&gt;&lt;div style=&quot;font-size: 10.5pt;&quot;&gt;&lt;div style=&quot;font-size: 10.5pt;&quot;&gt;&lt;div style=&quot;font-size: 10.5pt;&quot;&gt;&lt;div&gt;&lt;div style=&quot;font-size: 10.5pt;&quot;&gt;&lt;span style=&quot;&quot;&gt;if &lt;/span&gt;&lt;span style=&quot;&quot;&gt;(&lt;/span&gt;&lt;span style=&quot;&quot;&gt;Handler&lt;/span&gt;&lt;span style=&quot;&quot;&gt;-&amp;gt;&lt;/span&gt;&lt;span style=&quot;&quot;&gt;Mode &lt;/span&gt;&lt;span style=&quot;&quot;&gt;== &lt;/span&gt;&lt;span style=&quot;&quot;&gt;UE&lt;/span&gt;::&lt;span style=&quot;&quot;&gt;Handler&lt;/span&gt;::&lt;span style=&quot;&quot;&gt;Mode&lt;/span&gt;::&lt;span style=&quot;&quot;&gt;Server &lt;/span&gt;&lt;span style=&quot;&quot;&gt;&amp;amp;&amp;amp; bValidVersion &amp;amp;&amp;amp; (bHasValidSessionID || bInitialConnect))&lt;/span&gt;&lt;/div&gt;&lt;/div&gt;&lt;/div&gt;&lt;/div&gt;&lt;/div&gt;&lt;/div&gt;&lt;/div&gt;&lt;/div&gt;&lt;/div&gt;&lt;/div&gt;&lt;/div&gt;&lt;/div&gt;&lt;/div&gt;&lt;/div&gt;&lt;/div&gt;&lt;/div&gt;&lt;/div&gt;&lt;/div&gt;" style="rounded=1;whiteSpace=wrap;html=1;align=left;fontFamily=Helvetica;fontColor=#000000;labelBackgroundColor=none;" parent="1" vertex="1">
          <mxGeometry x="1420" y="1694" width="770" height="60" as="geometry" />
        </mxCell>
        <mxCell id="oJ5wStfypiaaaqxFmI3H-27" value="&lt;div style=&quot;&quot;&gt;&lt;div style=&quot;font-size: 10.5pt;&quot;&gt;&lt;div style=&quot;font-size: 10.5pt;&quot;&gt;&lt;div style=&quot;font-size: 10.5pt;&quot;&gt;&lt;div style=&quot;font-size: 10.5pt;&quot;&gt;&lt;div style=&quot;font-size: 10.5pt;&quot;&gt;&lt;div style=&quot;font-size: 10.5pt;&quot;&gt;&lt;div style=&quot;font-size: 10.5pt;&quot;&gt;&lt;div style=&quot;font-size: 10.5pt;&quot;&gt;&lt;div style=&quot;font-size: 10.5pt;&quot;&gt;&lt;div style=&quot;font-size: 10.5pt;&quot;&gt;&lt;div style=&quot;font-size: 10.5pt;&quot;&gt;&lt;div style=&quot;font-size: 10.5pt;&quot;&gt;&lt;div style=&quot;font-size: 10.5pt;&quot;&gt;&lt;div style=&quot;font-size: 10.5pt;&quot;&gt;&lt;div style=&quot;font-size: 10.5pt;&quot;&gt;&lt;div&gt;&lt;div style=&quot;font-size: 10.5pt;&quot;&gt;&lt;span style=&quot;&quot;&gt;if &lt;/span&gt;&lt;span style=&quot;&quot;&gt;(&lt;/span&gt;&lt;span style=&quot;&quot;&gt;Handler&lt;/span&gt;&lt;span style=&quot;&quot;&gt;-&amp;gt;&lt;/span&gt;&lt;span style=&quot;&quot;&gt;Mode &lt;/span&gt;&lt;span style=&quot;&quot;&gt;== &lt;/span&gt;&lt;span style=&quot;&quot;&gt;UE&lt;/span&gt;::&lt;span style=&quot;&quot;&gt;Handler&lt;/span&gt;::&lt;span style=&quot;&quot;&gt;Mode&lt;/span&gt;::&lt;span style=&quot;&quot;&gt;Server &lt;/span&gt;&lt;span style=&quot;&quot;&gt;&amp;amp;&amp;amp; bValidVersion &amp;amp;&amp;amp; (bHasValidSessionID || bInitialConnect))&lt;/span&gt;&lt;/div&gt;&lt;/div&gt;&lt;/div&gt;&lt;/div&gt;&lt;/div&gt;&lt;/div&gt;&lt;/div&gt;&lt;/div&gt;&lt;/div&gt;&lt;/div&gt;&lt;/div&gt;&lt;/div&gt;&lt;/div&gt;&lt;/div&gt;&lt;/div&gt;&lt;/div&gt;&lt;/div&gt;&lt;/div&gt;" style="rounded=1;whiteSpace=wrap;html=1;align=left;fontFamily=Helvetica;fontColor=#000000;labelBackgroundColor=none;" parent="1" vertex="1">
          <mxGeometry x="1490" y="1754" width="770" height="60" as="geometry" />
        </mxCell>
        <mxCell id="oJ5wStfypiaaaqxFmI3H-28" value="&lt;div style=&quot;&quot;&gt;&lt;div style=&quot;font-size: 10.5pt;&quot;&gt;&lt;div style=&quot;font-size: 10.5pt;&quot;&gt;&lt;div style=&quot;font-size: 10.5pt;&quot;&gt;&lt;div style=&quot;font-size: 10.5pt;&quot;&gt;&lt;div style=&quot;font-size: 10.5pt;&quot;&gt;&lt;div style=&quot;font-size: 10.5pt;&quot;&gt;&lt;div style=&quot;font-size: 10.5pt;&quot;&gt;&lt;div style=&quot;font-size: 10.5pt;&quot;&gt;&lt;div style=&quot;font-size: 10.5pt;&quot;&gt;&lt;div style=&quot;font-size: 10.5pt;&quot;&gt;&lt;div style=&quot;font-size: 10.5pt;&quot;&gt;&lt;div style=&quot;font-size: 10.5pt;&quot;&gt;&lt;div style=&quot;font-size: 10.5pt;&quot;&gt;&lt;div style=&quot;font-size: 10.5pt;&quot;&gt;&lt;div style=&quot;font-size: 10.5pt;&quot;&gt;&lt;div style=&quot;font-size: 10.5pt;&quot;&gt;&lt;div style=&quot;font-size: 10.5pt;&quot;&gt;&lt;div style=&quot;&quot;&gt;&lt;div style=&quot;font-size: 10.5pt;&quot;&gt;SendConnectChallenge&lt;span style=&quot;&quot;&gt;(&lt;/span&gt;FCommonSendToClientParams&lt;span style=&quot;&quot;&gt;(&lt;/span&gt;Address&lt;span style=&quot;&quot;&gt;, &lt;/span&gt;TargetVersion&lt;span style=&quot;&quot;&gt;, &lt;/span&gt;ClientID&lt;span style=&quot;&quot;&gt;), &lt;/span&gt;HandshakeData&lt;span style=&quot;&quot;&gt;.&lt;/span&gt;RemoteSentHandshakePacketCount&lt;span style=&quot;&quot;&gt;);&lt;/span&gt;&lt;/div&gt;&lt;/div&gt;&lt;/div&gt;&lt;/div&gt;&lt;/div&gt;&lt;/div&gt;&lt;/div&gt;&lt;/div&gt;&lt;/div&gt;&lt;/div&gt;&lt;/div&gt;&lt;/div&gt;&lt;/div&gt;&lt;/div&gt;&lt;/div&gt;&lt;/div&gt;&lt;/div&gt;&lt;/div&gt;&lt;/div&gt;&lt;/div&gt;" style="rounded=1;whiteSpace=wrap;html=1;align=left;fontFamily=Helvetica;fontColor=#000000;labelBackgroundColor=none;" parent="1" vertex="1">
          <mxGeometry x="1550" y="1814" width="770" height="60" as="geometry" />
        </mxCell>
        <mxCell id="oJ5wStfypiaaaqxFmI3H-29" value="&lt;div style=&quot;&quot;&gt;&lt;div style=&quot;font-size: 10.5pt;&quot;&gt;&lt;div style=&quot;font-size: 10.5pt;&quot;&gt;&lt;div style=&quot;font-size: 10.5pt;&quot;&gt;&lt;div style=&quot;font-size: 10.5pt;&quot;&gt;&lt;div style=&quot;font-size: 10.5pt;&quot;&gt;&lt;div style=&quot;font-size: 10.5pt;&quot;&gt;&lt;div style=&quot;font-size: 10.5pt;&quot;&gt;&lt;div style=&quot;font-size: 10.5pt;&quot;&gt;&lt;div style=&quot;font-size: 10.5pt;&quot;&gt;&lt;div style=&quot;font-size: 10.5pt;&quot;&gt;&lt;div style=&quot;font-size: 10.5pt;&quot;&gt;&lt;div style=&quot;font-size: 10.5pt;&quot;&gt;&lt;div style=&quot;font-size: 10.5pt;&quot;&gt;&lt;div style=&quot;font-size: 10.5pt;&quot;&gt;&lt;div style=&quot;font-size: 10.5pt;&quot;&gt;&lt;div style=&quot;font-size: 10.5pt;&quot;&gt;&lt;div style=&quot;font-size: 10.5pt;&quot;&gt;&lt;div&gt;&lt;div style=&quot;font-size: 10.5pt;&quot;&gt;&lt;span style=&quot;&quot;&gt;BeginHandshakePacket&lt;/span&gt;&lt;/div&gt;&lt;/div&gt;&lt;/div&gt;&lt;/div&gt;&lt;/div&gt;&lt;/div&gt;&lt;/div&gt;&lt;/div&gt;&lt;/div&gt;&lt;/div&gt;&lt;/div&gt;&lt;/div&gt;&lt;/div&gt;&lt;/div&gt;&lt;/div&gt;&lt;/div&gt;&lt;/div&gt;&lt;/div&gt;&lt;/div&gt;&lt;/div&gt;" style="rounded=1;whiteSpace=wrap;html=1;align=left;fontFamily=Helvetica;fontColor=#000000;labelBackgroundColor=none;" parent="1" vertex="1">
          <mxGeometry x="1620" y="1874" width="770" height="60" as="geometry" />
        </mxCell>
        <mxCell id="oJ5wStfypiaaaqxFmI3H-70" style="rounded=0;orthogonalLoop=1;jettySize=auto;html=1;exitX=0;exitY=0.5;exitDx=0;exitDy=0;entryX=1;entryY=0.5;entryDx=0;entryDy=0;fontFamily=Helvetica;fontColor=#000000;labelBackgroundColor=none;" parent="1" source="oJ5wStfypiaaaqxFmI3H-30" target="oJ5wStfypiaaaqxFmI3H-31" edge="1">
          <mxGeometry relative="1" as="geometry" />
        </mxCell>
        <mxCell id="S93yyvXEkiN3lrwmMDB--2" value="返回Chanllenge" style="edgeLabel;html=1;align=center;verticalAlign=middle;resizable=0;points=[];fontFamily=Helvetica;fontColor=#000000;labelBackgroundColor=none;" parent="oJ5wStfypiaaaqxFmI3H-70" vertex="1" connectable="0">
          <mxGeometry x="-0.1628" y="4" relative="1" as="geometry">
            <mxPoint as="offset" />
          </mxGeometry>
        </mxCell>
        <mxCell id="oJ5wStfypiaaaqxFmI3H-30" value="&lt;div style=&quot;&quot;&gt;&lt;div style=&quot;font-size: 10.5pt;&quot;&gt;&lt;div style=&quot;font-size: 10.5pt;&quot;&gt;&lt;div style=&quot;font-size: 10.5pt;&quot;&gt;&lt;div style=&quot;font-size: 10.5pt;&quot;&gt;&lt;div style=&quot;font-size: 10.5pt;&quot;&gt;&lt;div style=&quot;font-size: 10.5pt;&quot;&gt;&lt;div style=&quot;font-size: 10.5pt;&quot;&gt;&lt;div style=&quot;font-size: 10.5pt;&quot;&gt;&lt;div style=&quot;font-size: 10.5pt;&quot;&gt;&lt;div style=&quot;font-size: 10.5pt;&quot;&gt;&lt;div style=&quot;font-size: 10.5pt;&quot;&gt;&lt;div style=&quot;font-size: 10.5pt;&quot;&gt;&lt;div style=&quot;font-size: 10.5pt;&quot;&gt;&lt;div style=&quot;font-size: 10.5pt;&quot;&gt;&lt;div style=&quot;font-size: 10.5pt;&quot;&gt;&lt;div style=&quot;font-size: 10.5pt;&quot;&gt;&lt;div style=&quot;font-size: 10.5pt;&quot;&gt;&lt;div style=&quot;font-size: 10.5pt;&quot;&gt;&lt;div&gt;&lt;div style=&quot;font-size: 10.5pt;&quot;&gt;&lt;span style=&quot;&quot;&gt;SendToClient&lt;/span&gt;&lt;/div&gt;&lt;/div&gt;&lt;/div&gt;&lt;/div&gt;&lt;/div&gt;&lt;/div&gt;&lt;/div&gt;&lt;/div&gt;&lt;/div&gt;&lt;/div&gt;&lt;/div&gt;&lt;/div&gt;&lt;/div&gt;&lt;/div&gt;&lt;/div&gt;&lt;/div&gt;&lt;/div&gt;&lt;/div&gt;&lt;/div&gt;&lt;/div&gt;&lt;/div&gt;" style="rounded=1;whiteSpace=wrap;html=1;align=left;fontFamily=Helvetica;fontColor=#000000;labelBackgroundColor=none;" parent="1" vertex="1">
          <mxGeometry x="1620" y="1934" width="770" height="60" as="geometry" />
        </mxCell>
        <mxCell id="oJ5wStfypiaaaqxFmI3H-31" value="&lt;div style=&quot;&quot;&gt;&lt;div style=&quot;font-size: 10.5pt;&quot;&gt;&lt;div style=&quot;font-size: 10.5pt;&quot;&gt;&lt;div style=&quot;font-size: 10.5pt;&quot;&gt;&lt;div style=&quot;font-size: 10.5pt;&quot;&gt;&lt;div&gt;&lt;div style=&quot;font-size: 10.5pt;&quot;&gt;&lt;span style=&quot;&quot;&gt;UIpNetDriver&lt;/span&gt;::&lt;span style=&quot;&quot;&gt;TickDispatch&lt;/span&gt;&lt;/div&gt;&lt;/div&gt;&lt;/div&gt;&lt;/div&gt;&lt;/div&gt;&lt;/div&gt;&lt;/div&gt;" style="rounded=1;whiteSpace=wrap;html=1;align=left;fontFamily=Helvetica;fontColor=#000000;labelBackgroundColor=none;" parent="1" vertex="1">
          <mxGeometry x="-451" y="2020" width="260" height="60" as="geometry" />
        </mxCell>
        <mxCell id="oJ5wStfypiaaaqxFmI3H-32" value="&lt;div style=&quot;&quot;&gt;&lt;div style=&quot;font-size: 10.5pt;&quot;&gt;&lt;div style=&quot;font-size: 10.5pt;&quot;&gt;&lt;div style=&quot;font-size: 10.5pt;&quot;&gt;&lt;div style=&quot;font-size: 10.5pt;&quot;&gt;&lt;div style=&quot;font-size: 10.5pt;&quot;&gt;&lt;div&gt;&lt;div style=&quot;font-size: 10.5pt;&quot;&gt;&lt;span style=&quot;&quot;&gt;if &lt;/span&gt;&lt;span style=&quot;&quot;&gt;(Connection != &lt;/span&gt;&lt;span style=&quot;&quot;&gt;nullptr &lt;/span&gt;&lt;span style=&quot;&quot;&gt;&amp;amp;&amp;amp; !bIgnorePacket)&lt;/span&gt;&lt;/div&gt;&lt;/div&gt;&lt;/div&gt;&lt;/div&gt;&lt;/div&gt;&lt;/div&gt;&lt;/div&gt;&lt;/div&gt;" style="rounded=1;whiteSpace=wrap;html=1;align=left;fontFamily=Helvetica;fontColor=#000000;labelBackgroundColor=none;" parent="1" vertex="1">
          <mxGeometry x="-406" y="2080" width="320" height="60" as="geometry" />
        </mxCell>
        <mxCell id="oJ5wStfypiaaaqxFmI3H-33" value="&lt;div style=&quot;&quot;&gt;&lt;div style=&quot;font-size: 10.5pt;&quot;&gt;&lt;div style=&quot;font-size: 10.5pt;&quot;&gt;&lt;div style=&quot;font-size: 10.5pt;&quot;&gt;&lt;div style=&quot;font-size: 10.5pt;&quot;&gt;&lt;div style=&quot;font-size: 10.5pt;&quot;&gt;&lt;div style=&quot;font-size: 10.5pt;&quot;&gt;&lt;div&gt;&lt;div style=&quot;font-size: 10.5pt;&quot;&gt;&lt;span style=&quot;&quot;&gt;Connection-&amp;gt;&lt;/span&gt;&lt;span style=&quot;&quot;&gt;ReceivedRawPacket&lt;/span&gt;&lt;/div&gt;&lt;/div&gt;&lt;/div&gt;&lt;/div&gt;&lt;/div&gt;&lt;/div&gt;&lt;/div&gt;&lt;/div&gt;&lt;/div&gt;" style="rounded=1;whiteSpace=wrap;html=1;align=left;fontFamily=Helvetica;fontColor=#000000;labelBackgroundColor=none;" parent="1" vertex="1">
          <mxGeometry x="-357" y="2140" width="320" height="60" as="geometry" />
        </mxCell>
        <mxCell id="oJ5wStfypiaaaqxFmI3H-34" value="&lt;div style=&quot;&quot;&gt;&lt;div style=&quot;font-size: 10.5pt;&quot;&gt;&lt;div style=&quot;font-size: 10.5pt;&quot;&gt;&lt;div style=&quot;font-size: 10.5pt;&quot;&gt;&lt;div style=&quot;font-size: 10.5pt;&quot;&gt;&lt;div style=&quot;font-size: 10.5pt;&quot;&gt;&lt;div style=&quot;font-size: 10.5pt;&quot;&gt;&lt;div style=&quot;font-size: 10.5pt;&quot;&gt;&lt;div&gt;&lt;div style=&quot;font-size: 10.5pt;&quot;&gt;&lt;span style=&quot;&quot;&gt;Super&lt;/span&gt;::&lt;span style=&quot;&quot;&gt;ReceivedRawPacket&lt;/span&gt;&lt;span style=&quot;&quot;&gt;(&lt;/span&gt;&lt;span style=&quot;&quot;&gt;Data&lt;/span&gt;&lt;span style=&quot;&quot;&gt;, &lt;/span&gt;&lt;span style=&quot;&quot;&gt;Count&lt;/span&gt;&lt;span style=&quot;&quot;&gt;)&lt;/span&gt;&lt;/div&gt;&lt;/div&gt;&lt;/div&gt;&lt;/div&gt;&lt;/div&gt;&lt;/div&gt;&lt;/div&gt;&lt;/div&gt;&lt;/div&gt;&lt;/div&gt;" style="rounded=1;whiteSpace=wrap;html=1;align=left;fontFamily=Helvetica;fontColor=#000000;labelBackgroundColor=none;" parent="1" vertex="1">
          <mxGeometry x="-306" y="2200" width="320" height="60" as="geometry" />
        </mxCell>
        <mxCell id="oJ5wStfypiaaaqxFmI3H-35" value="&lt;div style=&quot;&quot;&gt;&lt;div style=&quot;font-size: 10.5pt;&quot;&gt;&lt;div style=&quot;font-size: 10.5pt;&quot;&gt;&lt;div style=&quot;font-size: 10.5pt;&quot;&gt;&lt;div style=&quot;font-size: 10.5pt;&quot;&gt;&lt;div style=&quot;font-size: 10.5pt;&quot;&gt;&lt;div style=&quot;font-size: 10.5pt;&quot;&gt;&lt;div style=&quot;font-size: 10.5pt;&quot;&gt;&lt;div style=&quot;font-size: 10.5pt;&quot;&gt;&lt;div&gt;&lt;div style=&quot;font-size: 10.5pt;&quot;&gt;Handler&lt;span style=&quot;&quot;&gt;-&amp;gt;&lt;/span&gt;Incoming&lt;span style=&quot;&quot;&gt;(&lt;/span&gt;PacketView&lt;span style=&quot;&quot;&gt;)&lt;/span&gt;&lt;/div&gt;&lt;/div&gt;&lt;/div&gt;&lt;/div&gt;&lt;/div&gt;&lt;/div&gt;&lt;/div&gt;&lt;/div&gt;&lt;/div&gt;&lt;/div&gt;&lt;/div&gt;" style="rounded=1;whiteSpace=wrap;html=1;align=left;fontFamily=Helvetica;fontColor=#000000;labelBackgroundColor=none;" parent="1" vertex="1">
          <mxGeometry x="-256" y="2260" width="320" height="60" as="geometry" />
        </mxCell>
        <mxCell id="oJ5wStfypiaaaqxFmI3H-36" value="&lt;div style=&quot;&quot;&gt;&lt;div style=&quot;font-size: 10.5pt;&quot;&gt;&lt;div style=&quot;font-size: 10.5pt;&quot;&gt;&lt;div style=&quot;font-size: 10.5pt;&quot;&gt;&lt;div style=&quot;font-size: 10.5pt;&quot;&gt;&lt;div style=&quot;font-size: 10.5pt;&quot;&gt;&lt;div style=&quot;font-size: 10.5pt;&quot;&gt;&lt;div style=&quot;font-size: 10.5pt;&quot;&gt;&lt;div style=&quot;font-size: 10.5pt;&quot;&gt;&lt;div style=&quot;font-size: 10.5pt;&quot;&gt;&lt;div&gt;&lt;div style=&quot;font-size: 10.5pt;&quot;&gt;&lt;span style=&quot;&quot;&gt;else &lt;/span&gt;&lt;span style=&quot;&quot;&gt;(&lt;/span&gt;&lt;span style=&quot;&quot;&gt;PacketView&lt;/span&gt;&lt;span style=&quot;&quot;&gt;.&lt;/span&gt;&lt;span style=&quot;&quot;&gt;Traits&lt;/span&gt;&lt;span style=&quot;&quot;&gt;.&lt;/span&gt;&lt;span style=&quot;&quot;&gt;bConnectionlessPacket&lt;/span&gt;&lt;span style=&quot;&quot;&gt;)&lt;/span&gt;&lt;/div&gt;&lt;/div&gt;&lt;/div&gt;&lt;/div&gt;&lt;/div&gt;&lt;/div&gt;&lt;/div&gt;&lt;/div&gt;&lt;/div&gt;&lt;/div&gt;&lt;/div&gt;&lt;/div&gt;" style="rounded=1;whiteSpace=wrap;html=1;align=left;fontFamily=Helvetica;fontColor=#000000;labelBackgroundColor=none;" parent="1" vertex="1">
          <mxGeometry x="-206" y="2320" width="320" height="60" as="geometry" />
        </mxCell>
        <mxCell id="oJ5wStfypiaaaqxFmI3H-37" value="&lt;div style=&quot;&quot;&gt;&lt;div style=&quot;font-size: 10.5pt;&quot;&gt;&lt;div style=&quot;font-size: 10.5pt;&quot;&gt;&lt;div style=&quot;font-size: 10.5pt;&quot;&gt;&lt;div style=&quot;font-size: 10.5pt;&quot;&gt;&lt;div style=&quot;font-size: 10.5pt;&quot;&gt;&lt;div style=&quot;font-size: 10.5pt;&quot;&gt;&lt;div style=&quot;font-size: 10.5pt;&quot;&gt;&lt;div style=&quot;font-size: 10.5pt;&quot;&gt;&lt;div style=&quot;font-size: 10.5pt;&quot;&gt;&lt;div style=&quot;font-size: 10.5pt;&quot;&gt;&lt;div&gt;&lt;div style=&quot;font-size: 10.5pt;&quot;&gt;&lt;span style=&quot;&quot;&gt;CurComponent.&lt;/span&gt;&lt;span style=&quot;&quot;&gt;Incoming&lt;/span&gt;&lt;span style=&quot;&quot;&gt;(PacketRef)&lt;/span&gt;&lt;/div&gt;&lt;/div&gt;&lt;/div&gt;&lt;/div&gt;&lt;/div&gt;&lt;/div&gt;&lt;/div&gt;&lt;/div&gt;&lt;/div&gt;&lt;/div&gt;&lt;/div&gt;&lt;/div&gt;&lt;/div&gt;" style="rounded=1;whiteSpace=wrap;html=1;align=left;fontFamily=Helvetica;fontColor=#000000;labelBackgroundColor=none;" parent="1" vertex="1">
          <mxGeometry x="-142" y="2380" width="320" height="60" as="geometry" />
        </mxCell>
        <mxCell id="oJ5wStfypiaaaqxFmI3H-38" value="&lt;div style=&quot;&quot;&gt;&lt;div style=&quot;font-size: 10.5pt;&quot;&gt;&lt;div style=&quot;font-size: 10.5pt;&quot;&gt;&lt;div style=&quot;font-size: 10.5pt;&quot;&gt;&lt;div style=&quot;font-size: 10.5pt;&quot;&gt;&lt;div style=&quot;font-size: 10.5pt;&quot;&gt;&lt;div style=&quot;font-size: 10.5pt;&quot;&gt;&lt;div style=&quot;font-size: 10.5pt;&quot;&gt;&lt;div style=&quot;font-size: 10.5pt;&quot;&gt;&lt;div style=&quot;font-size: 10.5pt;&quot;&gt;&lt;div style=&quot;font-size: 10.5pt;&quot;&gt;&lt;div style=&quot;font-size: 10.5pt;&quot;&gt;&lt;div&gt;&lt;div style=&quot;font-size: 10.5pt;&quot;&gt;&lt;span style=&quot;&quot;&gt;const bool &lt;/span&gt;bIsChallengePacket &lt;span style=&quot;&quot;&gt;= &lt;/span&gt;HandshakeData&lt;span style=&quot;&quot;&gt;.&lt;/span&gt;HandshakePacketType &lt;span style=&quot;&quot;&gt;== &lt;/span&gt;EHandshakePacketType::Challenge &lt;span style=&quot;&quot;&gt;&amp;amp;&amp;amp; &lt;/span&gt;HandshakeData&lt;span style=&quot;&quot;&gt;.&lt;/span&gt;Timestamp &lt;span style=&quot;&quot;&gt;&amp;gt; &lt;/span&gt;&lt;span style=&quot;&quot;&gt;0.0&lt;/span&gt;&lt;span style=&quot;&quot;&gt;;&lt;/span&gt;&lt;/div&gt;&lt;/div&gt;&lt;/div&gt;&lt;/div&gt;&lt;/div&gt;&lt;/div&gt;&lt;/div&gt;&lt;/div&gt;&lt;/div&gt;&lt;/div&gt;&lt;/div&gt;&lt;/div&gt;&lt;/div&gt;&lt;/div&gt;" style="rounded=1;whiteSpace=wrap;html=1;align=left;fontFamily=Helvetica;fontColor=#000000;labelBackgroundColor=none;" parent="1" vertex="1">
          <mxGeometry x="-86" y="2440" width="320" height="60" as="geometry" />
        </mxCell>
        <mxCell id="oJ5wStfypiaaaqxFmI3H-39" value="&lt;div style=&quot;&quot;&gt;&lt;div style=&quot;font-size: 10.5pt;&quot;&gt;&lt;div style=&quot;font-size: 10.5pt;&quot;&gt;&lt;div style=&quot;font-size: 10.5pt;&quot;&gt;&lt;div style=&quot;font-size: 10.5pt;&quot;&gt;&lt;div style=&quot;font-size: 10.5pt;&quot;&gt;&lt;div style=&quot;font-size: 10.5pt;&quot;&gt;&lt;div style=&quot;font-size: 10.5pt;&quot;&gt;&lt;div style=&quot;font-size: 10.5pt;&quot;&gt;&lt;div style=&quot;font-size: 10.5pt;&quot;&gt;&lt;div style=&quot;font-size: 10.5pt;&quot;&gt;&lt;div style=&quot;font-size: 10.5pt;&quot;&gt;&lt;div style=&quot;font-size: 10.5pt;&quot;&gt;&lt;div&gt;&lt;div style=&quot;font-size: 10.5pt;&quot;&gt;&lt;span style=&quot;&quot;&gt;if &lt;/span&gt;&lt;span style=&quot;&quot;&gt;(&lt;/span&gt;Handler&lt;span style=&quot;&quot;&gt;-&amp;gt;&lt;/span&gt;Mode &lt;span style=&quot;&quot;&gt;== &lt;/span&gt;UE::Handler::Mode::Client &lt;span style=&quot;&quot;&gt;&amp;amp;&amp;amp; &lt;/span&gt;bHasValidClientID &lt;span style=&quot;&quot;&gt;&amp;amp;&amp;amp; (&lt;/span&gt;bHasValidSessionID &lt;span style=&quot;&quot;&gt;|| &lt;/span&gt;bIsInitialChallengePacket &lt;span style=&quot;&quot;&gt;|| &lt;/span&gt;bIsUpgradePacket&lt;span style=&quot;&quot;&gt;))&lt;/span&gt;&lt;/div&gt;&lt;/div&gt;&lt;/div&gt;&lt;/div&gt;&lt;/div&gt;&lt;/div&gt;&lt;/div&gt;&lt;/div&gt;&lt;/div&gt;&lt;/div&gt;&lt;/div&gt;&lt;/div&gt;&lt;/div&gt;&lt;/div&gt;&lt;/div&gt;" style="rounded=1;whiteSpace=wrap;html=1;align=left;fontFamily=Helvetica;fontColor=#000000;labelBackgroundColor=none;" parent="1" vertex="1">
          <mxGeometry x="-86" y="2500" width="320" height="60" as="geometry" />
        </mxCell>
        <mxCell id="oJ5wStfypiaaaqxFmI3H-40" value="&lt;div style=&quot;&quot;&gt;&lt;div style=&quot;font-size: 10.5pt;&quot;&gt;&lt;div style=&quot;font-size: 10.5pt;&quot;&gt;&lt;div style=&quot;font-size: 10.5pt;&quot;&gt;&lt;div style=&quot;font-size: 10.5pt;&quot;&gt;&lt;div style=&quot;font-size: 10.5pt;&quot;&gt;&lt;div style=&quot;font-size: 10.5pt;&quot;&gt;&lt;div style=&quot;font-size: 10.5pt;&quot;&gt;&lt;div style=&quot;font-size: 10.5pt;&quot;&gt;&lt;div style=&quot;font-size: 10.5pt;&quot;&gt;&lt;div style=&quot;font-size: 10.5pt;&quot;&gt;&lt;div style=&quot;font-size: 10.5pt;&quot;&gt;&lt;div style=&quot;font-size: 10.5pt;&quot;&gt;&lt;div style=&quot;font-size: 10.5pt;&quot;&gt;&lt;div&gt;&lt;div style=&quot;font-size: 10.5pt;&quot;&gt;&lt;span style=&quot;&quot;&gt;else if &lt;/span&gt;&lt;span style=&quot;&quot;&gt;(bIsChallengePacket)&lt;/span&gt;&lt;/div&gt;&lt;/div&gt;&lt;/div&gt;&lt;/div&gt;&lt;/div&gt;&lt;/div&gt;&lt;/div&gt;&lt;/div&gt;&lt;/div&gt;&lt;/div&gt;&lt;/div&gt;&lt;/div&gt;&lt;/div&gt;&lt;/div&gt;&lt;/div&gt;&lt;/div&gt;" style="rounded=1;whiteSpace=wrap;html=1;align=left;fontFamily=Helvetica;fontColor=#000000;labelBackgroundColor=none;" parent="1" vertex="1">
          <mxGeometry x="25" y="2620" width="320" height="60" as="geometry" />
        </mxCell>
        <mxCell id="oJ5wStfypiaaaqxFmI3H-41" value="&lt;div style=&quot;&quot;&gt;&lt;div style=&quot;font-size: 10.5pt;&quot;&gt;&lt;div style=&quot;font-size: 10.5pt;&quot;&gt;&lt;div style=&quot;font-size: 10.5pt;&quot;&gt;&lt;div style=&quot;font-size: 10.5pt;&quot;&gt;&lt;div style=&quot;font-size: 10.5pt;&quot;&gt;&lt;div style=&quot;font-size: 10.5pt;&quot;&gt;&lt;div style=&quot;font-size: 10.5pt;&quot;&gt;&lt;div style=&quot;font-size: 10.5pt;&quot;&gt;&lt;div style=&quot;font-size: 10.5pt;&quot;&gt;&lt;div style=&quot;font-size: 10.5pt;&quot;&gt;&lt;div style=&quot;font-size: 10.5pt;&quot;&gt;&lt;div style=&quot;font-size: 10.5pt;&quot;&gt;&lt;div style=&quot;font-size: 10.5pt;&quot;&gt;&lt;div style=&quot;font-size: 10.5pt;&quot;&gt;&lt;div&gt;&lt;div style=&quot;font-size: 10.5pt;&quot;&gt;SendChallengeResponse&lt;span style=&quot;&quot;&gt;(&lt;/span&gt;HandshakeData&lt;span style=&quot;&quot;&gt;.&lt;/span&gt;RemoteCurVersion&lt;span style=&quot;&quot;&gt;, &lt;/span&gt;HandshakeData&lt;span style=&quot;&quot;&gt;.&lt;/span&gt;SecretId&lt;span style=&quot;&quot;&gt;, &lt;/span&gt;HandshakeData&lt;span style=&quot;&quot;&gt;.&lt;/span&gt;Timestamp&lt;span style=&quot;&quot;&gt;, &lt;/span&gt;HandshakeData&lt;span style=&quot;&quot;&gt;.&lt;/span&gt;Cookie&lt;span style=&quot;&quot;&gt;);&lt;/span&gt;&lt;/div&gt;&lt;/div&gt;&lt;/div&gt;&lt;/div&gt;&lt;/div&gt;&lt;/div&gt;&lt;/div&gt;&lt;/div&gt;&lt;/div&gt;&lt;/div&gt;&lt;/div&gt;&lt;/div&gt;&lt;/div&gt;&lt;/div&gt;&lt;/div&gt;&lt;/div&gt;&lt;/div&gt;" style="rounded=1;whiteSpace=wrap;html=1;align=left;fontFamily=Helvetica;fontColor=#000000;labelBackgroundColor=none;" parent="1" vertex="1">
          <mxGeometry x="88" y="2680" width="320" height="60" as="geometry" />
        </mxCell>
        <mxCell id="oJ5wStfypiaaaqxFmI3H-42" value="&lt;div style=&quot;&quot;&gt;&lt;div style=&quot;font-size: 10.5pt;&quot;&gt;&lt;div style=&quot;font-size: 10.5pt;&quot;&gt;&lt;div style=&quot;font-size: 10.5pt;&quot;&gt;&lt;div style=&quot;font-size: 10.5pt;&quot;&gt;&lt;div style=&quot;font-size: 10.5pt;&quot;&gt;&lt;div style=&quot;font-size: 10.5pt;&quot;&gt;&lt;div style=&quot;font-size: 10.5pt;&quot;&gt;&lt;div style=&quot;font-size: 10.5pt;&quot;&gt;&lt;div style=&quot;font-size: 10.5pt;&quot;&gt;&lt;div style=&quot;font-size: 10.5pt;&quot;&gt;&lt;div style=&quot;font-size: 10.5pt;&quot;&gt;&lt;div style=&quot;font-size: 10.5pt;&quot;&gt;&lt;div style=&quot;font-size: 10.5pt;&quot;&gt;&lt;div style=&quot;font-size: 10.5pt;&quot;&gt;&lt;div style=&quot;font-size: 10.5pt;&quot;&gt;&lt;div&gt;&lt;div style=&quot;font-size: 10.5pt;&quot;&gt;SetState&lt;span style=&quot;&quot;&gt;(&lt;/span&gt;UE::Handler::Component::State::InitializedOnLocal&lt;span style=&quot;&quot;&gt;);&lt;/span&gt;&lt;/div&gt;&lt;/div&gt;&lt;/div&gt;&lt;/div&gt;&lt;/div&gt;&lt;/div&gt;&lt;/div&gt;&lt;/div&gt;&lt;/div&gt;&lt;/div&gt;&lt;/div&gt;&lt;/div&gt;&lt;/div&gt;&lt;/div&gt;&lt;/div&gt;&lt;/div&gt;&lt;/div&gt;&lt;/div&gt;" style="rounded=1;whiteSpace=wrap;html=1;align=left;fontFamily=Helvetica;fontColor=#000000;labelBackgroundColor=none;" parent="1" vertex="1">
          <mxGeometry x="87" y="2800" width="320" height="60" as="geometry" />
        </mxCell>
        <mxCell id="oJ5wStfypiaaaqxFmI3H-43" value="&lt;div style=&quot;&quot;&gt;&lt;div style=&quot;font-size: 10.5pt;&quot;&gt;&lt;div style=&quot;font-size: 10.5pt;&quot;&gt;&lt;div style=&quot;font-size: 10.5pt;&quot;&gt;&lt;div style=&quot;font-size: 10.5pt;&quot;&gt;&lt;div style=&quot;font-size: 10.5pt;&quot;&gt;&lt;div style=&quot;font-size: 10.5pt;&quot;&gt;&lt;div style=&quot;font-size: 10.5pt;&quot;&gt;&lt;div style=&quot;font-size: 10.5pt;&quot;&gt;&lt;div style=&quot;font-size: 10.5pt;&quot;&gt;&lt;div style=&quot;font-size: 10.5pt;&quot;&gt;&lt;div style=&quot;font-size: 10.5pt;&quot;&gt;&lt;div style=&quot;font-size: 10.5pt;&quot;&gt;&lt;div style=&quot;font-size: 10.5pt;&quot;&gt;&lt;div style=&quot;&quot;&gt;&lt;div style=&quot;font-size: 10.5pt;&quot;&gt;&lt;span style=&quot;&quot;&gt;if &lt;/span&gt;&lt;span style=&quot;&quot;&gt;(&lt;/span&gt;State &lt;span style=&quot;&quot;&gt;== &lt;/span&gt;UE::Handler::Component::State::UnInitialized &lt;span style=&quot;&quot;&gt;|| &lt;/span&gt;State &lt;span style=&quot;&quot;&gt;== &lt;/span&gt;UE::Handler::Component::State::InitializedOnLocal&lt;span style=&quot;&quot;&gt;)&lt;/span&gt;&lt;/div&gt;&lt;/div&gt;&lt;/div&gt;&lt;/div&gt;&lt;/div&gt;&lt;/div&gt;&lt;/div&gt;&lt;/div&gt;&lt;/div&gt;&lt;/div&gt;&lt;/div&gt;&lt;/div&gt;&lt;/div&gt;&lt;/div&gt;&lt;/div&gt;&lt;/div&gt;" style="rounded=1;whiteSpace=wrap;html=1;align=left;fontFamily=Helvetica;fontColor=#000000;labelBackgroundColor=none;" parent="1" vertex="1">
          <mxGeometry x="-37" y="2560" width="320" height="60" as="geometry" />
        </mxCell>
        <mxCell id="oJ5wStfypiaaaqxFmI3H-71" style="rounded=0;orthogonalLoop=1;jettySize=auto;html=1;entryX=0;entryY=0.5;entryDx=0;entryDy=0;fontFamily=Helvetica;fontColor=#000000;labelBackgroundColor=none;" parent="1" source="oJ5wStfypiaaaqxFmI3H-44" target="oJ5wStfypiaaaqxFmI3H-46" edge="1">
          <mxGeometry relative="1" as="geometry" />
        </mxCell>
        <mxCell id="S93yyvXEkiN3lrwmMDB--3" value="发送ChallengeResponse" style="edgeLabel;html=1;align=center;verticalAlign=middle;resizable=0;points=[];fontFamily=Helvetica;fontColor=#000000;labelBackgroundColor=none;" parent="oJ5wStfypiaaaqxFmI3H-71" vertex="1" connectable="0">
          <mxGeometry x="0.0109" relative="1" as="geometry">
            <mxPoint as="offset" />
          </mxGeometry>
        </mxCell>
        <mxCell id="oJ5wStfypiaaaqxFmI3H-44" value="&lt;div style=&quot;&quot;&gt;&lt;div style=&quot;font-size: 10.5pt;&quot;&gt;&lt;div style=&quot;font-size: 10.5pt;&quot;&gt;&lt;div style=&quot;font-size: 10.5pt;&quot;&gt;&lt;div style=&quot;font-size: 10.5pt;&quot;&gt;&lt;div style=&quot;font-size: 10.5pt;&quot;&gt;&lt;div style=&quot;font-size: 10.5pt;&quot;&gt;&lt;div style=&quot;font-size: 10.5pt;&quot;&gt;&lt;div style=&quot;font-size: 10.5pt;&quot;&gt;&lt;div style=&quot;font-size: 10.5pt;&quot;&gt;&lt;div style=&quot;font-size: 10.5pt;&quot;&gt;&lt;div style=&quot;font-size: 10.5pt;&quot;&gt;&lt;div style=&quot;font-size: 10.5pt;&quot;&gt;&lt;div style=&quot;font-size: 10.5pt;&quot;&gt;&lt;div style=&quot;font-size: 10.5pt;&quot;&gt;&lt;div style=&quot;font-size: 10.5pt;&quot;&gt;&lt;div style=&quot;&quot;&gt;&lt;div style=&quot;font-size: 10.5pt;&quot;&gt;SendToServer&lt;span style=&quot;&quot;&gt;(&lt;/span&gt;HandshakeVersion&lt;span style=&quot;&quot;&gt;, &lt;/span&gt;HandshakePacketType&lt;span style=&quot;&quot;&gt;, &lt;/span&gt;ResponsePacket&lt;span style=&quot;&quot;&gt;)&lt;/span&gt;&lt;/div&gt;&lt;/div&gt;&lt;/div&gt;&lt;/div&gt;&lt;/div&gt;&lt;/div&gt;&lt;/div&gt;&lt;/div&gt;&lt;/div&gt;&lt;/div&gt;&lt;/div&gt;&lt;/div&gt;&lt;/div&gt;&lt;/div&gt;&lt;/div&gt;&lt;/div&gt;&lt;/div&gt;&lt;/div&gt;" style="rounded=1;whiteSpace=wrap;html=1;align=left;fontFamily=Helvetica;fontColor=#000000;labelBackgroundColor=none;" parent="1" vertex="1">
          <mxGeometry x="159" y="2740" width="320" height="60" as="geometry" />
        </mxCell>
        <mxCell id="oJ5wStfypiaaaqxFmI3H-45" value="&lt;div style=&quot;&quot;&gt;&lt;div style=&quot;font-size: 10.5pt;&quot;&gt;&lt;div style=&quot;font-size: 10.5pt;&quot;&gt;&lt;div style=&quot;font-size: 10.5pt;&quot;&gt;&lt;div style=&quot;font-size: 10.5pt;&quot;&gt;&lt;div style=&quot;font-size: 10.5pt;&quot;&gt;&lt;div style=&quot;font-size: 10.5pt;&quot;&gt;&lt;div style=&quot;font-size: 10.5pt;&quot;&gt;&lt;div style=&quot;font-size: 10.5pt;&quot;&gt;&lt;div style=&quot;font-size: 10.5pt;&quot;&gt;&lt;div style=&quot;font-size: 10.5pt;&quot;&gt;&lt;div style=&quot;font-size: 10.5pt;&quot;&gt;&lt;div style=&quot;font-size: 10.5pt;&quot;&gt;&lt;div style=&quot;font-size: 10.5pt;&quot;&gt;&lt;div&gt;&lt;div style=&quot;font-size: 10.5pt;&quot;&gt;CurComponent&lt;span style=&quot;&quot;&gt;.&lt;/span&gt;IncomingConnectionless&lt;span style=&quot;&quot;&gt;(&lt;/span&gt;PacketRef&lt;span style=&quot;&quot;&gt;)&lt;/span&gt;&lt;/div&gt;&lt;/div&gt;&lt;/div&gt;&lt;/div&gt;&lt;/div&gt;&lt;/div&gt;&lt;/div&gt;&lt;/div&gt;&lt;/div&gt;&lt;/div&gt;&lt;/div&gt;&lt;/div&gt;&lt;/div&gt;&lt;/div&gt;&lt;/div&gt;&lt;/div&gt;" style="rounded=1;whiteSpace=wrap;html=1;align=left;fontFamily=Helvetica;fontColor=#000000;labelBackgroundColor=none;" parent="1" vertex="1">
          <mxGeometry x="1400" y="3280" width="350" height="60" as="geometry" />
        </mxCell>
        <mxCell id="oJ5wStfypiaaaqxFmI3H-46" value="&lt;div style=&quot;&quot;&gt;&lt;div style=&quot;font-size: 10.5pt;&quot;&gt;&lt;div style=&quot;font-size: 10.5pt;&quot;&gt;&lt;div style=&quot;font-size: 10.5pt;&quot;&gt;&lt;div style=&quot;font-size: 10.5pt;&quot;&gt;&lt;div&gt;&lt;div style=&quot;font-size: 10.5pt;&quot;&gt;&lt;span style=&quot;&quot;&gt;UIpNetDriver&lt;/span&gt;::&lt;span style=&quot;&quot;&gt;TickDispatch&lt;/span&gt;&lt;/div&gt;&lt;/div&gt;&lt;/div&gt;&lt;/div&gt;&lt;/div&gt;&lt;/div&gt;&lt;/div&gt;" style="rounded=1;whiteSpace=wrap;html=1;align=left;fontFamily=Helvetica;fontColor=#000000;labelBackgroundColor=none;" parent="1" vertex="1">
          <mxGeometry x="1100" y="2980" width="260" height="60" as="geometry" />
        </mxCell>
        <mxCell id="oJ5wStfypiaaaqxFmI3H-47" value="&lt;div style=&quot;&quot;&gt;&lt;div style=&quot;font-size: 10.5pt;&quot;&gt;&lt;div style=&quot;font-size: 10.5pt;&quot;&gt;&lt;div style=&quot;font-size: 10.5pt;&quot;&gt;&lt;div style=&quot;font-size: 10.5pt;&quot;&gt;&lt;div style=&quot;font-size: 10.5pt;&quot;&gt;&lt;div style=&quot;font-size: 10.5pt;&quot;&gt;ConnectionlessHandler&lt;span style=&quot;&quot;&gt;-&amp;gt;&lt;/span&gt;IncomingConnectionless&lt;span style=&quot;&quot;&gt;(&lt;/span&gt;PacketRef&lt;span style=&quot;&quot;&gt;)&lt;/span&gt;&lt;/div&gt;&lt;/div&gt;&lt;/div&gt;&lt;/div&gt;&lt;/div&gt;&lt;/div&gt;&lt;/div&gt;" style="rounded=1;whiteSpace=wrap;html=1;align=left;fontFamily=Helvetica;fontColor=#000000;labelBackgroundColor=none;" parent="1" vertex="1">
          <mxGeometry x="1270" y="3160" width="410" height="60" as="geometry" />
        </mxCell>
        <mxCell id="oJ5wStfypiaaaqxFmI3H-48" value="&lt;div style=&quot;&quot;&gt;&lt;div style=&quot;font-size: 10.5pt;&quot;&gt;&lt;div style=&quot;font-size: 10.5pt;&quot;&gt;&lt;div style=&quot;font-size: 10.5pt;&quot;&gt;&lt;div style=&quot;font-size: 10.5pt;&quot;&gt;&lt;div style=&quot;font-size: 10.5pt;&quot;&gt;&lt;div style=&quot;font-size: 10.5pt;&quot;&gt;&lt;div style=&quot;font-size: 10.5pt;&quot;&gt;&lt;div style=&quot;font-size: 10.5pt;&quot;&gt;&lt;div style=&quot;font-size: 10.5pt;&quot;&gt;&lt;div style=&quot;font-size: 10.5pt;&quot;&gt;&lt;div style=&quot;font-size: 10.5pt;&quot;&gt;&lt;div style=&quot;font-size: 10.5pt;&quot;&gt;&lt;div style=&quot;font-size: 10.5pt;&quot;&gt;&lt;div style=&quot;font-size: 10.5pt;&quot;&gt;&lt;div style=&quot;&quot;&gt;&lt;div style=&quot;font-size: 10.5pt;&quot;&gt;&lt;span style=&quot;&quot;&gt;else if &lt;/span&gt;&lt;span style=&quot;&quot;&gt;(&lt;/span&gt;&lt;span style=&quot;&quot;&gt;Driver &lt;/span&gt;&lt;span style=&quot;&quot;&gt;!= &lt;/span&gt;&lt;span style=&quot;&quot;&gt;nullptr&lt;/span&gt;&lt;span style=&quot;&quot;&gt;)&lt;/span&gt;&lt;/div&gt;&lt;/div&gt;&lt;/div&gt;&lt;/div&gt;&lt;/div&gt;&lt;/div&gt;&lt;/div&gt;&lt;/div&gt;&lt;/div&gt;&lt;/div&gt;&lt;/div&gt;&lt;/div&gt;&lt;/div&gt;&lt;/div&gt;&lt;/div&gt;&lt;/div&gt;&lt;/div&gt;" style="rounded=1;whiteSpace=wrap;html=1;align=left;fontFamily=Helvetica;fontColor=#000000;labelBackgroundColor=none;" parent="1" vertex="1">
          <mxGeometry x="1460" y="3340" width="350" height="60" as="geometry" />
        </mxCell>
        <mxCell id="oJ5wStfypiaaaqxFmI3H-49" value="&lt;div style=&quot;&quot;&gt;&lt;div style=&quot;font-size: 10.5pt;&quot;&gt;&lt;div style=&quot;font-size: 10.5pt;&quot;&gt;&lt;div style=&quot;font-size: 10.5pt;&quot;&gt;&lt;div style=&quot;font-size: 10.5pt;&quot;&gt;&lt;div style=&quot;font-size: 10.5pt;&quot;&gt;&lt;div style=&quot;font-size: 10.5pt;&quot;&gt;&lt;div style=&quot;font-size: 10.5pt;&quot;&gt;&lt;div style=&quot;font-size: 10.5pt;&quot;&gt;&lt;div style=&quot;font-size: 10.5pt;&quot;&gt;&lt;div style=&quot;font-size: 10.5pt;&quot;&gt;&lt;div style=&quot;font-size: 10.5pt;&quot;&gt;&lt;div style=&quot;font-size: 10.5pt;&quot;&gt;&lt;div style=&quot;font-size: 10.5pt;&quot;&gt;&lt;div style=&quot;font-size: 10.5pt;&quot;&gt;&lt;div style=&quot;&quot;&gt;&lt;div style=&quot;font-size: 10.5pt;&quot;&gt;&lt;div&gt;&lt;div style=&quot;font-size: 10.5pt;&quot;&gt;&lt;span style=&quot;&quot;&gt;LastChallengeSuccessAddress &lt;/span&gt;&lt;span style=&quot;&quot;&gt;= &lt;/span&gt;&lt;span style=&quot;&quot;&gt;Address&lt;/span&gt;&lt;span style=&quot;&quot;&gt;-&amp;gt;Clone&lt;/span&gt;&lt;span style=&quot;&quot;&gt;();&lt;/span&gt;&lt;/div&gt;&lt;/div&gt;&lt;/div&gt;&lt;/div&gt;&lt;/div&gt;&lt;/div&gt;&lt;/div&gt;&lt;/div&gt;&lt;/div&gt;&lt;/div&gt;&lt;/div&gt;&lt;/div&gt;&lt;/div&gt;&lt;/div&gt;&lt;/div&gt;&lt;/div&gt;&lt;/div&gt;&lt;/div&gt;&lt;/div&gt;" style="rounded=1;whiteSpace=wrap;html=1;align=left;fontFamily=Helvetica;fontColor=#000000;labelBackgroundColor=none;" parent="1" vertex="1">
          <mxGeometry x="1514" y="3400" width="350" height="60" as="geometry" />
        </mxCell>
        <mxCell id="oJ5wStfypiaaaqxFmI3H-50" value="&lt;div style=&quot;&quot;&gt;&lt;div style=&quot;font-size: 10.5pt;&quot;&gt;&lt;div style=&quot;font-size: 10.5pt;&quot;&gt;&lt;div style=&quot;font-size: 10.5pt;&quot;&gt;&lt;div style=&quot;font-size: 10.5pt;&quot;&gt;&lt;div style=&quot;font-size: 10.5pt;&quot;&gt;&lt;div style=&quot;font-size: 10.5pt;&quot;&gt;&lt;div style=&quot;font-size: 10.5pt;&quot;&gt;&lt;div style=&quot;font-size: 10.5pt;&quot;&gt;&lt;div style=&quot;font-size: 10.5pt;&quot;&gt;&lt;div style=&quot;font-size: 10.5pt;&quot;&gt;&lt;div style=&quot;font-size: 10.5pt;&quot;&gt;&lt;div style=&quot;font-size: 10.5pt;&quot;&gt;&lt;div style=&quot;font-size: 10.5pt;&quot;&gt;&lt;div style=&quot;font-size: 10.5pt;&quot;&gt;&lt;div style=&quot;&quot;&gt;&lt;div style=&quot;font-size: 10.5pt;&quot;&gt;&lt;div style=&quot;font-size: 10.5pt;&quot;&gt;&lt;div&gt;&lt;div style=&quot;font-size: 10.5pt;&quot;&gt;&lt;span style=&quot;&quot;&gt;SendChallengeAck&lt;/span&gt;&lt;span style=&quot;&quot;&gt;(&lt;/span&gt;&lt;span style=&quot;&quot;&gt;FCommonSendToClientParams&lt;/span&gt;&lt;span style=&quot;&quot;&gt;(&lt;/span&gt;&lt;span style=&quot;&quot;&gt;Address, TargetVersion, ClientID&lt;/span&gt;&lt;span style=&quot;&quot;&gt;)&lt;/span&gt;&lt;span style=&quot;&quot;&gt;,&lt;br&gt;&lt;/span&gt;&lt;span style=&quot;&quot;&gt;                HandshakeData.&lt;/span&gt;&lt;span style=&quot;&quot;&gt;RemoteSentHandshakePacketCount&lt;/span&gt;&lt;span style=&quot;&quot;&gt;, &lt;/span&gt;&lt;span style=&quot;&quot;&gt;AuthorisedCookie&lt;/span&gt;&lt;span style=&quot;&quot;&gt;);&lt;/span&gt;&lt;/div&gt;&lt;/div&gt;&lt;/div&gt;&lt;/div&gt;&lt;/div&gt;&lt;/div&gt;&lt;/div&gt;&lt;/div&gt;&lt;/div&gt;&lt;/div&gt;&lt;/div&gt;&lt;/div&gt;&lt;/div&gt;&lt;/div&gt;&lt;/div&gt;&lt;/div&gt;&lt;/div&gt;&lt;/div&gt;&lt;/div&gt;&lt;/div&gt;" style="rounded=1;whiteSpace=wrap;html=1;align=left;fontFamily=Helvetica;fontColor=#000000;labelBackgroundColor=none;" parent="1" vertex="1">
          <mxGeometry x="1514" y="3460" width="350" height="60" as="geometry" />
        </mxCell>
        <mxCell id="oJ5wStfypiaaaqxFmI3H-72" style="rounded=0;orthogonalLoop=1;jettySize=auto;html=1;entryX=1;entryY=0.5;entryDx=0;entryDy=0;fontFamily=Helvetica;fontColor=#000000;labelBackgroundColor=none;" parent="1" source="oJ5wStfypiaaaqxFmI3H-51" target="oJ5wStfypiaaaqxFmI3H-62" edge="1">
          <mxGeometry relative="1" as="geometry" />
        </mxCell>
        <mxCell id="S93yyvXEkiN3lrwmMDB--4" value="返回ChallengeAck" style="edgeLabel;html=1;align=center;verticalAlign=middle;resizable=0;points=[];fontFamily=Helvetica;fontColor=#000000;labelBackgroundColor=none;" parent="oJ5wStfypiaaaqxFmI3H-72" vertex="1" connectable="0">
          <mxGeometry x="0.0564" y="1" relative="1" as="geometry">
            <mxPoint as="offset" />
          </mxGeometry>
        </mxCell>
        <mxCell id="oJ5wStfypiaaaqxFmI3H-51" value="&lt;div style=&quot;&quot;&gt;&lt;div style=&quot;font-size: 10.5pt;&quot;&gt;&lt;div style=&quot;font-size: 10.5pt;&quot;&gt;&lt;div style=&quot;font-size: 10.5pt;&quot;&gt;&lt;div style=&quot;font-size: 10.5pt;&quot;&gt;&lt;div style=&quot;font-size: 10.5pt;&quot;&gt;&lt;div style=&quot;font-size: 10.5pt;&quot;&gt;&lt;div style=&quot;font-size: 10.5pt;&quot;&gt;&lt;div style=&quot;font-size: 10.5pt;&quot;&gt;&lt;div style=&quot;font-size: 10.5pt;&quot;&gt;&lt;div style=&quot;font-size: 10.5pt;&quot;&gt;&lt;div style=&quot;font-size: 10.5pt;&quot;&gt;&lt;div style=&quot;font-size: 10.5pt;&quot;&gt;&lt;div style=&quot;font-size: 10.5pt;&quot;&gt;&lt;div style=&quot;font-size: 10.5pt;&quot;&gt;&lt;div style=&quot;&quot;&gt;&lt;div style=&quot;font-size: 10.5pt;&quot;&gt;&lt;div style=&quot;font-size: 10.5pt;&quot;&gt;&lt;div style=&quot;font-size: 10.5pt;&quot;&gt;&lt;div&gt;&lt;div style=&quot;font-size: 10.5pt;&quot;&gt;&lt;span style=&quot;&quot;&gt;SendToClient&lt;/span&gt;&lt;span style=&quot;&quot;&gt;(&lt;/span&gt;&lt;span style=&quot;&quot;&gt;CommonParams&lt;/span&gt;&lt;span style=&quot;&quot;&gt;, &lt;/span&gt;&lt;span style=&quot;&quot;&gt;EHandshakePacketType&lt;/span&gt;::&lt;span style=&quot;&quot;&gt;Ack&lt;/span&gt;&lt;span style=&quot;&quot;&gt;, AckPacket)&lt;/span&gt;&lt;/div&gt;&lt;/div&gt;&lt;/div&gt;&lt;/div&gt;&lt;/div&gt;&lt;/div&gt;&lt;/div&gt;&lt;/div&gt;&lt;/div&gt;&lt;/div&gt;&lt;/div&gt;&lt;/div&gt;&lt;/div&gt;&lt;/div&gt;&lt;/div&gt;&lt;/div&gt;&lt;/div&gt;&lt;/div&gt;&lt;/div&gt;&lt;/div&gt;&lt;/div&gt;" style="rounded=1;whiteSpace=wrap;html=1;align=left;fontFamily=Helvetica;fontColor=#000000;labelBackgroundColor=none;" parent="1" vertex="1">
          <mxGeometry x="1570" y="3520" width="350" height="60" as="geometry" />
        </mxCell>
        <mxCell id="oJ5wStfypiaaaqxFmI3H-52" value="&lt;div style=&quot;&quot;&gt;&lt;div style=&quot;font-size: 10.5pt;&quot;&gt;&lt;div style=&quot;font-size: 10.5pt;&quot;&gt;&lt;div style=&quot;font-size: 10.5pt;&quot;&gt;&lt;div style=&quot;font-size: 10.5pt;&quot;&gt;&lt;div&gt;&lt;div style=&quot;font-size: 10.5pt;&quot;&gt;...&lt;/div&gt;&lt;/div&gt;&lt;/div&gt;&lt;/div&gt;&lt;/div&gt;&lt;/div&gt;&lt;/div&gt;" style="rounded=1;whiteSpace=wrap;html=1;align=left;fontFamily=Helvetica;fontColor=#000000;labelBackgroundColor=none;" parent="1" vertex="1">
          <mxGeometry x="1150" y="3040" width="260" height="60" as="geometry" />
        </mxCell>
        <mxCell id="oJ5wStfypiaaaqxFmI3H-53" value="&lt;div style=&quot;&quot;&gt;&lt;div style=&quot;font-size: 10.5pt;&quot;&gt;&lt;div style=&quot;font-size: 10.5pt;&quot;&gt;&lt;div style=&quot;font-size: 10.5pt;&quot;&gt;&lt;div style=&quot;font-size: 10.5pt;&quot;&gt;&lt;div&gt;&lt;div style=&quot;font-size: 10.5pt;&quot;&gt;...&lt;/div&gt;&lt;/div&gt;&lt;/div&gt;&lt;/div&gt;&lt;/div&gt;&lt;/div&gt;&lt;/div&gt;" style="rounded=1;whiteSpace=wrap;html=1;align=left;fontFamily=Helvetica;fontColor=#000000;labelBackgroundColor=none;" parent="1" vertex="1">
          <mxGeometry x="1330" y="3220" width="260" height="60" as="geometry" />
        </mxCell>
        <mxCell id="oJ5wStfypiaaaqxFmI3H-54" value="&lt;div style=&quot;&quot;&gt;&lt;div style=&quot;font-size: 10.5pt;&quot;&gt;&lt;div style=&quot;font-size: 10.5pt;&quot;&gt;&lt;div style=&quot;font-size: 10.5pt;&quot;&gt;&lt;div style=&quot;font-size: 10.5pt;&quot;&gt;&lt;div style=&quot;font-size: 10.5pt;&quot;&gt;&lt;div style=&quot;&quot;&gt;&lt;div style=&quot;font-size: 10.5pt;&quot;&gt;&lt;span style=&quot;&quot;&gt;if &lt;/span&gt;&lt;span style=&quot;&quot;&gt;(Result == &lt;/span&gt;&lt;span style=&quot;&quot;&gt;EIncomingResult&lt;/span&gt;::&lt;span style=&quot;&quot;&gt;Success&lt;/span&gt;&lt;span style=&quot;&quot;&gt;)&lt;/span&gt;&lt;/div&gt;&lt;/div&gt;&lt;/div&gt;&lt;/div&gt;&lt;/div&gt;&lt;/div&gt;&lt;/div&gt;&lt;/div&gt;" style="rounded=1;whiteSpace=wrap;html=1;align=left;fontFamily=Helvetica;fontColor=#000000;labelBackgroundColor=none;" parent="1" vertex="1">
          <mxGeometry x="1330" y="3580" width="290" height="60" as="geometry" />
        </mxCell>
        <mxCell id="oJ5wStfypiaaaqxFmI3H-55" value="&lt;div style=&quot;&quot;&gt;&lt;div style=&quot;font-size: 10.5pt;&quot;&gt;&lt;div style=&quot;font-size: 10.5pt;&quot;&gt;&lt;div style=&quot;font-size: 10.5pt;&quot;&gt;&lt;div style=&quot;font-size: 10.5pt;&quot;&gt;&lt;div style=&quot;font-size: 10.5pt;&quot;&gt;&lt;div style=&quot;&quot;&gt;&lt;div style=&quot;font-size: 10.5pt;&quot;&gt;&lt;div&gt;&lt;div style=&quot;font-size: 10.5pt;&quot;&gt;&lt;span style=&quot;&quot;&gt;bPassedChallenge = StatelessConnect&lt;/span&gt;&lt;span style=&quot;&quot;&gt;-&amp;gt;HasPassedChallenge&lt;/span&gt;&lt;span style=&quot;&quot;&gt;(Address, bRestartedHandshake);&lt;/span&gt;&lt;/div&gt;&lt;/div&gt;&lt;/div&gt;&lt;/div&gt;&lt;/div&gt;&lt;/div&gt;&lt;/div&gt;&lt;/div&gt;&lt;/div&gt;&lt;/div&gt;" style="rounded=1;whiteSpace=wrap;html=1;align=left;fontFamily=Helvetica;fontColor=#000000;labelBackgroundColor=none;" parent="1" vertex="1">
          <mxGeometry x="1380" y="3640" width="620" height="60" as="geometry" />
        </mxCell>
        <mxCell id="oJ5wStfypiaaaqxFmI3H-56" value="&lt;div style=&quot;&quot;&gt;&lt;div style=&quot;font-size: 10.5pt;&quot;&gt;&lt;div style=&quot;font-size: 10.5pt;&quot;&gt;&lt;div style=&quot;font-size: 10.5pt;&quot;&gt;&lt;div style=&quot;font-size: 10.5pt;&quot;&gt;&lt;div style=&quot;font-size: 10.5pt;&quot;&gt;&lt;div style=&quot;&quot;&gt;&lt;div style=&quot;font-size: 10.5pt;&quot;&gt;&lt;div style=&quot;font-size: 10.5pt;&quot;&gt;&lt;div&gt;&lt;div style=&quot;font-size: 10.5pt;&quot;&gt;&lt;span style=&quot;&quot;&gt;(&lt;/span&gt;&lt;span style=&quot;&quot;&gt;LastChallengeSuccessAddress&lt;/span&gt;&lt;span style=&quot;&quot;&gt;.&lt;/span&gt;&lt;span style=&quot;&quot;&gt;IsValid&lt;/span&gt;&lt;span style=&quot;&quot;&gt;() &amp;amp;&amp;amp; &lt;/span&gt;&lt;span style=&quot;&quot;&gt;Address&lt;/span&gt;&lt;span style=&quot;&quot;&gt;.&lt;/span&gt;&lt;span style=&quot;&quot;&gt;IsValid&lt;/span&gt;&lt;span style=&quot;&quot;&gt;()&lt;/span&gt;&lt;span style=&quot;&quot;&gt;) &lt;/span&gt;? &lt;span style=&quot;&quot;&gt;*&lt;/span&gt;&lt;span style=&quot;&quot;&gt;LastChallengeSuccessAddress &lt;/span&gt;&lt;span style=&quot;&quot;&gt;== *&lt;/span&gt;&lt;span style=&quot;&quot;&gt;Address &lt;/span&gt;: &lt;span style=&quot;&quot;&gt;false&lt;/span&gt;&lt;/div&gt;&lt;/div&gt;&lt;/div&gt;&lt;/div&gt;&lt;/div&gt;&lt;/div&gt;&lt;/div&gt;&lt;/div&gt;&lt;/div&gt;&lt;/div&gt;&lt;/div&gt;" style="rounded=1;whiteSpace=wrap;html=1;align=left;fontFamily=Helvetica;fontColor=#000000;labelBackgroundColor=none;" parent="1" vertex="1">
          <mxGeometry x="1430" y="3700" width="620" height="60" as="geometry" />
        </mxCell>
        <mxCell id="oJ5wStfypiaaaqxFmI3H-57" value="&lt;div style=&quot;&quot;&gt;&lt;div style=&quot;font-size: 10.5pt;&quot;&gt;&lt;div style=&quot;font-size: 10.5pt;&quot;&gt;&lt;div style=&quot;font-size: 10.5pt;&quot;&gt;&lt;div style=&quot;font-size: 10.5pt;&quot;&gt;&lt;div style=&quot;font-size: 10.5pt;&quot;&gt;&lt;div style=&quot;&quot;&gt;&lt;div style=&quot;font-size: 10.5pt;&quot;&gt;&lt;div style=&quot;font-size: 10.5pt;&quot;&gt;&lt;div&gt;&lt;div style=&quot;font-size: 10.5pt;&quot;&gt;&lt;span style=&quot;&quot;&gt;if &lt;/span&gt;&lt;span style=&quot;&quot;&gt;(bPassedChallenge)&lt;/span&gt;&lt;/div&gt;&lt;/div&gt;&lt;/div&gt;&lt;/div&gt;&lt;/div&gt;&lt;/div&gt;&lt;/div&gt;&lt;/div&gt;&lt;/div&gt;&lt;/div&gt;&lt;/div&gt;" style="rounded=1;whiteSpace=wrap;html=1;align=left;fontFamily=Helvetica;fontColor=#000000;labelBackgroundColor=none;" parent="1" vertex="1">
          <mxGeometry x="1379" y="3760" width="620" height="60" as="geometry" />
        </mxCell>
        <mxCell id="oJ5wStfypiaaaqxFmI3H-58" value="&lt;div style=&quot;&quot;&gt;&lt;div style=&quot;font-size: 10.5pt;&quot;&gt;&lt;div style=&quot;font-size: 10.5pt;&quot;&gt;&lt;div style=&quot;font-size: 10.5pt;&quot;&gt;&lt;div style=&quot;font-size: 10.5pt;&quot;&gt;&lt;div style=&quot;font-size: 10.5pt;&quot;&gt;&lt;div style=&quot;font-size: 10.5pt;&quot;&gt;&lt;div style=&quot;font-size: 10.5pt;&quot;&gt;&lt;div&gt;&lt;div style=&quot;font-size: 10.5pt;&quot;&gt;&lt;span style=&quot;&quot;&gt;ProcessConnectionlessPacket&lt;/span&gt;&lt;/div&gt;&lt;/div&gt;&lt;/div&gt;&lt;/div&gt;&lt;/div&gt;&lt;/div&gt;&lt;/div&gt;&lt;/div&gt;&lt;/div&gt;&lt;/div&gt;" style="rounded=1;whiteSpace=wrap;html=1;align=left;fontFamily=Helvetica;fontColor=#000000;labelBackgroundColor=none;" parent="1" vertex="1">
          <mxGeometry x="1210" y="3100" width="230" height="60" as="geometry" />
        </mxCell>
        <mxCell id="oJ5wStfypiaaaqxFmI3H-59" value="&lt;div style=&quot;&quot;&gt;&lt;div style=&quot;font-size: 10.5pt;&quot;&gt;&lt;div style=&quot;font-size: 10.5pt;&quot;&gt;&lt;div style=&quot;font-size: 10.5pt;&quot;&gt;&lt;div style=&quot;font-size: 10.5pt;&quot;&gt;&lt;div style=&quot;font-size: 10.5pt;&quot;&gt;&lt;div style=&quot;font-size: 10.5pt;&quot;&gt;&lt;div style=&quot;&quot;&gt;&lt;div style=&quot;font-size: 10.5pt;&quot;&gt;&lt;span style=&quot;&quot;&gt;if &lt;/span&gt;&lt;span style=&quot;&quot;&gt;(bPassedChallenge)&lt;/span&gt;&lt;/div&gt;&lt;/div&gt;&lt;/div&gt;&lt;/div&gt;&lt;/div&gt;&lt;/div&gt;&lt;/div&gt;&lt;/div&gt;&lt;/div&gt;" style="rounded=1;whiteSpace=wrap;html=1;align=left;fontFamily=Helvetica;fontColor=#000000;labelBackgroundColor=none;" parent="1" vertex="1">
          <mxGeometry x="1270" y="3820" width="410" height="60" as="geometry" />
        </mxCell>
        <mxCell id="oJ5wStfypiaaaqxFmI3H-60" value="&lt;div style=&quot;&quot;&gt;&lt;div style=&quot;font-size: 10.5pt;&quot;&gt;&lt;div style=&quot;font-size: 10.5pt;&quot;&gt;&lt;div style=&quot;font-size: 10.5pt;&quot;&gt;&lt;div style=&quot;font-size: 10.5pt;&quot;&gt;&lt;div style=&quot;font-size: 10.5pt;&quot;&gt;&lt;div style=&quot;font-size: 10.5pt;&quot;&gt;&lt;div style=&quot;&quot;&gt;&lt;div style=&quot;font-size: 10.5pt;&quot;&gt;&lt;div style=&quot;font-size: 10.5pt;&quot;&gt;&lt;div&gt;&lt;div style=&quot;font-size: 10.5pt;&quot;&gt;&lt;span style=&quot;&quot;&gt;if &lt;/span&gt;&lt;span style=&quot;&quot;&gt;(!bRestartedHandshake)&lt;/span&gt;&lt;/div&gt;&lt;/div&gt;&lt;/div&gt;&lt;/div&gt;&lt;/div&gt;&lt;/div&gt;&lt;/div&gt;&lt;/div&gt;&lt;/div&gt;&lt;/div&gt;&lt;/div&gt;&lt;/div&gt;" style="rounded=1;whiteSpace=wrap;html=1;align=left;fontFamily=Helvetica;fontColor=#000000;labelBackgroundColor=none;" parent="1" vertex="1">
          <mxGeometry x="1310" y="3880" width="410" height="60" as="geometry" />
        </mxCell>
        <mxCell id="oJ5wStfypiaaaqxFmI3H-61" value="&lt;div style=&quot;&quot;&gt;&lt;div style=&quot;font-size: 10.5pt;&quot;&gt;&lt;div style=&quot;font-size: 10.5pt;&quot;&gt;&lt;div style=&quot;font-size: 10.5pt;&quot;&gt;&lt;div style=&quot;font-size: 10.5pt;&quot;&gt;&lt;div style=&quot;font-size: 10.5pt;&quot;&gt;&lt;div style=&quot;font-size: 10.5pt;&quot;&gt;&lt;div style=&quot;&quot;&gt;&lt;div style=&quot;font-size: 10.5pt;&quot;&gt;&lt;div style=&quot;font-size: 10.5pt;&quot;&gt;&lt;div style=&quot;font-size: 10.5pt;&quot;&gt;&lt;div&gt;&lt;div style=&quot;font-size: 10.5pt;&quot;&gt;ReturnVal &lt;span style=&quot;&quot;&gt;= &lt;/span&gt;NewObject&lt;span style=&quot;&quot;&gt;&amp;lt;&lt;/span&gt;UIpConnection&lt;span style=&quot;&quot;&gt;&amp;gt;(&lt;/span&gt;GetTransientPackage&lt;span style=&quot;&quot;&gt;(), &lt;/span&gt;NetConnectionClass&lt;span style=&quot;&quot;&gt;);&lt;/span&gt;&lt;/div&gt;&lt;/div&gt;&lt;/div&gt;&lt;/div&gt;&lt;/div&gt;&lt;/div&gt;&lt;/div&gt;&lt;/div&gt;&lt;/div&gt;&lt;/div&gt;&lt;/div&gt;&lt;/div&gt;&lt;/div&gt;" style="rounded=1;whiteSpace=wrap;html=1;align=left;fontFamily=Helvetica;fontColor=#000000;labelBackgroundColor=none;" parent="1" vertex="1">
          <mxGeometry x="1360" y="3940" width="410" height="60" as="geometry" />
        </mxCell>
        <mxCell id="oJ5wStfypiaaaqxFmI3H-62" value="&lt;div style=&quot;&quot;&gt;&lt;div style=&quot;font-size: 10.5pt;&quot;&gt;&lt;div style=&quot;font-size: 10.5pt;&quot;&gt;&lt;div style=&quot;font-size: 10.5pt;&quot;&gt;&lt;div style=&quot;font-size: 10.5pt;&quot;&gt;&lt;div&gt;&lt;div style=&quot;font-size: 10.5pt;&quot;&gt;&lt;span style=&quot;&quot;&gt;UIpNetDriver&lt;/span&gt;::&lt;span style=&quot;&quot;&gt;TickDispatch&lt;/span&gt;&lt;/div&gt;&lt;/div&gt;&lt;/div&gt;&lt;/div&gt;&lt;/div&gt;&lt;/div&gt;&lt;/div&gt;" style="rounded=1;whiteSpace=wrap;html=1;align=left;fontFamily=Helvetica;fontColor=#000000;labelBackgroundColor=none;" parent="1" vertex="1">
          <mxGeometry x="-451" y="3730" width="260" height="60" as="geometry" />
        </mxCell>
        <mxCell id="oJ5wStfypiaaaqxFmI3H-63" value="&lt;div style=&quot;&quot;&gt;&lt;div style=&quot;font-size: 10.5pt;&quot;&gt;&lt;div style=&quot;font-size: 10.5pt;&quot;&gt;&lt;div style=&quot;font-size: 10.5pt;&quot;&gt;&lt;div style=&quot;font-size: 10.5pt;&quot;&gt;&lt;div&gt;&lt;div style=&quot;font-size: 10.5pt;&quot;&gt;...&lt;/div&gt;&lt;/div&gt;&lt;/div&gt;&lt;/div&gt;&lt;/div&gt;&lt;/div&gt;&lt;/div&gt;" style="rounded=1;whiteSpace=wrap;html=1;align=left;fontFamily=Helvetica;fontColor=#000000;labelBackgroundColor=none;" parent="1" vertex="1">
          <mxGeometry x="-382" y="3790" width="260" height="60" as="geometry" />
        </mxCell>
        <mxCell id="oJ5wStfypiaaaqxFmI3H-64" value="&lt;div style=&quot;&quot;&gt;&lt;div style=&quot;font-size: 10.5pt;&quot;&gt;&lt;div style=&quot;font-size: 10.5pt;&quot;&gt;&lt;div style=&quot;font-size: 10.5pt;&quot;&gt;&lt;div style=&quot;font-size: 10.5pt;&quot;&gt;&lt;div style=&quot;font-size: 10.5pt;&quot;&gt;&lt;div style=&quot;&quot;&gt;&lt;div style=&quot;font-size: 10.5pt;&quot;&gt;&lt;span style=&quot;&quot;&gt;else if &lt;/span&gt;&lt;span style=&quot;&quot;&gt;(&lt;/span&gt;HandshakeData&lt;span style=&quot;&quot;&gt;.&lt;/span&gt;HandshakePacketType &lt;span style=&quot;&quot;&gt;== &lt;/span&gt;EHandshakePacketType::Ack &lt;span style=&quot;&quot;&gt;&amp;amp;&amp;amp; &lt;/span&gt;HandshakeData&lt;span style=&quot;&quot;&gt;.&lt;/span&gt;Timestamp &lt;span style=&quot;&quot;&gt;&amp;lt; &lt;/span&gt;&lt;span style=&quot;&quot;&gt;0.0&lt;/span&gt;&lt;span style=&quot;&quot;&gt;)&lt;/span&gt;&lt;/div&gt;&lt;/div&gt;&lt;/div&gt;&lt;/div&gt;&lt;/div&gt;&lt;/div&gt;&lt;/div&gt;&lt;/div&gt;" style="rounded=1;whiteSpace=wrap;html=1;align=left;fontFamily=Helvetica;fontColor=#000000;labelBackgroundColor=none;" parent="1" vertex="1">
          <mxGeometry x="-327" y="3850" width="260" height="60" as="geometry" />
        </mxCell>
        <mxCell id="oJ5wStfypiaaaqxFmI3H-65" value="&lt;div style=&quot;&quot;&gt;&lt;div style=&quot;font-size: 10.5pt;&quot;&gt;&lt;div style=&quot;font-size: 10.5pt;&quot;&gt;&lt;div style=&quot;font-size: 10.5pt;&quot;&gt;&lt;div style=&quot;font-size: 10.5pt;&quot;&gt;&lt;div style=&quot;font-size: 10.5pt;&quot;&gt;&lt;div style=&quot;&quot;&gt;&lt;div style=&quot;font-size: 10.5pt;&quot;&gt;&lt;div style=&quot;font-size: 10.5pt;&quot;&gt;&lt;div&gt;&lt;div style=&quot;font-size: 10.5pt;&quot;&gt;&lt;span style=&quot;&quot;&gt;SetState&lt;/span&gt;&lt;span style=&quot;&quot;&gt;(&lt;/span&gt;&lt;span style=&quot;&quot;&gt;UE&lt;/span&gt;::&lt;span style=&quot;&quot;&gt;Handler&lt;/span&gt;::&lt;span style=&quot;&quot;&gt;Component&lt;/span&gt;::&lt;span style=&quot;&quot;&gt;State&lt;/span&gt;::&lt;span style=&quot;&quot;&gt;Initialized&lt;/span&gt;&lt;span style=&quot;&quot;&gt;);&lt;/span&gt;&lt;/div&gt;&lt;/div&gt;&lt;/div&gt;&lt;/div&gt;&lt;/div&gt;&lt;/div&gt;&lt;/div&gt;&lt;/div&gt;&lt;/div&gt;&lt;/div&gt;&lt;/div&gt;" style="rounded=1;whiteSpace=wrap;html=1;align=left;fontFamily=Helvetica;fontColor=#000000;labelBackgroundColor=none;" parent="1" vertex="1">
          <mxGeometry x="-270" y="3910" width="260" height="60" as="geometry" />
        </mxCell>
        <mxCell id="oJ5wStfypiaaaqxFmI3H-66" value="&lt;div style=&quot;&quot;&gt;&lt;div style=&quot;font-size: 10.5pt;&quot;&gt;&lt;div style=&quot;font-size: 10.5pt;&quot;&gt;&lt;div style=&quot;font-size: 10.5pt;&quot;&gt;&lt;div style=&quot;font-size: 10.5pt;&quot;&gt;&lt;div style=&quot;font-size: 10.5pt;&quot;&gt;&lt;div style=&quot;&quot;&gt;&lt;div style=&quot;font-size: 10.5pt;&quot;&gt;&lt;div&gt;&lt;div style=&quot;font-size: 10.5pt;&quot;&gt;&lt;span style=&quot;&quot;&gt;// 标志着连接成功&lt;/span&gt;&lt;/div&gt;&lt;div style=&quot;font-size: 10.5pt;&quot;&gt;&lt;span style=&quot;&quot;&gt;Initialized&lt;/span&gt;&lt;span style=&quot;&quot;&gt;();&lt;/span&gt;&lt;/div&gt;&lt;/div&gt;&lt;/div&gt;&lt;/div&gt;&lt;/div&gt;&lt;/div&gt;&lt;/div&gt;&lt;/div&gt;&lt;/div&gt;&lt;/div&gt;" style="rounded=1;whiteSpace=wrap;html=1;align=left;fontFamily=Helvetica;fontColor=#000000;labelBackgroundColor=none;" parent="1" vertex="1">
          <mxGeometry x="-270" y="3970" width="260" height="60" as="geometry" />
        </mxCell>
        <mxCell id="oJ5wStfypiaaaqxFmI3H-67" value="&lt;div style=&quot;&quot;&gt;&lt;div style=&quot;font-size: 10.5pt;&quot;&gt;&lt;div style=&quot;font-size: 10.5pt;&quot;&gt;&lt;div style=&quot;font-size: 10.5pt;&quot;&gt;&lt;div style=&quot;font-size: 10.5pt;&quot;&gt;&lt;div style=&quot;font-size: 10.5pt;&quot;&gt;&lt;div style=&quot;&quot;&gt;&lt;div style=&quot;font-size: 10.5pt;&quot;&gt;&lt;div style=&quot;font-size: 10.5pt;&quot;&gt;&lt;div&gt;&lt;div style=&quot;font-size: 10.5pt;&quot;&gt;&lt;span style=&quot;&quot;&gt;// 重置参数&lt;/span&gt;&lt;/div&gt;&lt;div style=&quot;font-size: 10.5pt;&quot;&gt;&lt;span style=&quot;&quot;&gt;bRestartedHandshake &lt;/span&gt;&lt;span style=&quot;&quot;&gt;= &lt;/span&gt;&lt;span style=&quot;&quot;&gt;false&lt;/span&gt;&lt;span style=&quot;&quot;&gt;;&lt;/span&gt;&lt;/div&gt;&lt;/div&gt;&lt;/div&gt;&lt;/div&gt;&lt;/div&gt;&lt;/div&gt;&lt;/div&gt;&lt;/div&gt;&lt;/div&gt;&lt;/div&gt;&lt;/div&gt;" style="rounded=1;whiteSpace=wrap;html=1;align=left;fontFamily=Helvetica;fontColor=#000000;labelBackgroundColor=none;" parent="1" vertex="1">
          <mxGeometry x="-272" y="4327" width="260" height="60" as="geometry" />
        </mxCell>
        <mxCell id="oJ5wStfypiaaaqxFmI3H-68" value="&lt;div style=&quot;&quot;&gt;&lt;div style=&quot;font-size: 10.5pt;&quot;&gt;&lt;div style=&quot;font-size: 10.5pt;&quot;&gt;&lt;div style=&quot;font-size: 10.5pt;&quot;&gt;&lt;div style=&quot;font-size: 10.5pt;&quot;&gt;&lt;div style=&quot;font-size: 10.5pt;&quot;&gt;&lt;div style=&quot;&quot;&gt;&lt;div style=&quot;font-size: 10.5pt;&quot;&gt;&lt;div style=&quot;font-size: 10.5pt;&quot;&gt;&lt;div style=&quot;font-size: 10.5pt;&quot;&gt;&lt;div&gt;&lt;div style=&quot;font-size: 10.5pt;&quot;&gt;&lt;span style=&quot;&quot;&gt;// 重置参数&lt;/span&gt;&lt;/div&gt;&lt;div style=&quot;font-size: 10.5pt;&quot;&gt;&lt;span style=&quot;&quot;&gt;SentHandshakePacketCount &lt;/span&gt;&lt;span style=&quot;&quot;&gt;= &lt;/span&gt;&lt;span style=&quot;&quot;&gt;0&lt;/span&gt;&lt;span style=&quot;&quot;&gt;;&lt;/span&gt;&lt;/div&gt;&lt;/div&gt;&lt;/div&gt;&lt;/div&gt;&lt;/div&gt;&lt;/div&gt;&lt;/div&gt;&lt;/div&gt;&lt;/div&gt;&lt;/div&gt;&lt;/div&gt;&lt;/div&gt;" style="rounded=1;whiteSpace=wrap;html=1;align=left;fontFamily=Helvetica;fontColor=#000000;labelBackgroundColor=none;" parent="1" vertex="1">
          <mxGeometry x="-272" y="4387" width="260" height="60" as="geometry" />
        </mxCell>
        <mxCell id="oJ5wStfypiaaaqxFmI3H-73" value="&lt;div style=&quot;&quot;&gt;&lt;div style=&quot;font-size: 10.5pt;&quot;&gt;&lt;div style=&quot;font-size: 10.5pt;&quot;&gt;&lt;div style=&quot;font-size: 10.5pt;&quot;&gt;&lt;div style=&quot;font-size: 10.5pt;&quot;&gt;&lt;div style=&quot;font-size: 10.5pt;&quot;&gt;&lt;div style=&quot;&quot;&gt;&lt;div style=&quot;font-size: 10.5pt;&quot;&gt;&lt;div style=&quot;font-size: 10.5pt;&quot;&gt;&lt;div&gt;&lt;div style=&quot;font-size: 10.5pt;&quot;&gt;&lt;span style=&quot;&quot;&gt;Handler&lt;/span&gt;&lt;span style=&quot;&quot;&gt;-&amp;gt;&lt;/span&gt;&lt;span style=&quot;&quot;&gt;HandlerComponentInitialized&lt;/span&gt;&lt;span style=&quot;&quot;&gt;(&lt;/span&gt;&lt;span style=&quot;&quot;&gt;this&lt;/span&gt;&lt;span style=&quot;&quot;&gt;)&lt;/span&gt;&lt;/div&gt;&lt;/div&gt;&lt;/div&gt;&lt;/div&gt;&lt;/div&gt;&lt;/div&gt;&lt;/div&gt;&lt;/div&gt;&lt;/div&gt;&lt;/div&gt;&lt;/div&gt;" style="rounded=1;whiteSpace=wrap;html=1;align=left;fontFamily=Helvetica;fontColor=#000000;labelBackgroundColor=none;" parent="1" vertex="1">
          <mxGeometry x="-203" y="4030" width="260" height="60" as="geometry" />
        </mxCell>
        <mxCell id="oJ5wStfypiaaaqxFmI3H-74" value="&lt;div style=&quot;&quot;&gt;&lt;div style=&quot;font-size: 10.5pt;&quot;&gt;&lt;div style=&quot;font-size: 10.5pt;&quot;&gt;&lt;div style=&quot;font-size: 10.5pt;&quot;&gt;&lt;div style=&quot;font-size: 10.5pt;&quot;&gt;&lt;div style=&quot;font-size: 10.5pt;&quot;&gt;&lt;div style=&quot;&quot;&gt;&lt;div style=&quot;font-size: 10.5pt;&quot;&gt;&lt;div style=&quot;font-size: 10.5pt;&quot;&gt;&lt;div&gt;&lt;div style=&quot;font-size: 10.5pt;&quot;&gt;&lt;span style=&quot;&quot;&gt;HandlerInitialized()&lt;/span&gt;&lt;/div&gt;&lt;/div&gt;&lt;/div&gt;&lt;/div&gt;&lt;/div&gt;&lt;/div&gt;&lt;/div&gt;&lt;/div&gt;&lt;/div&gt;&lt;/div&gt;&lt;/div&gt;" style="rounded=1;whiteSpace=wrap;html=1;align=left;fontFamily=Helvetica;fontColor=#000000;labelBackgroundColor=none;" parent="1" vertex="1">
          <mxGeometry x="-162" y="4090" width="260" height="60" as="geometry" />
        </mxCell>
        <mxCell id="oJ5wStfypiaaaqxFmI3H-75" value="&lt;div style=&quot;&quot;&gt;&lt;div style=&quot;font-size: 10.5pt;&quot;&gt;&lt;div style=&quot;font-size: 10.5pt;&quot;&gt;&lt;div style=&quot;font-size: 10.5pt;&quot;&gt;&lt;div style=&quot;font-size: 10.5pt;&quot;&gt;&lt;div style=&quot;font-size: 10.5pt;&quot;&gt;&lt;div style=&quot;&quot;&gt;&lt;div style=&quot;font-size: 10.5pt;&quot;&gt;&lt;div style=&quot;font-size: 10.5pt;&quot;&gt;&lt;div style=&quot;font-size: 10.5pt;&quot;&gt;&lt;div&gt;&lt;div style=&quot;font-size: 10.5pt;&quot;&gt;&lt;span style=&quot;&quot;&gt;HandshakeCompleteDel&lt;/span&gt;&lt;span style=&quot;&quot;&gt;.&lt;/span&gt;&lt;span style=&quot;&quot;&gt;ExecuteIfBound&lt;/span&gt;&lt;span style=&quot;&quot;&gt;()&lt;/span&gt;&lt;/div&gt;&lt;/div&gt;&lt;/div&gt;&lt;/div&gt;&lt;/div&gt;&lt;/div&gt;&lt;/div&gt;&lt;/div&gt;&lt;/div&gt;&lt;/div&gt;&lt;/div&gt;&lt;/div&gt;" style="rounded=1;whiteSpace=wrap;html=1;align=left;fontFamily=Helvetica;fontColor=#000000;labelBackgroundColor=none;" parent="1" vertex="1">
          <mxGeometry x="-111" y="4150" width="260" height="60" as="geometry" />
        </mxCell>
        <mxCell id="oJ5wStfypiaaaqxFmI3H-76" value="&lt;div style=&quot;&quot;&gt;&lt;div style=&quot;font-size: 10.5pt;&quot;&gt;&lt;div style=&quot;font-size: 10.5pt;&quot;&gt;&lt;div style=&quot;font-size: 10.5pt;&quot;&gt;&lt;div style=&quot;font-size: 10.5pt;&quot;&gt;&lt;div style=&quot;font-size: 10.5pt;&quot;&gt;&lt;div style=&quot;&quot;&gt;&lt;div style=&quot;font-size: 10.5pt;&quot;&gt;&lt;div style=&quot;font-size: 10.5pt;&quot;&gt;&lt;div style=&quot;font-size: 10.5pt;&quot;&gt;&lt;div style=&quot;font-size: 10.5pt;&quot;&gt;&lt;div&gt;&lt;div style=&quot;font-size: 10.5pt;&quot;&gt;&lt;span style=&quot;&quot;&gt;UPendingNetGame&lt;/span&gt;::&lt;span style=&quot;&quot;&gt;SendInitialJoin&lt;/span&gt;&lt;span style=&quot;&quot;&gt;()&lt;/span&gt;&lt;/div&gt;&lt;/div&gt;&lt;/div&gt;&lt;/div&gt;&lt;/div&gt;&lt;/div&gt;&lt;/div&gt;&lt;/div&gt;&lt;/div&gt;&lt;/div&gt;&lt;/div&gt;&lt;/div&gt;&lt;/div&gt;" style="rounded=1;whiteSpace=wrap;html=1;align=left;fontFamily=Helvetica;fontColor=#000000;labelBackgroundColor=none;" parent="1" vertex="1">
          <mxGeometry x="-67" y="4210" width="260" height="60" as="geometry" />
        </mxCell>
        <mxCell id="oJ5wStfypiaaaqxFmI3H-100" style="rounded=0;orthogonalLoop=1;jettySize=auto;html=1;entryX=0;entryY=0.5;entryDx=0;entryDy=0;fontFamily=Helvetica;fontColor=#000000;labelBackgroundColor=none;" parent="1" source="oJ5wStfypiaaaqxFmI3H-77" target="oJ5wStfypiaaaqxFmI3H-78" edge="1">
          <mxGeometry relative="1" as="geometry" />
        </mxCell>
        <mxCell id="S93yyvXEkiN3lrwmMDB--5" value="发送NMT_Hello" style="edgeLabel;html=1;align=center;verticalAlign=middle;resizable=0;points=[];fontFamily=Helvetica;fontColor=#000000;labelBackgroundColor=none;" parent="oJ5wStfypiaaaqxFmI3H-100" vertex="1" connectable="0">
          <mxGeometry x="0.0739" y="1" relative="1" as="geometry">
            <mxPoint as="offset" />
          </mxGeometry>
        </mxCell>
        <mxCell id="oJ5wStfypiaaaqxFmI3H-77" value="&lt;div style=&quot;&quot;&gt;&lt;div style=&quot;font-size: 10.5pt;&quot;&gt;&lt;div style=&quot;font-size: 10.5pt;&quot;&gt;&lt;div style=&quot;font-size: 10.5pt;&quot;&gt;&lt;div style=&quot;font-size: 10.5pt;&quot;&gt;&lt;div style=&quot;font-size: 10.5pt;&quot;&gt;&lt;div style=&quot;&quot;&gt;&lt;div style=&quot;font-size: 10.5pt;&quot;&gt;&lt;div style=&quot;font-size: 10.5pt;&quot;&gt;&lt;div style=&quot;font-size: 10.5pt;&quot;&gt;&lt;div style=&quot;font-size: 10.5pt;&quot;&gt;&lt;div style=&quot;font-size: 10.5pt;&quot;&gt;&lt;div&gt;&lt;div style=&quot;font-size: 10.5pt;&quot;&gt;FNetControlMessage&lt;span style=&quot;&quot;&gt;&amp;lt;&lt;/span&gt;NMT_Hello&lt;span style=&quot;&quot;&gt;&amp;gt;&lt;/span&gt;::Send&lt;span style=&quot;&quot;&gt;(&lt;/span&gt;ServerConn&lt;span style=&quot;&quot;&gt;, &lt;/span&gt;IsLittleEndian&lt;span style=&quot;&quot;&gt;, &lt;/span&gt;LocalNetworkVersion&lt;span style=&quot;&quot;&gt;, &lt;/span&gt;EncryptionToken&lt;span style=&quot;&quot;&gt;, &lt;/span&gt;LocalNetworkFeatures&lt;span style=&quot;&quot;&gt;)&lt;/span&gt;&lt;/div&gt;&lt;/div&gt;&lt;/div&gt;&lt;/div&gt;&lt;/div&gt;&lt;/div&gt;&lt;/div&gt;&lt;/div&gt;&lt;/div&gt;&lt;/div&gt;&lt;/div&gt;&lt;/div&gt;&lt;/div&gt;&lt;/div&gt;" style="rounded=1;whiteSpace=wrap;html=1;align=left;fontFamily=Helvetica;fontColor=#000000;labelBackgroundColor=none;" parent="1" vertex="1">
          <mxGeometry x="-17" y="4270" width="897" height="60" as="geometry" />
        </mxCell>
        <mxCell id="oJ5wStfypiaaaqxFmI3H-78" value="&lt;div style=&quot;&quot;&gt;&lt;div style=&quot;font-size: 10.5pt;&quot;&gt;&lt;div style=&quot;font-size: 10.5pt;&quot;&gt;&lt;div style=&quot;font-size: 10.5pt;&quot;&gt;&lt;div style=&quot;font-size: 10.5pt;&quot;&gt;&lt;div&gt;&lt;div style=&quot;font-size: 10.5pt;&quot;&gt;&lt;span style=&quot;&quot;&gt;UIpNetDriver&lt;/span&gt;::&lt;span style=&quot;&quot;&gt;TickDispatch&lt;/span&gt;&lt;/div&gt;&lt;/div&gt;&lt;/div&gt;&lt;/div&gt;&lt;/div&gt;&lt;/div&gt;&lt;/div&gt;" style="rounded=1;whiteSpace=wrap;html=1;align=left;fontFamily=Helvetica;fontColor=#000000;labelBackgroundColor=none;" parent="1" vertex="1">
          <mxGeometry x="1100" y="4430" width="260" height="60" as="geometry" />
        </mxCell>
        <mxCell id="oJ5wStfypiaaaqxFmI3H-79" value="&lt;div style=&quot;&quot;&gt;&lt;div style=&quot;font-size: 10.5pt;&quot;&gt;&lt;div style=&quot;font-size: 10.5pt;&quot;&gt;&lt;div style=&quot;font-size: 10.5pt;&quot;&gt;&lt;div style=&quot;font-size: 10.5pt;&quot;&gt;&lt;div style=&quot;font-size: 10.5pt;&quot;&gt;&lt;div style=&quot;&quot;&gt;&lt;div style=&quot;font-size: 10.5pt;&quot;&gt;&lt;font&gt;else &lt;/font&gt;&lt;span style=&quot;&quot;&gt;( bOk == &lt;/span&gt;&lt;span style=&quot;&quot;&gt;false &lt;/span&gt;&lt;span style=&quot;&quot;&gt;)&lt;/span&gt;&lt;/div&gt;&lt;/div&gt;&lt;/div&gt;&lt;/div&gt;&lt;/div&gt;&lt;/div&gt;&lt;/div&gt;&lt;/div&gt;" style="rounded=1;whiteSpace=wrap;html=1;align=left;fontFamily=Helvetica;fontColor=#000000;labelBackgroundColor=none;" parent="1" vertex="1">
          <mxGeometry x="1150" y="4490" width="260" height="60" as="geometry" />
        </mxCell>
        <mxCell id="oJ5wStfypiaaaqxFmI3H-80" value="&lt;div style=&quot;&quot;&gt;&lt;div style=&quot;font-size: 10.5pt;&quot;&gt;&lt;div style=&quot;font-size: 10.5pt;&quot;&gt;&lt;div style=&quot;font-size: 10.5pt;&quot;&gt;&lt;div style=&quot;font-size: 10.5pt;&quot;&gt;&lt;div style=&quot;font-size: 10.5pt;&quot;&gt;&lt;div style=&quot;&quot;&gt;&lt;div style=&quot;font-size: 10.5pt;&quot;&gt;&lt;div style=&quot;&quot;&gt;&lt;div style=&quot;font-size: 10.5pt;&quot;&gt;&lt;span style=&quot;&quot;&gt;if &lt;/span&gt;&lt;span style=&quot;&quot;&gt;(Connection != &lt;/span&gt;&lt;span style=&quot;&quot;&gt;nullptr &lt;/span&gt;&lt;span style=&quot;&quot;&gt;&amp;amp;&amp;amp; !bIgnorePacket)&lt;/span&gt;&lt;/div&gt;&lt;/div&gt;&lt;/div&gt;&lt;/div&gt;&lt;/div&gt;&lt;/div&gt;&lt;/div&gt;&lt;/div&gt;&lt;/div&gt;&lt;/div&gt;" style="rounded=1;whiteSpace=wrap;html=1;align=left;fontFamily=Helvetica;fontColor=#000000;labelBackgroundColor=none;" parent="1" vertex="1">
          <mxGeometry x="1195" y="4550" width="260" height="60" as="geometry" />
        </mxCell>
        <mxCell id="oJ5wStfypiaaaqxFmI3H-81" value="&lt;div style=&quot;&quot;&gt;&lt;div style=&quot;font-size: 10.5pt;&quot;&gt;&lt;div style=&quot;font-size: 10.5pt;&quot;&gt;&lt;div style=&quot;font-size: 10.5pt;&quot;&gt;&lt;div style=&quot;font-size: 10.5pt;&quot;&gt;&lt;div style=&quot;font-size: 10.5pt;&quot;&gt;&lt;div style=&quot;&quot;&gt;&lt;div style=&quot;font-size: 10.5pt;&quot;&gt;&lt;div style=&quot;&quot;&gt;&lt;div style=&quot;font-size: 10.5pt;&quot;&gt;&lt;div&gt;&lt;div style=&quot;font-size: 10.5pt;&quot;&gt;Connection&lt;span style=&quot;&quot;&gt;-&amp;gt;&lt;/span&gt;ReceivedRawPacket&lt;span style=&quot;&quot;&gt;((&lt;/span&gt;uint8&lt;span style=&quot;&quot;&gt;*)&lt;/span&gt;ReceivedPacket&lt;span style=&quot;&quot;&gt;.&lt;/span&gt;DataView&lt;span style=&quot;&quot;&gt;.&lt;/span&gt;GetData&lt;span style=&quot;&quot;&gt;(), &lt;/span&gt;ReceivedPacket&lt;span style=&quot;&quot;&gt;.&lt;/span&gt;DataView&lt;span style=&quot;&quot;&gt;.&lt;/span&gt;NumBytes&lt;span style=&quot;&quot;&gt;());&lt;/span&gt;&lt;/div&gt;&lt;/div&gt;&lt;/div&gt;&lt;/div&gt;&lt;/div&gt;&lt;/div&gt;&lt;/div&gt;&lt;/div&gt;&lt;/div&gt;&lt;/div&gt;&lt;/div&gt;&lt;/div&gt;" style="rounded=1;whiteSpace=wrap;html=1;align=left;fontFamily=Helvetica;fontColor=#000000;labelBackgroundColor=none;" parent="1" vertex="1">
          <mxGeometry x="1250" y="4610" width="800" height="60" as="geometry" />
        </mxCell>
        <mxCell id="oJ5wStfypiaaaqxFmI3H-82" value="&lt;div style=&quot;&quot;&gt;&lt;div style=&quot;font-size: 10.5pt;&quot;&gt;&lt;span style=&quot;&quot;&gt;if &lt;/span&gt;&lt;span style=&quot;&quot;&gt;(Reader.&lt;/span&gt;&lt;span style=&quot;&quot;&gt;GetBitsLeft&lt;/span&gt;&lt;span style=&quot;&quot;&gt;() &amp;gt; &lt;/span&gt;&lt;span style=&quot;&quot;&gt;0&lt;/span&gt;&lt;span style=&quot;&quot;&gt;)&lt;/span&gt;&lt;/div&gt;&lt;/div&gt;" style="rounded=1;whiteSpace=wrap;html=1;align=left;fontFamily=Helvetica;fontColor=#000000;labelBackgroundColor=none;" parent="1" vertex="1">
          <mxGeometry x="1310" y="4670" width="280" height="60" as="geometry" />
        </mxCell>
        <mxCell id="oJ5wStfypiaaaqxFmI3H-83" value="&lt;div style=&quot;&quot;&gt;&lt;div style=&quot;font-size: 10.5pt;&quot;&gt;&lt;div&gt;&lt;div style=&quot;font-size: 10.5pt;&quot;&gt;&lt;span style=&quot;&quot;&gt;ReceivedPacket&lt;/span&gt;&lt;span style=&quot;&quot;&gt;(Reader);&lt;/span&gt;&lt;/div&gt;&lt;/div&gt;&lt;/div&gt;&lt;/div&gt;" style="rounded=1;whiteSpace=wrap;html=1;align=left;fontFamily=Helvetica;fontColor=#000000;labelBackgroundColor=none;" parent="1" vertex="1">
          <mxGeometry x="1374" y="4730" width="280" height="60" as="geometry" />
        </mxCell>
        <mxCell id="oJ5wStfypiaaaqxFmI3H-84" value="&lt;div style=&quot;&quot;&gt;&lt;div style=&quot;font-size: 10.5pt;&quot;&gt;&lt;div style=&quot;font-size: 10.5pt;&quot;&gt;&lt;div&gt;&lt;div style=&quot;font-size: 10.5pt;&quot;&gt;&lt;span style=&quot;&quot;&gt;if &lt;/span&gt;&lt;span style=&quot;&quot;&gt;(&lt;/span&gt;&lt;span style=&quot;&quot;&gt;bDispatchPacket&lt;/span&gt;&lt;span style=&quot;&quot;&gt;)&lt;/span&gt;&lt;/div&gt;&lt;/div&gt;&lt;/div&gt;&lt;/div&gt;&lt;/div&gt;" style="rounded=1;whiteSpace=wrap;html=1;align=left;fontFamily=Helvetica;fontColor=#000000;labelBackgroundColor=none;" parent="1" vertex="1">
          <mxGeometry x="1435" y="4790" width="280" height="60" as="geometry" />
        </mxCell>
        <mxCell id="oJ5wStfypiaaaqxFmI3H-85" value="&lt;div style=&quot;&quot;&gt;&lt;div style=&quot;font-size: 10.5pt;&quot;&gt;&lt;div style=&quot;font-size: 10.5pt;&quot;&gt;&lt;div style=&quot;font-size: 10.5pt;&quot;&gt;&lt;div&gt;&lt;div style=&quot;font-size: 10.5pt;&quot;&gt;&lt;span style=&quot;&quot;&gt;DispatchPacket&lt;/span&gt;&lt;span style=&quot;&quot;&gt;(&lt;/span&gt;&lt;span style=&quot;&quot;&gt;Reader&lt;/span&gt;&lt;span style=&quot;&quot;&gt;, &lt;/span&gt;&lt;span style=&quot;&quot;&gt;InPacketId&lt;/span&gt;&lt;span style=&quot;&quot;&gt;, bSkipAck, bHasBunchErrors);&lt;/span&gt;&lt;/div&gt;&lt;/div&gt;&lt;/div&gt;&lt;/div&gt;&lt;/div&gt;&lt;/div&gt;" style="rounded=1;whiteSpace=wrap;html=1;align=left;fontFamily=Helvetica;fontColor=#000000;labelBackgroundColor=none;" parent="1" vertex="1">
          <mxGeometry x="1490" y="4850" width="450" height="60" as="geometry" />
        </mxCell>
        <mxCell id="oJ5wStfypiaaaqxFmI3H-86" value="&lt;div style=&quot;&quot;&gt;&lt;div style=&quot;font-size: 10.5pt;&quot;&gt;&lt;div style=&quot;font-size: 10.5pt;&quot;&gt;&lt;div style=&quot;font-size: 10.5pt;&quot;&gt;&lt;div style=&quot;font-size: 10.5pt;&quot;&gt;&lt;div&gt;&lt;div style=&quot;font-size: 10.5pt;&quot;&gt;&lt;span style=&quot;&quot;&gt;if &lt;/span&gt;&lt;span style=&quot;&quot;&gt;(Channel != &lt;/span&gt;&lt;span style=&quot;&quot;&gt;nullptr&lt;/span&gt;&lt;span style=&quot;&quot;&gt;)&lt;/span&gt;&lt;/div&gt;&lt;/div&gt;&lt;/div&gt;&lt;/div&gt;&lt;/div&gt;&lt;/div&gt;&lt;/div&gt;" style="rounded=1;whiteSpace=wrap;html=1;align=left;fontFamily=Helvetica;fontColor=#000000;labelBackgroundColor=none;" parent="1" vertex="1">
          <mxGeometry x="1549" y="4910" width="450" height="60" as="geometry" />
        </mxCell>
        <mxCell id="oJ5wStfypiaaaqxFmI3H-87" value="&lt;div style=&quot;&quot;&gt;&lt;div style=&quot;font-size: 10.5pt;&quot;&gt;&lt;div style=&quot;font-size: 10.5pt;&quot;&gt;&lt;div style=&quot;font-size: 10.5pt;&quot;&gt;&lt;div style=&quot;font-size: 10.5pt;&quot;&gt;&lt;div style=&quot;font-size: 10.5pt;&quot;&gt;&lt;div&gt;&lt;div style=&quot;font-size: 10.5pt;&quot;&gt;&lt;span style=&quot;&quot;&gt;Channel-&amp;gt;&lt;/span&gt;&lt;span style=&quot;&quot;&gt;ReceivedRawBunch&lt;/span&gt;&lt;span style=&quot;&quot;&gt;(Bunch, bLocalSkipAck);&lt;/span&gt;&lt;/div&gt;&lt;/div&gt;&lt;/div&gt;&lt;/div&gt;&lt;/div&gt;&lt;/div&gt;&lt;/div&gt;&lt;/div&gt;" style="rounded=1;whiteSpace=wrap;html=1;align=left;fontFamily=Helvetica;fontColor=#000000;labelBackgroundColor=none;" parent="1" vertex="1">
          <mxGeometry x="1610" y="4970" width="450" height="60" as="geometry" />
        </mxCell>
        <mxCell id="oJ5wStfypiaaaqxFmI3H-88" value="&lt;div style=&quot;&quot;&gt;&lt;div style=&quot;font-size: 10.5pt;&quot;&gt;&lt;div style=&quot;font-size: 10.5pt;&quot;&gt;&lt;div style=&quot;font-size: 10.5pt;&quot;&gt;&lt;div style=&quot;font-size: 10.5pt;&quot;&gt;&lt;div style=&quot;font-size: 10.5pt;&quot;&gt;&lt;div style=&quot;font-size: 10.5pt;&quot;&gt;&lt;div&gt;&lt;div style=&quot;font-size: 10.5pt;&quot;&gt;&lt;span style=&quot;&quot;&gt;else &lt;/span&gt;&lt;span style=&quot;&quot;&gt;( &lt;/span&gt;&lt;span style=&quot;&quot;&gt;Bunch&lt;/span&gt;&lt;span style=&quot;&quot;&gt;.&lt;/span&gt;&lt;span style=&quot;&quot;&gt;bReliable &lt;/span&gt;&lt;span style=&quot;&quot;&gt;&amp;amp;&amp;amp; &lt;/span&gt;&lt;span style=&quot;&quot;&gt;Bunch&lt;/span&gt;&lt;span style=&quot;&quot;&gt;.&lt;/span&gt;&lt;span style=&quot;&quot;&gt;ChSequence &lt;/span&gt;&lt;span style=&quot;&quot;&gt;!= &lt;/span&gt;&lt;span style=&quot;&quot;&gt;Connection&lt;/span&gt;&lt;span style=&quot;&quot;&gt;-&amp;gt;&lt;/span&gt;&lt;span style=&quot;&quot;&gt;InReliable&lt;/span&gt;&lt;span style=&quot;&quot;&gt;[&lt;/span&gt;&lt;span style=&quot;&quot;&gt;ChIndex&lt;/span&gt;&lt;span style=&quot;&quot;&gt;] &lt;/span&gt;&lt;span style=&quot;&quot;&gt;+ &lt;/span&gt;&lt;span style=&quot;&quot;&gt;1 &lt;/span&gt;&lt;span style=&quot;&quot;&gt;)&lt;/span&gt;&lt;/div&gt;&lt;/div&gt;&lt;/div&gt;&lt;/div&gt;&lt;/div&gt;&lt;/div&gt;&lt;/div&gt;&lt;/div&gt;&lt;/div&gt;" style="rounded=1;whiteSpace=wrap;html=1;align=left;fontFamily=Helvetica;fontColor=#000000;labelBackgroundColor=none;" parent="1" vertex="1">
          <mxGeometry x="1660" y="5030" width="450" height="60" as="geometry" />
        </mxCell>
        <mxCell id="oJ5wStfypiaaaqxFmI3H-89" value="&lt;div style=&quot;&quot;&gt;&lt;div style=&quot;font-size: 10.5pt;&quot;&gt;&lt;div style=&quot;font-size: 10.5pt;&quot;&gt;&lt;div style=&quot;font-size: 10.5pt;&quot;&gt;&lt;div style=&quot;font-size: 10.5pt;&quot;&gt;&lt;div style=&quot;font-size: 10.5pt;&quot;&gt;&lt;div style=&quot;font-size: 10.5pt;&quot;&gt;&lt;div style=&quot;font-size: 10.5pt;&quot;&gt;&lt;div&gt;&lt;div style=&quot;font-size: 10.5pt;&quot;&gt;&lt;span style=&quot;&quot;&gt;ReceivedNextBunch&lt;/span&gt;&lt;span style=&quot;&quot;&gt;( &lt;/span&gt;&lt;span style=&quot;&quot;&gt;Bunch&lt;/span&gt;&lt;span style=&quot;&quot;&gt;, &lt;/span&gt;&lt;span style=&quot;&quot;&gt;bOutSkipAck &lt;/span&gt;&lt;span style=&quot;&quot;&gt;)&lt;/span&gt;&lt;/div&gt;&lt;/div&gt;&lt;/div&gt;&lt;/div&gt;&lt;/div&gt;&lt;/div&gt;&lt;/div&gt;&lt;/div&gt;&lt;/div&gt;&lt;/div&gt;" style="rounded=1;whiteSpace=wrap;html=1;align=left;fontFamily=Helvetica;fontColor=#000000;labelBackgroundColor=none;" parent="1" vertex="1">
          <mxGeometry x="1730" y="5090" width="450" height="60" as="geometry" />
        </mxCell>
        <mxCell id="oJ5wStfypiaaaqxFmI3H-90" value="&lt;div style=&quot;&quot;&gt;&lt;div style=&quot;font-size: 10.5pt;&quot;&gt;&lt;div style=&quot;font-size: 10.5pt;&quot;&gt;&lt;div style=&quot;font-size: 10.5pt;&quot;&gt;&lt;div style=&quot;font-size: 10.5pt;&quot;&gt;&lt;div style=&quot;font-size: 10.5pt;&quot;&gt;&lt;div style=&quot;font-size: 10.5pt;&quot;&gt;&lt;div style=&quot;font-size: 10.5pt;&quot;&gt;&lt;div style=&quot;font-size: 10.5pt;&quot;&gt;&lt;div&gt;&lt;div style=&quot;font-size: 10.5pt;&quot;&gt;&lt;span style=&quot;&quot;&gt;ReceivedSequencedBunch&lt;/span&gt;&lt;span style=&quot;&quot;&gt;( *HandleBunch )&lt;/span&gt;&lt;/div&gt;&lt;/div&gt;&lt;/div&gt;&lt;/div&gt;&lt;/div&gt;&lt;/div&gt;&lt;/div&gt;&lt;/div&gt;&lt;/div&gt;&lt;/div&gt;&lt;/div&gt;" style="rounded=1;whiteSpace=wrap;html=1;align=left;fontFamily=Helvetica;fontColor=#000000;labelBackgroundColor=none;" parent="1" vertex="1">
          <mxGeometry x="1790" y="5150" width="450" height="60" as="geometry" />
        </mxCell>
        <mxCell id="oJ5wStfypiaaaqxFmI3H-91" value="&lt;div style=&quot;&quot;&gt;&lt;div style=&quot;font-size: 10.5pt;&quot;&gt;&lt;div style=&quot;font-size: 10.5pt;&quot;&gt;&lt;div style=&quot;font-size: 10.5pt;&quot;&gt;&lt;div style=&quot;font-size: 10.5pt;&quot;&gt;&lt;div style=&quot;font-size: 10.5pt;&quot;&gt;&lt;div style=&quot;font-size: 10.5pt;&quot;&gt;&lt;div style=&quot;font-size: 10.5pt;&quot;&gt;&lt;div style=&quot;font-size: 10.5pt;&quot;&gt;&lt;div style=&quot;font-size: 10.5pt;&quot;&gt;&lt;div&gt;&lt;div style=&quot;font-size: 10.5pt;&quot;&gt;&lt;span style=&quot;&quot;&gt;ReceivedBunch&lt;/span&gt;&lt;span style=&quot;&quot;&gt;( &lt;/span&gt;&lt;span style=&quot;&quot;&gt;Bunch &lt;/span&gt;&lt;span style=&quot;&quot;&gt;);&lt;/span&gt;&lt;/div&gt;&lt;/div&gt;&lt;/div&gt;&lt;/div&gt;&lt;/div&gt;&lt;/div&gt;&lt;/div&gt;&lt;/div&gt;&lt;/div&gt;&lt;/div&gt;&lt;/div&gt;&lt;/div&gt;" style="rounded=1;whiteSpace=wrap;html=1;align=left;fontFamily=Helvetica;fontColor=#000000;labelBackgroundColor=none;" parent="1" vertex="1">
          <mxGeometry x="1860" y="5210" width="450" height="60" as="geometry" />
        </mxCell>
        <mxCell id="oJ5wStfypiaaaqxFmI3H-92" value="&lt;div style=&quot;&quot;&gt;&lt;div style=&quot;font-size: 10.5pt;&quot;&gt;&lt;div style=&quot;font-size: 10.5pt;&quot;&gt;&lt;div style=&quot;font-size: 10.5pt;&quot;&gt;&lt;div style=&quot;font-size: 10.5pt;&quot;&gt;&lt;div style=&quot;font-size: 10.5pt;&quot;&gt;&lt;div style=&quot;font-size: 10.5pt;&quot;&gt;&lt;div style=&quot;font-size: 10.5pt;&quot;&gt;&lt;div style=&quot;font-size: 10.5pt;&quot;&gt;&lt;div style=&quot;font-size: 10.5pt;&quot;&gt;&lt;div style=&quot;font-size: 10.5pt;&quot;&gt;&lt;div&gt;&lt;div style=&quot;font-size: 10.5pt;&quot;&gt;&lt;span style=&quot;&quot;&gt;else if &lt;/span&gt;&lt;span style=&quot;&quot;&gt;(&lt;/span&gt;&lt;span style=&quot;&quot;&gt;Connection&lt;/span&gt;&lt;span style=&quot;&quot;&gt;-&amp;gt;&lt;/span&gt;&lt;span style=&quot;&quot;&gt;Driver&lt;/span&gt;&lt;span style=&quot;&quot;&gt;-&amp;gt;&lt;/span&gt;&lt;span style=&quot;&quot;&gt;Notify &lt;/span&gt;&lt;span style=&quot;&quot;&gt;!= &lt;/span&gt;&lt;span style=&quot;&quot;&gt;nullptr&lt;/span&gt;&lt;span style=&quot;&quot;&gt;)&lt;/span&gt;&lt;/div&gt;&lt;/div&gt;&lt;/div&gt;&lt;/div&gt;&lt;/div&gt;&lt;/div&gt;&lt;/div&gt;&lt;/div&gt;&lt;/div&gt;&lt;/div&gt;&lt;/div&gt;&lt;/div&gt;&lt;/div&gt;" style="rounded=1;whiteSpace=wrap;html=1;align=left;fontFamily=Helvetica;fontColor=#000000;labelBackgroundColor=none;" parent="1" vertex="1">
          <mxGeometry x="1920" y="5270" width="450" height="60" as="geometry" />
        </mxCell>
        <mxCell id="oJ5wStfypiaaaqxFmI3H-93" value="&lt;div style=&quot;&quot;&gt;&lt;div style=&quot;font-size: 10.5pt;&quot;&gt;&lt;div style=&quot;font-size: 10.5pt;&quot;&gt;&lt;div style=&quot;font-size: 10.5pt;&quot;&gt;&lt;div style=&quot;font-size: 10.5pt;&quot;&gt;&lt;div style=&quot;font-size: 10.5pt;&quot;&gt;&lt;div style=&quot;font-size: 10.5pt;&quot;&gt;&lt;div style=&quot;font-size: 10.5pt;&quot;&gt;&lt;div style=&quot;font-size: 10.5pt;&quot;&gt;&lt;div style=&quot;font-size: 10.5pt;&quot;&gt;&lt;div style=&quot;font-size: 10.5pt;&quot;&gt;&lt;div style=&quot;font-size: 10.5pt;&quot;&gt;&lt;div&gt;&lt;div style=&quot;font-size: 10.5pt;&quot;&gt;&lt;span style=&quot;&quot;&gt;// Notify是World&lt;/span&gt;&lt;/div&gt;&lt;div style=&quot;font-size: 10.5pt;&quot;&gt;&lt;span style=&quot;&quot;&gt;Connection&lt;/span&gt;&lt;span style=&quot;&quot;&gt;-&amp;gt;&lt;/span&gt;&lt;span style=&quot;&quot;&gt;Driver&lt;/span&gt;&lt;span style=&quot;&quot;&gt;-&amp;gt;&lt;/span&gt;&lt;span style=&quot;&quot;&gt;Notify&lt;/span&gt;&lt;span style=&quot;&quot;&gt;-&amp;gt;&lt;/span&gt;&lt;span style=&quot;&quot;&gt;NotifyControlMessage&lt;/span&gt;&lt;span style=&quot;&quot;&gt;(&lt;/span&gt;&lt;span style=&quot;&quot;&gt;Connection&lt;/span&gt;&lt;span style=&quot;&quot;&gt;, MessageType, &lt;/span&gt;&lt;span style=&quot;&quot;&gt;Bunch&lt;/span&gt;&lt;span style=&quot;&quot;&gt;)&lt;/span&gt;&lt;/div&gt;&lt;/div&gt;&lt;/div&gt;&lt;/div&gt;&lt;/div&gt;&lt;/div&gt;&lt;/div&gt;&lt;/div&gt;&lt;/div&gt;&lt;/div&gt;&lt;/div&gt;&lt;/div&gt;&lt;/div&gt;&lt;/div&gt;" style="rounded=1;whiteSpace=wrap;html=1;align=left;fontFamily=Helvetica;fontColor=#000000;labelBackgroundColor=none;" parent="1" vertex="1">
          <mxGeometry x="1980" y="5330" width="450" height="60" as="geometry" />
        </mxCell>
        <mxCell id="oJ5wStfypiaaaqxFmI3H-94" value="&lt;div style=&quot;&quot;&gt;&lt;div style=&quot;font-size: 10.5pt;&quot;&gt;&lt;div style=&quot;font-size: 10.5pt;&quot;&gt;&lt;div style=&quot;font-size: 10.5pt;&quot;&gt;&lt;div style=&quot;font-size: 10.5pt;&quot;&gt;&lt;div style=&quot;font-size: 10.5pt;&quot;&gt;&lt;div style=&quot;font-size: 10.5pt;&quot;&gt;&lt;div style=&quot;font-size: 10.5pt;&quot;&gt;&lt;div style=&quot;font-size: 10.5pt;&quot;&gt;&lt;div style=&quot;font-size: 10.5pt;&quot;&gt;&lt;div style=&quot;font-size: 10.5pt;&quot;&gt;&lt;div style=&quot;font-size: 10.5pt;&quot;&gt;&lt;div style=&quot;font-size: 10.5pt;&quot;&gt;&lt;div style=&quot;&quot;&gt;&lt;div style=&quot;font-size: 10.5pt;&quot;&gt;&lt;font&gt;else&lt;/font&gt;&lt;span style=&quot;&quot;&gt;( &lt;/span&gt;&lt;span style=&quot;&quot;&gt;NetDriver&lt;/span&gt;&lt;span style=&quot;&quot;&gt;-&amp;gt;&lt;/span&gt;&lt;span style=&quot;&quot;&gt;ServerConnection &lt;/span&gt;&lt;span style=&quot;&quot;&gt;)&lt;/span&gt;&lt;/div&gt;&lt;/div&gt;&lt;/div&gt;&lt;/div&gt;&lt;/div&gt;&lt;/div&gt;&lt;/div&gt;&lt;/div&gt;&lt;/div&gt;&lt;/div&gt;&lt;/div&gt;&lt;/div&gt;&lt;/div&gt;&lt;/div&gt;&lt;/div&gt;" style="rounded=1;whiteSpace=wrap;html=1;align=left;fontFamily=Helvetica;fontColor=#000000;labelBackgroundColor=none;" parent="1" vertex="1">
          <mxGeometry x="2040" y="5390" width="450" height="60" as="geometry" />
        </mxCell>
        <mxCell id="oJ5wStfypiaaaqxFmI3H-95" value="&lt;div style=&quot;&quot;&gt;&lt;div style=&quot;font-size: 10.5pt;&quot;&gt;&lt;div style=&quot;font-size: 10.5pt;&quot;&gt;&lt;div style=&quot;font-size: 10.5pt;&quot;&gt;&lt;div style=&quot;font-size: 10.5pt;&quot;&gt;&lt;div style=&quot;font-size: 10.5pt;&quot;&gt;&lt;div style=&quot;font-size: 10.5pt;&quot;&gt;&lt;div style=&quot;font-size: 10.5pt;&quot;&gt;&lt;div style=&quot;font-size: 10.5pt;&quot;&gt;&lt;div style=&quot;font-size: 10.5pt;&quot;&gt;&lt;div style=&quot;font-size: 10.5pt;&quot;&gt;&lt;div style=&quot;font-size: 10.5pt;&quot;&gt;&lt;div style=&quot;font-size: 10.5pt;&quot;&gt;&lt;div style=&quot;&quot;&gt;&lt;div style=&quot;font-size: 10.5pt;&quot;&gt;&lt;div style=&quot;&quot;&gt;&lt;div style=&quot;font-size: 10.5pt;&quot;&gt;&lt;span style=&quot;&quot;&gt;switch &lt;/span&gt;&lt;span style=&quot;&quot;&gt;(&lt;/span&gt;&lt;span style=&quot;&quot;&gt;MessageType&lt;/span&gt;&lt;span style=&quot;&quot;&gt;)&lt;/span&gt;&lt;/div&gt;&lt;/div&gt;&lt;/div&gt;&lt;/div&gt;&lt;/div&gt;&lt;/div&gt;&lt;/div&gt;&lt;/div&gt;&lt;/div&gt;&lt;/div&gt;&lt;/div&gt;&lt;/div&gt;&lt;/div&gt;&lt;/div&gt;&lt;/div&gt;&lt;/div&gt;&lt;/div&gt;" style="rounded=1;whiteSpace=wrap;html=1;align=left;fontFamily=Helvetica;fontColor=#000000;labelBackgroundColor=none;" parent="1" vertex="1">
          <mxGeometry x="2100" y="5450" width="450" height="60" as="geometry" />
        </mxCell>
        <mxCell id="oJ5wStfypiaaaqxFmI3H-96" value="&lt;div style=&quot;&quot;&gt;&lt;div style=&quot;font-size: 10.5pt;&quot;&gt;&lt;div style=&quot;font-size: 10.5pt;&quot;&gt;&lt;div style=&quot;font-size: 10.5pt;&quot;&gt;&lt;div style=&quot;font-size: 10.5pt;&quot;&gt;&lt;div style=&quot;font-size: 10.5pt;&quot;&gt;&lt;div style=&quot;font-size: 10.5pt;&quot;&gt;&lt;div style=&quot;font-size: 10.5pt;&quot;&gt;&lt;div style=&quot;font-size: 10.5pt;&quot;&gt;&lt;div style=&quot;font-size: 10.5pt;&quot;&gt;&lt;div style=&quot;font-size: 10.5pt;&quot;&gt;&lt;div style=&quot;font-size: 10.5pt;&quot;&gt;&lt;div style=&quot;font-size: 10.5pt;&quot;&gt;&lt;div style=&quot;&quot;&gt;&lt;div style=&quot;font-size: 10.5pt;&quot;&gt;&lt;div style=&quot;&quot;&gt;&lt;div style=&quot;font-size: 10.5pt;&quot;&gt;&lt;div&gt;&lt;div style=&quot;font-size: 10.5pt;&quot;&gt;&lt;span style=&quot;&quot;&gt;case &lt;/span&gt;&lt;span style=&quot;&quot;&gt;NMT_Hello&lt;/span&gt;:&lt;/div&gt;&lt;/div&gt;&lt;/div&gt;&lt;/div&gt;&lt;/div&gt;&lt;/div&gt;&lt;/div&gt;&lt;/div&gt;&lt;/div&gt;&lt;/div&gt;&lt;/div&gt;&lt;/div&gt;&lt;/div&gt;&lt;/div&gt;&lt;/div&gt;&lt;/div&gt;&lt;/div&gt;&lt;/div&gt;&lt;/div&gt;" style="rounded=1;whiteSpace=wrap;html=1;align=left;fontFamily=Helvetica;fontColor=#000000;labelBackgroundColor=none;" parent="1" vertex="1">
          <mxGeometry x="2160" y="5510" width="450" height="60" as="geometry" />
        </mxCell>
        <mxCell id="oJ5wStfypiaaaqxFmI3H-97" value="&lt;div style=&quot;&quot;&gt;&lt;div style=&quot;font-size: 10.5pt;&quot;&gt;&lt;div style=&quot;font-size: 10.5pt;&quot;&gt;&lt;div style=&quot;font-size: 10.5pt;&quot;&gt;&lt;div style=&quot;font-size: 10.5pt;&quot;&gt;&lt;div style=&quot;font-size: 10.5pt;&quot;&gt;&lt;div style=&quot;font-size: 10.5pt;&quot;&gt;&lt;div style=&quot;font-size: 10.5pt;&quot;&gt;&lt;div style=&quot;font-size: 10.5pt;&quot;&gt;&lt;div style=&quot;font-size: 10.5pt;&quot;&gt;&lt;div style=&quot;font-size: 10.5pt;&quot;&gt;&lt;div style=&quot;font-size: 10.5pt;&quot;&gt;&lt;div style=&quot;font-size: 10.5pt;&quot;&gt;&lt;div style=&quot;&quot;&gt;&lt;div style=&quot;font-size: 10.5pt;&quot;&gt;&lt;div style=&quot;&quot;&gt;&lt;div style=&quot;font-size: 10.5pt;&quot;&gt;&lt;div style=&quot;font-size: 10.5pt;&quot;&gt;&lt;div&gt;&lt;div style=&quot;font-size: 10.5pt;&quot;&gt;&lt;span style=&quot;&quot;&gt;if &lt;/span&gt;&lt;span style=&quot;&quot;&gt;(EncryptionToken.&lt;/span&gt;&lt;span style=&quot;&quot;&gt;IsEmpty&lt;/span&gt;&lt;span style=&quot;&quot;&gt;())&lt;/span&gt;&lt;/div&gt;&lt;/div&gt;&lt;/div&gt;&lt;/div&gt;&lt;/div&gt;&lt;/div&gt;&lt;/div&gt;&lt;/div&gt;&lt;/div&gt;&lt;/div&gt;&lt;/div&gt;&lt;/div&gt;&lt;/div&gt;&lt;/div&gt;&lt;/div&gt;&lt;/div&gt;&lt;/div&gt;&lt;/div&gt;&lt;/div&gt;&lt;/div&gt;" style="rounded=1;whiteSpace=wrap;html=1;align=left;fontFamily=Helvetica;fontColor=#000000;labelBackgroundColor=none;" parent="1" vertex="1">
          <mxGeometry x="2230" y="5570" width="450" height="60" as="geometry" />
        </mxCell>
        <mxCell id="oJ5wStfypiaaaqxFmI3H-98" value="&lt;div style=&quot;&quot;&gt;&lt;div style=&quot;font-size: 10.5pt;&quot;&gt;&lt;div style=&quot;font-size: 10.5pt;&quot;&gt;&lt;div style=&quot;font-size: 10.5pt;&quot;&gt;&lt;div style=&quot;font-size: 10.5pt;&quot;&gt;&lt;div style=&quot;font-size: 10.5pt;&quot;&gt;&lt;div style=&quot;font-size: 10.5pt;&quot;&gt;&lt;div style=&quot;font-size: 10.5pt;&quot;&gt;&lt;div style=&quot;font-size: 10.5pt;&quot;&gt;&lt;div style=&quot;font-size: 10.5pt;&quot;&gt;&lt;div style=&quot;font-size: 10.5pt;&quot;&gt;&lt;div style=&quot;font-size: 10.5pt;&quot;&gt;&lt;div style=&quot;font-size: 10.5pt;&quot;&gt;&lt;div style=&quot;&quot;&gt;&lt;div style=&quot;font-size: 10.5pt;&quot;&gt;&lt;div style=&quot;&quot;&gt;&lt;div style=&quot;font-size: 10.5pt;&quot;&gt;&lt;div style=&quot;font-size: 10.5pt;&quot;&gt;&lt;div style=&quot;font-size: 10.5pt;&quot;&gt;&lt;div&gt;&lt;div style=&quot;font-size: 10.5pt;&quot;&gt;&lt;span style=&quot;&quot;&gt;Connection&lt;/span&gt;&lt;span style=&quot;&quot;&gt;-&amp;gt;&lt;/span&gt;&lt;span style=&quot;&quot;&gt;SendChallengeControlMessage&lt;/span&gt;&lt;span style=&quot;&quot;&gt;();&lt;/span&gt;&lt;/div&gt;&lt;/div&gt;&lt;/div&gt;&lt;/div&gt;&lt;/div&gt;&lt;/div&gt;&lt;/div&gt;&lt;/div&gt;&lt;/div&gt;&lt;/div&gt;&lt;/div&gt;&lt;/div&gt;&lt;/div&gt;&lt;/div&gt;&lt;/div&gt;&lt;/div&gt;&lt;/div&gt;&lt;/div&gt;&lt;/div&gt;&lt;/div&gt;&lt;/div&gt;" style="rounded=1;whiteSpace=wrap;html=1;align=left;fontFamily=Helvetica;fontColor=#000000;labelBackgroundColor=none;" parent="1" vertex="1">
          <mxGeometry x="2300" y="5630" width="450" height="60" as="geometry" />
        </mxCell>
        <mxCell id="oJ5wStfypiaaaqxFmI3H-181" style="rounded=0;orthogonalLoop=1;jettySize=auto;html=1;entryX=1;entryY=0.5;entryDx=0;entryDy=0;fontFamily=Helvetica;fontColor=#000000;labelBackgroundColor=none;" parent="1" source="oJ5wStfypiaaaqxFmI3H-99" target="oJ5wStfypiaaaqxFmI3H-124" edge="1">
          <mxGeometry relative="1" as="geometry" />
        </mxCell>
        <mxCell id="S93yyvXEkiN3lrwmMDB--6" value="返回NMT_Challenge" style="edgeLabel;html=1;align=center;verticalAlign=middle;resizable=0;points=[];fontFamily=Helvetica;fontColor=#000000;labelBackgroundColor=none;" parent="oJ5wStfypiaaaqxFmI3H-181" vertex="1" connectable="0">
          <mxGeometry x="-0.063" y="5" relative="1" as="geometry">
            <mxPoint as="offset" />
          </mxGeometry>
        </mxCell>
        <mxCell id="oJ5wStfypiaaaqxFmI3H-99" value="&lt;div style=&quot;&quot;&gt;&lt;div style=&quot;font-size: 10.5pt;&quot;&gt;&lt;div style=&quot;font-size: 10.5pt;&quot;&gt;&lt;div style=&quot;font-size: 10.5pt;&quot;&gt;&lt;div style=&quot;font-size: 10.5pt;&quot;&gt;&lt;div style=&quot;font-size: 10.5pt;&quot;&gt;&lt;div style=&quot;font-size: 10.5pt;&quot;&gt;&lt;div style=&quot;font-size: 10.5pt;&quot;&gt;&lt;div style=&quot;font-size: 10.5pt;&quot;&gt;&lt;div style=&quot;font-size: 10.5pt;&quot;&gt;&lt;div style=&quot;font-size: 10.5pt;&quot;&gt;&lt;div style=&quot;font-size: 10.5pt;&quot;&gt;&lt;div style=&quot;font-size: 10.5pt;&quot;&gt;&lt;div style=&quot;&quot;&gt;&lt;div style=&quot;font-size: 10.5pt;&quot;&gt;&lt;div style=&quot;&quot;&gt;&lt;div style=&quot;font-size: 10.5pt;&quot;&gt;&lt;div style=&quot;font-size: 10.5pt;&quot;&gt;&lt;div style=&quot;font-size: 10.5pt;&quot;&gt;&lt;div style=&quot;font-size: 10.5pt;&quot;&gt;&lt;div&gt;&lt;div style=&quot;font-size: 10.5pt;&quot;&gt;&lt;span style=&quot;&quot;&gt;FNetControlMessage&lt;/span&gt;&lt;span style=&quot;&quot;&gt;&amp;lt;&lt;/span&gt;&lt;span style=&quot;&quot;&gt;NMT_Challenge&lt;/span&gt;&lt;span style=&quot;&quot;&gt;&amp;gt;&lt;/span&gt;::&lt;span style=&quot;&quot;&gt;Send&lt;/span&gt;&lt;span style=&quot;&quot;&gt;(&lt;/span&gt;&lt;span style=&quot;&quot;&gt;this&lt;/span&gt;&lt;span style=&quot;&quot;&gt;, &lt;/span&gt;&lt;span style=&quot;&quot;&gt;Challenge&lt;/span&gt;&lt;span style=&quot;&quot;&gt;);&lt;/span&gt;&lt;/div&gt;&lt;/div&gt;&lt;/div&gt;&lt;/div&gt;&lt;/div&gt;&lt;/div&gt;&lt;/div&gt;&lt;/div&gt;&lt;/div&gt;&lt;/div&gt;&lt;/div&gt;&lt;/div&gt;&lt;/div&gt;&lt;/div&gt;&lt;/div&gt;&lt;/div&gt;&lt;/div&gt;&lt;/div&gt;&lt;/div&gt;&lt;/div&gt;&lt;/div&gt;&lt;/div&gt;" style="rounded=1;whiteSpace=wrap;html=1;align=left;fontFamily=Helvetica;fontColor=#000000;labelBackgroundColor=none;" parent="1" vertex="1">
          <mxGeometry x="2370" y="5690" width="450" height="60" as="geometry" />
        </mxCell>
        <mxCell id="oJ5wStfypiaaaqxFmI3H-101" value="&lt;div style=&quot;&quot;&gt;&lt;div style=&quot;font-size: 10.5pt;&quot;&gt;&lt;div style=&quot;font-size: 10.5pt;&quot;&gt;&lt;div style=&quot;font-size: 10.5pt;&quot;&gt;&lt;div style=&quot;font-size: 10.5pt;&quot;&gt;&lt;div style=&quot;font-size: 10.5pt;&quot;&gt;&lt;div style=&quot;&quot;&gt;&lt;div style=&quot;font-size: 10.5pt;&quot;&gt;UPendingNetGame::Tick&lt;/div&gt;&lt;/div&gt;&lt;/div&gt;&lt;/div&gt;&lt;/div&gt;&lt;/div&gt;&lt;/div&gt;&lt;/div&gt;" style="rounded=1;whiteSpace=wrap;html=1;align=left;fontFamily=Helvetica;fontColor=#000000;labelBackgroundColor=none;" parent="1" vertex="1">
          <mxGeometry x="-530" y="1960" width="260" height="60" as="geometry" />
        </mxCell>
        <mxCell id="oJ5wStfypiaaaqxFmI3H-102" value="&lt;div style=&quot;&quot;&gt;&lt;div style=&quot;font-size: 10.5pt;&quot;&gt;&lt;div style=&quot;font-size: 10.5pt;&quot;&gt;&lt;div style=&quot;font-size: 10.5pt;&quot;&gt;&lt;div style=&quot;font-size: 10.5pt;&quot;&gt;&lt;div style=&quot;font-size: 10.5pt;&quot;&gt;&lt;div style=&quot;&quot;&gt;&lt;div style=&quot;font-size: 10.5pt;&quot;&gt;UPendingNetGame::Tick&lt;/div&gt;&lt;/div&gt;&lt;/div&gt;&lt;/div&gt;&lt;/div&gt;&lt;/div&gt;&lt;/div&gt;&lt;/div&gt;" style="rounded=1;whiteSpace=wrap;html=1;align=left;fontFamily=Helvetica;fontColor=#000000;labelBackgroundColor=none;" parent="1" vertex="1">
          <mxGeometry x="-500" y="3670" width="260" height="60" as="geometry" />
        </mxCell>
        <mxCell id="oJ5wStfypiaaaqxFmI3H-103" value="&lt;div style=&quot;&quot;&gt;&lt;div style=&quot;font-size: 10.5pt;&quot;&gt;&lt;div style=&quot;font-size: 10.5pt;&quot;&gt;&lt;div style=&quot;font-size: 10.5pt;&quot;&gt;&lt;div style=&quot;font-size: 10.5pt;&quot;&gt;&lt;div&gt;&lt;div style=&quot;font-size: 10.5pt;&quot;&gt;&lt;span style=&quot;&quot;&gt;UIpNetDriver&lt;/span&gt;::&lt;span style=&quot;&quot;&gt;TickDispatch&lt;/span&gt;&lt;/div&gt;&lt;/div&gt;&lt;/div&gt;&lt;/div&gt;&lt;/div&gt;&lt;/div&gt;&lt;/div&gt;" style="rounded=1;whiteSpace=wrap;html=1;align=left;fontFamily=Helvetica;fontColor=#000000;labelBackgroundColor=none;" parent="1" vertex="1">
          <mxGeometry x="-594" y="5870" width="260" height="60" as="geometry" />
        </mxCell>
        <mxCell id="oJ5wStfypiaaaqxFmI3H-104" value="&lt;div style=&quot;&quot;&gt;&lt;div style=&quot;font-size: 10.5pt;&quot;&gt;&lt;div style=&quot;font-size: 10.5pt;&quot;&gt;&lt;div style=&quot;font-size: 10.5pt;&quot;&gt;&lt;div style=&quot;font-size: 10.5pt;&quot;&gt;&lt;div style=&quot;font-size: 10.5pt;&quot;&gt;&lt;div style=&quot;&quot;&gt;&lt;div style=&quot;font-size: 10.5pt;&quot;&gt;&lt;font&gt;else &lt;/font&gt;&lt;span style=&quot;&quot;&gt;( bOk == &lt;/span&gt;&lt;span style=&quot;&quot;&gt;false &lt;/span&gt;&lt;span style=&quot;&quot;&gt;)&lt;/span&gt;&lt;/div&gt;&lt;/div&gt;&lt;/div&gt;&lt;/div&gt;&lt;/div&gt;&lt;/div&gt;&lt;/div&gt;&lt;/div&gt;" style="rounded=1;whiteSpace=wrap;html=1;align=left;fontFamily=Helvetica;fontColor=#000000;labelBackgroundColor=none;" parent="1" vertex="1">
          <mxGeometry x="-544" y="5930" width="260" height="60" as="geometry" />
        </mxCell>
        <mxCell id="oJ5wStfypiaaaqxFmI3H-105" value="&lt;div style=&quot;&quot;&gt;&lt;div style=&quot;font-size: 10.5pt;&quot;&gt;&lt;div style=&quot;font-size: 10.5pt;&quot;&gt;&lt;div style=&quot;font-size: 10.5pt;&quot;&gt;&lt;div style=&quot;font-size: 10.5pt;&quot;&gt;&lt;div style=&quot;font-size: 10.5pt;&quot;&gt;&lt;div style=&quot;&quot;&gt;&lt;div style=&quot;font-size: 10.5pt;&quot;&gt;&lt;div style=&quot;&quot;&gt;&lt;div style=&quot;font-size: 10.5pt;&quot;&gt;&lt;span style=&quot;&quot;&gt;if &lt;/span&gt;&lt;span style=&quot;&quot;&gt;(Connection != &lt;/span&gt;&lt;span style=&quot;&quot;&gt;nullptr &lt;/span&gt;&lt;span style=&quot;&quot;&gt;&amp;amp;&amp;amp; !bIgnorePacket)&lt;/span&gt;&lt;/div&gt;&lt;/div&gt;&lt;/div&gt;&lt;/div&gt;&lt;/div&gt;&lt;/div&gt;&lt;/div&gt;&lt;/div&gt;&lt;/div&gt;&lt;/div&gt;" style="rounded=1;whiteSpace=wrap;html=1;align=left;fontFamily=Helvetica;fontColor=#000000;labelBackgroundColor=none;" parent="1" vertex="1">
          <mxGeometry x="-499" y="5990" width="260" height="60" as="geometry" />
        </mxCell>
        <mxCell id="oJ5wStfypiaaaqxFmI3H-106" value="&lt;div style=&quot;&quot;&gt;&lt;div style=&quot;font-size: 10.5pt;&quot;&gt;&lt;div style=&quot;font-size: 10.5pt;&quot;&gt;&lt;div style=&quot;font-size: 10.5pt;&quot;&gt;&lt;div style=&quot;font-size: 10.5pt;&quot;&gt;&lt;div style=&quot;font-size: 10.5pt;&quot;&gt;&lt;div style=&quot;&quot;&gt;&lt;div style=&quot;font-size: 10.5pt;&quot;&gt;&lt;div style=&quot;&quot;&gt;&lt;div style=&quot;font-size: 10.5pt;&quot;&gt;&lt;div&gt;&lt;div style=&quot;font-size: 10.5pt;&quot;&gt;Connection&lt;span style=&quot;&quot;&gt;-&amp;gt;&lt;/span&gt;ReceivedRawPacket&lt;span style=&quot;&quot;&gt;((&lt;/span&gt;uint8&lt;span style=&quot;&quot;&gt;*)&lt;/span&gt;ReceivedPacket&lt;span style=&quot;&quot;&gt;.&lt;/span&gt;DataView&lt;span style=&quot;&quot;&gt;.&lt;/span&gt;GetData&lt;span style=&quot;&quot;&gt;(), &lt;/span&gt;ReceivedPacket&lt;span style=&quot;&quot;&gt;.&lt;/span&gt;DataView&lt;span style=&quot;&quot;&gt;.&lt;/span&gt;NumBytes&lt;span style=&quot;&quot;&gt;());&lt;/span&gt;&lt;/div&gt;&lt;/div&gt;&lt;/div&gt;&lt;/div&gt;&lt;/div&gt;&lt;/div&gt;&lt;/div&gt;&lt;/div&gt;&lt;/div&gt;&lt;/div&gt;&lt;/div&gt;&lt;/div&gt;" style="rounded=1;whiteSpace=wrap;html=1;align=left;fontFamily=Helvetica;fontColor=#000000;labelBackgroundColor=none;" parent="1" vertex="1">
          <mxGeometry x="-444" y="6050" width="800" height="60" as="geometry" />
        </mxCell>
        <mxCell id="oJ5wStfypiaaaqxFmI3H-107" value="&lt;div style=&quot;&quot;&gt;&lt;div style=&quot;font-size: 10.5pt;&quot;&gt;&lt;span style=&quot;&quot;&gt;if &lt;/span&gt;&lt;span style=&quot;&quot;&gt;(Reader.&lt;/span&gt;&lt;span style=&quot;&quot;&gt;GetBitsLeft&lt;/span&gt;&lt;span style=&quot;&quot;&gt;() &amp;gt; &lt;/span&gt;&lt;span style=&quot;&quot;&gt;0&lt;/span&gt;&lt;span style=&quot;&quot;&gt;)&lt;/span&gt;&lt;/div&gt;&lt;/div&gt;" style="rounded=1;whiteSpace=wrap;html=1;align=left;fontFamily=Helvetica;fontColor=#000000;labelBackgroundColor=none;" parent="1" vertex="1">
          <mxGeometry x="-384" y="6110" width="280" height="60" as="geometry" />
        </mxCell>
        <mxCell id="oJ5wStfypiaaaqxFmI3H-108" value="&lt;div style=&quot;&quot;&gt;&lt;div style=&quot;font-size: 10.5pt;&quot;&gt;&lt;div&gt;&lt;div style=&quot;font-size: 10.5pt;&quot;&gt;&lt;span style=&quot;&quot;&gt;ReceivedPacket&lt;/span&gt;&lt;span style=&quot;&quot;&gt;(Reader);&lt;/span&gt;&lt;/div&gt;&lt;/div&gt;&lt;/div&gt;&lt;/div&gt;" style="rounded=1;whiteSpace=wrap;html=1;align=left;fontFamily=Helvetica;fontColor=#000000;labelBackgroundColor=none;" parent="1" vertex="1">
          <mxGeometry x="-320" y="6170" width="280" height="60" as="geometry" />
        </mxCell>
        <mxCell id="oJ5wStfypiaaaqxFmI3H-109" value="&lt;div style=&quot;&quot;&gt;&lt;div style=&quot;font-size: 10.5pt;&quot;&gt;&lt;div style=&quot;font-size: 10.5pt;&quot;&gt;&lt;div&gt;&lt;div style=&quot;font-size: 10.5pt;&quot;&gt;&lt;span style=&quot;&quot;&gt;if &lt;/span&gt;&lt;span style=&quot;&quot;&gt;(&lt;/span&gt;&lt;span style=&quot;&quot;&gt;bDispatchPacket&lt;/span&gt;&lt;span style=&quot;&quot;&gt;)&lt;/span&gt;&lt;/div&gt;&lt;/div&gt;&lt;/div&gt;&lt;/div&gt;&lt;/div&gt;" style="rounded=1;whiteSpace=wrap;html=1;align=left;fontFamily=Helvetica;fontColor=#000000;labelBackgroundColor=none;" parent="1" vertex="1">
          <mxGeometry x="-259" y="6230" width="280" height="60" as="geometry" />
        </mxCell>
        <mxCell id="oJ5wStfypiaaaqxFmI3H-110" value="&lt;div style=&quot;&quot;&gt;&lt;div style=&quot;font-size: 10.5pt;&quot;&gt;&lt;div style=&quot;font-size: 10.5pt;&quot;&gt;&lt;div style=&quot;font-size: 10.5pt;&quot;&gt;&lt;div&gt;&lt;div style=&quot;font-size: 10.5pt;&quot;&gt;&lt;span style=&quot;&quot;&gt;DispatchPacket&lt;/span&gt;&lt;span style=&quot;&quot;&gt;(&lt;/span&gt;&lt;span style=&quot;&quot;&gt;Reader&lt;/span&gt;&lt;span style=&quot;&quot;&gt;, &lt;/span&gt;&lt;span style=&quot;&quot;&gt;InPacketId&lt;/span&gt;&lt;span style=&quot;&quot;&gt;, bSkipAck, bHasBunchErrors);&lt;/span&gt;&lt;/div&gt;&lt;/div&gt;&lt;/div&gt;&lt;/div&gt;&lt;/div&gt;&lt;/div&gt;" style="rounded=1;whiteSpace=wrap;html=1;align=left;fontFamily=Helvetica;fontColor=#000000;labelBackgroundColor=none;" parent="1" vertex="1">
          <mxGeometry x="-204" y="6290" width="450" height="60" as="geometry" />
        </mxCell>
        <mxCell id="oJ5wStfypiaaaqxFmI3H-111" value="&lt;div style=&quot;&quot;&gt;&lt;div style=&quot;font-size: 10.5pt;&quot;&gt;&lt;div style=&quot;font-size: 10.5pt;&quot;&gt;&lt;div style=&quot;font-size: 10.5pt;&quot;&gt;&lt;div style=&quot;font-size: 10.5pt;&quot;&gt;&lt;div&gt;&lt;div style=&quot;font-size: 10.5pt;&quot;&gt;&lt;span style=&quot;&quot;&gt;if &lt;/span&gt;&lt;span style=&quot;&quot;&gt;(Channel != &lt;/span&gt;&lt;span style=&quot;&quot;&gt;nullptr&lt;/span&gt;&lt;span style=&quot;&quot;&gt;)&lt;/span&gt;&lt;/div&gt;&lt;/div&gt;&lt;/div&gt;&lt;/div&gt;&lt;/div&gt;&lt;/div&gt;&lt;/div&gt;" style="rounded=1;whiteSpace=wrap;html=1;align=left;fontFamily=Helvetica;fontColor=#000000;labelBackgroundColor=none;" parent="1" vertex="1">
          <mxGeometry x="-145" y="6350" width="450" height="60" as="geometry" />
        </mxCell>
        <mxCell id="oJ5wStfypiaaaqxFmI3H-112" value="&lt;div style=&quot;&quot;&gt;&lt;div style=&quot;font-size: 10.5pt;&quot;&gt;&lt;div style=&quot;font-size: 10.5pt;&quot;&gt;&lt;div style=&quot;font-size: 10.5pt;&quot;&gt;&lt;div style=&quot;font-size: 10.5pt;&quot;&gt;&lt;div style=&quot;font-size: 10.5pt;&quot;&gt;&lt;div&gt;&lt;div style=&quot;font-size: 10.5pt;&quot;&gt;&lt;span style=&quot;&quot;&gt;Channel-&amp;gt;&lt;/span&gt;&lt;span style=&quot;&quot;&gt;ReceivedRawBunch&lt;/span&gt;&lt;span style=&quot;&quot;&gt;(Bunch, bLocalSkipAck);&lt;/span&gt;&lt;/div&gt;&lt;/div&gt;&lt;/div&gt;&lt;/div&gt;&lt;/div&gt;&lt;/div&gt;&lt;/div&gt;&lt;/div&gt;" style="rounded=1;whiteSpace=wrap;html=1;align=left;fontFamily=Helvetica;fontColor=#000000;labelBackgroundColor=none;" parent="1" vertex="1">
          <mxGeometry x="-84" y="6410" width="450" height="60" as="geometry" />
        </mxCell>
        <mxCell id="oJ5wStfypiaaaqxFmI3H-113" value="&lt;div style=&quot;&quot;&gt;&lt;div style=&quot;font-size: 10.5pt;&quot;&gt;&lt;div style=&quot;font-size: 10.5pt;&quot;&gt;&lt;div style=&quot;font-size: 10.5pt;&quot;&gt;&lt;div style=&quot;font-size: 10.5pt;&quot;&gt;&lt;div style=&quot;font-size: 10.5pt;&quot;&gt;&lt;div style=&quot;font-size: 10.5pt;&quot;&gt;&lt;div&gt;&lt;div style=&quot;font-size: 10.5pt;&quot;&gt;&lt;span style=&quot;&quot;&gt;else &lt;/span&gt;&lt;span style=&quot;&quot;&gt;( &lt;/span&gt;&lt;span style=&quot;&quot;&gt;Bunch&lt;/span&gt;&lt;span style=&quot;&quot;&gt;.&lt;/span&gt;&lt;span style=&quot;&quot;&gt;bReliable &lt;/span&gt;&lt;span style=&quot;&quot;&gt;&amp;amp;&amp;amp; &lt;/span&gt;&lt;span style=&quot;&quot;&gt;Bunch&lt;/span&gt;&lt;span style=&quot;&quot;&gt;.&lt;/span&gt;&lt;span style=&quot;&quot;&gt;ChSequence &lt;/span&gt;&lt;span style=&quot;&quot;&gt;!= &lt;/span&gt;&lt;span style=&quot;&quot;&gt;Connection&lt;/span&gt;&lt;span style=&quot;&quot;&gt;-&amp;gt;&lt;/span&gt;&lt;span style=&quot;&quot;&gt;InReliable&lt;/span&gt;&lt;span style=&quot;&quot;&gt;[&lt;/span&gt;&lt;span style=&quot;&quot;&gt;ChIndex&lt;/span&gt;&lt;span style=&quot;&quot;&gt;] &lt;/span&gt;&lt;span style=&quot;&quot;&gt;+ &lt;/span&gt;&lt;span style=&quot;&quot;&gt;1 &lt;/span&gt;&lt;span style=&quot;&quot;&gt;)&lt;/span&gt;&lt;/div&gt;&lt;/div&gt;&lt;/div&gt;&lt;/div&gt;&lt;/div&gt;&lt;/div&gt;&lt;/div&gt;&lt;/div&gt;&lt;/div&gt;" style="rounded=1;whiteSpace=wrap;html=1;align=left;fontFamily=Helvetica;fontColor=#000000;labelBackgroundColor=none;" parent="1" vertex="1">
          <mxGeometry x="-34" y="6470" width="450" height="60" as="geometry" />
        </mxCell>
        <mxCell id="oJ5wStfypiaaaqxFmI3H-114" value="&lt;div style=&quot;&quot;&gt;&lt;div style=&quot;font-size: 10.5pt;&quot;&gt;&lt;div style=&quot;font-size: 10.5pt;&quot;&gt;&lt;div style=&quot;font-size: 10.5pt;&quot;&gt;&lt;div style=&quot;font-size: 10.5pt;&quot;&gt;&lt;div style=&quot;font-size: 10.5pt;&quot;&gt;&lt;div style=&quot;font-size: 10.5pt;&quot;&gt;&lt;div style=&quot;font-size: 10.5pt;&quot;&gt;&lt;div&gt;&lt;div style=&quot;font-size: 10.5pt;&quot;&gt;&lt;span style=&quot;&quot;&gt;ReceivedNextBunch&lt;/span&gt;&lt;span style=&quot;&quot;&gt;( &lt;/span&gt;&lt;span style=&quot;&quot;&gt;Bunch&lt;/span&gt;&lt;span style=&quot;&quot;&gt;, &lt;/span&gt;&lt;span style=&quot;&quot;&gt;bOutSkipAck &lt;/span&gt;&lt;span style=&quot;&quot;&gt;)&lt;/span&gt;&lt;/div&gt;&lt;/div&gt;&lt;/div&gt;&lt;/div&gt;&lt;/div&gt;&lt;/div&gt;&lt;/div&gt;&lt;/div&gt;&lt;/div&gt;&lt;/div&gt;" style="rounded=1;whiteSpace=wrap;html=1;align=left;fontFamily=Helvetica;fontColor=#000000;labelBackgroundColor=none;" parent="1" vertex="1">
          <mxGeometry x="36" y="6530" width="450" height="60" as="geometry" />
        </mxCell>
        <mxCell id="oJ5wStfypiaaaqxFmI3H-115" value="&lt;div style=&quot;&quot;&gt;&lt;div style=&quot;font-size: 10.5pt;&quot;&gt;&lt;div style=&quot;font-size: 10.5pt;&quot;&gt;&lt;div style=&quot;font-size: 10.5pt;&quot;&gt;&lt;div style=&quot;font-size: 10.5pt;&quot;&gt;&lt;div style=&quot;font-size: 10.5pt;&quot;&gt;&lt;div style=&quot;font-size: 10.5pt;&quot;&gt;&lt;div style=&quot;font-size: 10.5pt;&quot;&gt;&lt;div style=&quot;font-size: 10.5pt;&quot;&gt;&lt;div&gt;&lt;div style=&quot;font-size: 10.5pt;&quot;&gt;&lt;span style=&quot;&quot;&gt;ReceivedSequencedBunch&lt;/span&gt;&lt;span style=&quot;&quot;&gt;( *HandleBunch )&lt;/span&gt;&lt;/div&gt;&lt;/div&gt;&lt;/div&gt;&lt;/div&gt;&lt;/div&gt;&lt;/div&gt;&lt;/div&gt;&lt;/div&gt;&lt;/div&gt;&lt;/div&gt;&lt;/div&gt;" style="rounded=1;whiteSpace=wrap;html=1;align=left;fontFamily=Helvetica;fontColor=#000000;labelBackgroundColor=none;" parent="1" vertex="1">
          <mxGeometry x="96" y="6590" width="450" height="60" as="geometry" />
        </mxCell>
        <mxCell id="oJ5wStfypiaaaqxFmI3H-116" value="&lt;div style=&quot;&quot;&gt;&lt;div style=&quot;font-size: 10.5pt;&quot;&gt;&lt;div style=&quot;font-size: 10.5pt;&quot;&gt;&lt;div style=&quot;font-size: 10.5pt;&quot;&gt;&lt;div style=&quot;font-size: 10.5pt;&quot;&gt;&lt;div style=&quot;font-size: 10.5pt;&quot;&gt;&lt;div style=&quot;font-size: 10.5pt;&quot;&gt;&lt;div style=&quot;font-size: 10.5pt;&quot;&gt;&lt;div style=&quot;font-size: 10.5pt;&quot;&gt;&lt;div style=&quot;font-size: 10.5pt;&quot;&gt;&lt;div&gt;&lt;div style=&quot;font-size: 10.5pt;&quot;&gt;&lt;span style=&quot;&quot;&gt;ReceivedBunch&lt;/span&gt;&lt;span style=&quot;&quot;&gt;( &lt;/span&gt;&lt;span style=&quot;&quot;&gt;Bunch &lt;/span&gt;&lt;span style=&quot;&quot;&gt;);&lt;/span&gt;&lt;/div&gt;&lt;/div&gt;&lt;/div&gt;&lt;/div&gt;&lt;/div&gt;&lt;/div&gt;&lt;/div&gt;&lt;/div&gt;&lt;/div&gt;&lt;/div&gt;&lt;/div&gt;&lt;/div&gt;" style="rounded=1;whiteSpace=wrap;html=1;align=left;fontFamily=Helvetica;fontColor=#000000;labelBackgroundColor=none;" parent="1" vertex="1">
          <mxGeometry x="166" y="6650" width="450" height="60" as="geometry" />
        </mxCell>
        <mxCell id="oJ5wStfypiaaaqxFmI3H-117" value="&lt;div style=&quot;&quot;&gt;&lt;div style=&quot;font-size: 10.5pt;&quot;&gt;&lt;div style=&quot;font-size: 10.5pt;&quot;&gt;&lt;div style=&quot;font-size: 10.5pt;&quot;&gt;&lt;div style=&quot;font-size: 10.5pt;&quot;&gt;&lt;div style=&quot;font-size: 10.5pt;&quot;&gt;&lt;div style=&quot;font-size: 10.5pt;&quot;&gt;&lt;div style=&quot;font-size: 10.5pt;&quot;&gt;&lt;div style=&quot;font-size: 10.5pt;&quot;&gt;&lt;div style=&quot;font-size: 10.5pt;&quot;&gt;&lt;div style=&quot;font-size: 10.5pt;&quot;&gt;&lt;div&gt;&lt;div style=&quot;font-size: 10.5pt;&quot;&gt;&lt;span style=&quot;&quot;&gt;else if &lt;/span&gt;&lt;span style=&quot;&quot;&gt;(&lt;/span&gt;&lt;span style=&quot;&quot;&gt;Connection&lt;/span&gt;&lt;span style=&quot;&quot;&gt;-&amp;gt;&lt;/span&gt;&lt;span style=&quot;&quot;&gt;Driver&lt;/span&gt;&lt;span style=&quot;&quot;&gt;-&amp;gt;&lt;/span&gt;&lt;span style=&quot;&quot;&gt;Notify &lt;/span&gt;&lt;span style=&quot;&quot;&gt;!= &lt;/span&gt;&lt;span style=&quot;&quot;&gt;nullptr&lt;/span&gt;&lt;span style=&quot;&quot;&gt;)&lt;/span&gt;&lt;/div&gt;&lt;/div&gt;&lt;/div&gt;&lt;/div&gt;&lt;/div&gt;&lt;/div&gt;&lt;/div&gt;&lt;/div&gt;&lt;/div&gt;&lt;/div&gt;&lt;/div&gt;&lt;/div&gt;&lt;/div&gt;" style="rounded=1;whiteSpace=wrap;html=1;align=left;fontFamily=Helvetica;fontColor=#000000;labelBackgroundColor=none;" parent="1" vertex="1">
          <mxGeometry x="226" y="6710" width="450" height="60" as="geometry" />
        </mxCell>
        <mxCell id="oJ5wStfypiaaaqxFmI3H-118" value="&lt;div style=&quot;&quot;&gt;&lt;div style=&quot;font-size: 10.5pt;&quot;&gt;&lt;div style=&quot;font-size: 10.5pt;&quot;&gt;&lt;div style=&quot;font-size: 10.5pt;&quot;&gt;&lt;div style=&quot;font-size: 10.5pt;&quot;&gt;&lt;div style=&quot;font-size: 10.5pt;&quot;&gt;&lt;div style=&quot;font-size: 10.5pt;&quot;&gt;&lt;div style=&quot;font-size: 10.5pt;&quot;&gt;&lt;div style=&quot;font-size: 10.5pt;&quot;&gt;&lt;div style=&quot;font-size: 10.5pt;&quot;&gt;&lt;div style=&quot;font-size: 10.5pt;&quot;&gt;&lt;div style=&quot;font-size: 10.5pt;&quot;&gt;&lt;div&gt;&lt;div style=&quot;font-size: 10.5pt;&quot;&gt;&lt;span style=&quot;&quot;&gt;// Notify是PendingNetGame&lt;/span&gt;&lt;/div&gt;&lt;div style=&quot;font-size: 10.5pt;&quot;&gt;&lt;span style=&quot;&quot;&gt;Connection&lt;/span&gt;&lt;span style=&quot;&quot;&gt;-&amp;gt;&lt;/span&gt;&lt;span style=&quot;&quot;&gt;Driver&lt;/span&gt;&lt;span style=&quot;&quot;&gt;-&amp;gt;&lt;/span&gt;&lt;span style=&quot;&quot;&gt;Notify&lt;/span&gt;&lt;span style=&quot;&quot;&gt;-&amp;gt;&lt;/span&gt;&lt;span style=&quot;&quot;&gt;NotifyControlMessage&lt;/span&gt;&lt;span style=&quot;&quot;&gt;(&lt;/span&gt;&lt;span style=&quot;&quot;&gt;Connection&lt;/span&gt;&lt;span style=&quot;&quot;&gt;, MessageType, &lt;/span&gt;&lt;span style=&quot;&quot;&gt;Bunch&lt;/span&gt;&lt;span style=&quot;&quot;&gt;)&lt;/span&gt;&lt;/div&gt;&lt;/div&gt;&lt;/div&gt;&lt;/div&gt;&lt;/div&gt;&lt;/div&gt;&lt;/div&gt;&lt;/div&gt;&lt;/div&gt;&lt;/div&gt;&lt;/div&gt;&lt;/div&gt;&lt;/div&gt;&lt;/div&gt;" style="rounded=1;whiteSpace=wrap;html=1;align=left;fontFamily=Helvetica;fontColor=#000000;labelBackgroundColor=none;" parent="1" vertex="1">
          <mxGeometry x="286" y="6770" width="450" height="60" as="geometry" />
        </mxCell>
        <mxCell id="oJ5wStfypiaaaqxFmI3H-120" value="&lt;div style=&quot;&quot;&gt;&lt;div style=&quot;font-size: 10.5pt;&quot;&gt;&lt;div style=&quot;font-size: 10.5pt;&quot;&gt;&lt;div style=&quot;font-size: 10.5pt;&quot;&gt;&lt;div style=&quot;font-size: 10.5pt;&quot;&gt;&lt;div style=&quot;font-size: 10.5pt;&quot;&gt;&lt;div style=&quot;font-size: 10.5pt;&quot;&gt;&lt;div style=&quot;font-size: 10.5pt;&quot;&gt;&lt;div style=&quot;font-size: 10.5pt;&quot;&gt;&lt;div style=&quot;font-size: 10.5pt;&quot;&gt;&lt;div style=&quot;font-size: 10.5pt;&quot;&gt;&lt;div style=&quot;font-size: 10.5pt;&quot;&gt;&lt;div style=&quot;font-size: 10.5pt;&quot;&gt;&lt;div style=&quot;&quot;&gt;&lt;div style=&quot;font-size: 10.5pt;&quot;&gt;&lt;div style=&quot;&quot;&gt;&lt;div style=&quot;font-size: 10.5pt;&quot;&gt;&lt;span style=&quot;&quot;&gt;switch &lt;/span&gt;&lt;span style=&quot;&quot;&gt;(&lt;/span&gt;&lt;span style=&quot;&quot;&gt;MessageType&lt;/span&gt;&lt;span style=&quot;&quot;&gt;)&lt;/span&gt;&lt;/div&gt;&lt;/div&gt;&lt;/div&gt;&lt;/div&gt;&lt;/div&gt;&lt;/div&gt;&lt;/div&gt;&lt;/div&gt;&lt;/div&gt;&lt;/div&gt;&lt;/div&gt;&lt;/div&gt;&lt;/div&gt;&lt;/div&gt;&lt;/div&gt;&lt;/div&gt;&lt;/div&gt;" style="rounded=1;whiteSpace=wrap;html=1;align=left;fontFamily=Helvetica;fontColor=#000000;labelBackgroundColor=none;" parent="1" vertex="1">
          <mxGeometry x="366" y="6830" width="450" height="60" as="geometry" />
        </mxCell>
        <mxCell id="oJ5wStfypiaaaqxFmI3H-121" value="&lt;div style=&quot;&quot;&gt;&lt;div style=&quot;font-size: 10.5pt;&quot;&gt;&lt;div style=&quot;font-size: 10.5pt;&quot;&gt;&lt;div style=&quot;font-size: 10.5pt;&quot;&gt;&lt;div style=&quot;font-size: 10.5pt;&quot;&gt;&lt;div style=&quot;font-size: 10.5pt;&quot;&gt;&lt;div style=&quot;font-size: 10.5pt;&quot;&gt;&lt;div style=&quot;font-size: 10.5pt;&quot;&gt;&lt;div style=&quot;font-size: 10.5pt;&quot;&gt;&lt;div style=&quot;font-size: 10.5pt;&quot;&gt;&lt;div style=&quot;font-size: 10.5pt;&quot;&gt;&lt;div style=&quot;font-size: 10.5pt;&quot;&gt;&lt;div style=&quot;font-size: 10.5pt;&quot;&gt;&lt;div style=&quot;&quot;&gt;&lt;div style=&quot;font-size: 10.5pt;&quot;&gt;&lt;div style=&quot;&quot;&gt;&lt;div style=&quot;font-size: 10.5pt;&quot;&gt;&lt;div&gt;&lt;div style=&quot;font-size: 10.5pt;&quot;&gt;&lt;span style=&quot;&quot;&gt;case &lt;/span&gt;&lt;span style=&quot;&quot;&gt;NMT_Challenge&lt;/span&gt;:&lt;/div&gt;&lt;/div&gt;&lt;/div&gt;&lt;/div&gt;&lt;/div&gt;&lt;/div&gt;&lt;/div&gt;&lt;/div&gt;&lt;/div&gt;&lt;/div&gt;&lt;/div&gt;&lt;/div&gt;&lt;/div&gt;&lt;/div&gt;&lt;/div&gt;&lt;/div&gt;&lt;/div&gt;&lt;/div&gt;&lt;/div&gt;" style="rounded=1;whiteSpace=wrap;html=1;align=left;fontFamily=Helvetica;fontColor=#000000;labelBackgroundColor=none;" parent="1" vertex="1">
          <mxGeometry x="426" y="6890" width="450" height="60" as="geometry" />
        </mxCell>
        <mxCell id="oJ5wStfypiaaaqxFmI3H-180" style="rounded=0;orthogonalLoop=1;jettySize=auto;html=1;entryX=0;entryY=0.5;entryDx=0;entryDy=0;fontFamily=Helvetica;fontColor=#000000;labelBackgroundColor=none;" parent="1" source="oJ5wStfypiaaaqxFmI3H-122" target="oJ5wStfypiaaaqxFmI3H-147" edge="1">
          <mxGeometry relative="1" as="geometry" />
        </mxCell>
        <mxCell id="S93yyvXEkiN3lrwmMDB--8" value="发送NMT_Login" style="edgeLabel;html=1;align=center;verticalAlign=middle;resizable=0;points=[];fontFamily=Helvetica;fontColor=#000000;labelBackgroundColor=none;" parent="oJ5wStfypiaaaqxFmI3H-180" vertex="1" connectable="0">
          <mxGeometry x="-0.0332" y="-1" relative="1" as="geometry">
            <mxPoint as="offset" />
          </mxGeometry>
        </mxCell>
        <mxCell id="oJ5wStfypiaaaqxFmI3H-122" value="&lt;div style=&quot;&quot;&gt;&lt;div style=&quot;font-size: 10.5pt;&quot;&gt;&lt;div style=&quot;font-size: 10.5pt;&quot;&gt;&lt;div style=&quot;font-size: 10.5pt;&quot;&gt;&lt;div style=&quot;font-size: 10.5pt;&quot;&gt;&lt;div style=&quot;font-size: 10.5pt;&quot;&gt;&lt;div style=&quot;font-size: 10.5pt;&quot;&gt;&lt;div style=&quot;font-size: 10.5pt;&quot;&gt;&lt;div style=&quot;font-size: 10.5pt;&quot;&gt;&lt;div style=&quot;font-size: 10.5pt;&quot;&gt;&lt;div style=&quot;font-size: 10.5pt;&quot;&gt;&lt;div style=&quot;font-size: 10.5pt;&quot;&gt;&lt;div style=&quot;font-size: 10.5pt;&quot;&gt;&lt;div style=&quot;&quot;&gt;&lt;div style=&quot;font-size: 10.5pt;&quot;&gt;&lt;div style=&quot;&quot;&gt;&lt;div style=&quot;font-size: 10.5pt;&quot;&gt;&lt;div style=&quot;font-size: 10.5pt;&quot;&gt;&lt;div&gt;&lt;div style=&quot;font-size: 10.5pt;&quot;&gt;FNetControlMessage&lt;span style=&quot;&quot;&gt;&amp;lt;&lt;/span&gt;NMT_Login&lt;span style=&quot;&quot;&gt;&amp;gt;&lt;/span&gt;::Send&lt;span style=&quot;&quot;&gt;(&lt;/span&gt;Connection&lt;span style=&quot;&quot;&gt;, &lt;/span&gt;Connection&lt;span style=&quot;&quot;&gt;-&amp;gt;&lt;/span&gt;ClientResponse&lt;span style=&quot;&quot;&gt;, &lt;/span&gt;URLString&lt;span style=&quot;&quot;&gt;, &lt;/span&gt;Connection&lt;span style=&quot;&quot;&gt;-&amp;gt;&lt;/span&gt;PlayerId&lt;span style=&quot;&quot;&gt;, &lt;/span&gt;OnlinePlatformNameString&lt;span style=&quot;&quot;&gt;);&lt;/span&gt;&lt;/div&gt;&lt;/div&gt;&lt;/div&gt;&lt;/div&gt;&lt;/div&gt;&lt;/div&gt;&lt;/div&gt;&lt;/div&gt;&lt;/div&gt;&lt;/div&gt;&lt;/div&gt;&lt;/div&gt;&lt;/div&gt;&lt;/div&gt;&lt;/div&gt;&lt;/div&gt;&lt;/div&gt;&lt;/div&gt;&lt;/div&gt;&lt;/div&gt;" style="rounded=1;whiteSpace=wrap;html=1;align=left;fontFamily=Helvetica;fontColor=#000000;labelBackgroundColor=none;" parent="1" vertex="1">
          <mxGeometry x="486" y="6950" width="450" height="60" as="geometry" />
        </mxCell>
        <mxCell id="oJ5wStfypiaaaqxFmI3H-124" value="&lt;div style=&quot;&quot;&gt;&lt;div style=&quot;font-size: 10.5pt;&quot;&gt;&lt;div style=&quot;font-size: 10.5pt;&quot;&gt;&lt;div style=&quot;font-size: 10.5pt;&quot;&gt;&lt;div style=&quot;font-size: 10.5pt;&quot;&gt;&lt;div style=&quot;font-size: 10.5pt;&quot;&gt;&lt;div style=&quot;&quot;&gt;&lt;div style=&quot;font-size: 10.5pt;&quot;&gt;UPendingNetGame::Tick&lt;/div&gt;&lt;/div&gt;&lt;/div&gt;&lt;/div&gt;&lt;/div&gt;&lt;/div&gt;&lt;/div&gt;&lt;/div&gt;" style="rounded=1;whiteSpace=wrap;html=1;align=left;fontFamily=Helvetica;fontColor=#000000;labelBackgroundColor=none;" parent="1" vertex="1">
          <mxGeometry x="-644" y="5810" width="260" height="60" as="geometry" />
        </mxCell>
        <mxCell id="oJ5wStfypiaaaqxFmI3H-143" value="&lt;div style=&quot;&quot;&gt;&lt;div style=&quot;font-size: 10.5pt;&quot;&gt;&lt;div style=&quot;font-size: 10.5pt;&quot;&gt;&lt;div style=&quot;font-size: 10.5pt;&quot;&gt;&lt;div style=&quot;font-size: 10.5pt;&quot;&gt;&lt;div style=&quot;font-size: 10.5pt;&quot;&gt;&lt;div style=&quot;font-size: 10.5pt;&quot;&gt;&lt;div style=&quot;font-size: 10.5pt;&quot;&gt;&lt;div style=&quot;font-size: 10.5pt;&quot;&gt;&lt;div style=&quot;font-size: 10.5pt;&quot;&gt;&lt;div style=&quot;font-size: 10.5pt;&quot;&gt;&lt;div style=&quot;font-size: 10.5pt;&quot;&gt;&lt;div style=&quot;font-size: 10.5pt;&quot;&gt;&lt;div style=&quot;&quot;&gt;&lt;div style=&quot;font-size: 10.5pt;&quot;&gt;&lt;div style=&quot;&quot;&gt;&lt;div style=&quot;font-size: 10.5pt;&quot;&gt;&lt;div style=&quot;font-size: 10.5pt;&quot;&gt;&lt;div&gt;&lt;div style=&quot;font-size: 10.5pt;&quot;&gt;&lt;span style=&quot;&quot;&gt;case &lt;/span&gt;&lt;span style=&quot;&quot;&gt;NMT_Login&lt;/span&gt;:&lt;/div&gt;&lt;/div&gt;&lt;/div&gt;&lt;/div&gt;&lt;/div&gt;&lt;/div&gt;&lt;/div&gt;&lt;/div&gt;&lt;/div&gt;&lt;/div&gt;&lt;/div&gt;&lt;/div&gt;&lt;/div&gt;&lt;/div&gt;&lt;/div&gt;&lt;/div&gt;&lt;/div&gt;&lt;/div&gt;&lt;/div&gt;&lt;/div&gt;" style="rounded=1;whiteSpace=wrap;html=1;align=left;fontFamily=Helvetica;fontColor=#000000;labelBackgroundColor=none;" parent="1" vertex="1">
          <mxGeometry x="2050" y="7120" width="450" height="60" as="geometry" />
        </mxCell>
        <mxCell id="oJ5wStfypiaaaqxFmI3H-144" value="&lt;div style=&quot;&quot;&gt;&lt;div style=&quot;font-size: 10.5pt;&quot;&gt;&lt;div style=&quot;font-size: 10.5pt;&quot;&gt;&lt;div style=&quot;font-size: 10.5pt;&quot;&gt;&lt;div style=&quot;font-size: 10.5pt;&quot;&gt;&lt;div style=&quot;font-size: 10.5pt;&quot;&gt;&lt;div style=&quot;font-size: 10.5pt;&quot;&gt;&lt;div style=&quot;font-size: 10.5pt;&quot;&gt;&lt;div style=&quot;font-size: 10.5pt;&quot;&gt;&lt;div style=&quot;font-size: 10.5pt;&quot;&gt;&lt;div style=&quot;font-size: 10.5pt;&quot;&gt;&lt;div style=&quot;font-size: 10.5pt;&quot;&gt;&lt;div style=&quot;font-size: 10.5pt;&quot;&gt;&lt;div style=&quot;&quot;&gt;&lt;div style=&quot;font-size: 10.5pt;&quot;&gt;&lt;div style=&quot;&quot;&gt;&lt;div style=&quot;font-size: 10.5pt;&quot;&gt;&lt;div style=&quot;font-size: 10.5pt;&quot;&gt;&lt;div style=&quot;font-size: 10.5pt;&quot;&gt;&lt;div&gt;&lt;div style=&quot;font-size: 10.5pt;&quot;&gt;&lt;span style=&quot;&quot;&gt;if &lt;/span&gt;&lt;span style=&quot;&quot;&gt;(GameMode)&lt;/span&gt;&lt;/div&gt;&lt;/div&gt;&lt;/div&gt;&lt;/div&gt;&lt;/div&gt;&lt;/div&gt;&lt;/div&gt;&lt;/div&gt;&lt;/div&gt;&lt;/div&gt;&lt;/div&gt;&lt;/div&gt;&lt;/div&gt;&lt;/div&gt;&lt;/div&gt;&lt;/div&gt;&lt;/div&gt;&lt;/div&gt;&lt;/div&gt;&lt;/div&gt;&lt;/div&gt;" style="rounded=1;whiteSpace=wrap;html=1;align=left;fontFamily=Helvetica;fontColor=#000000;labelBackgroundColor=none;" parent="1" vertex="1">
          <mxGeometry x="2120" y="7180" width="450" height="60" as="geometry" />
        </mxCell>
        <mxCell id="oJ5wStfypiaaaqxFmI3H-145" value="&lt;div style=&quot;&quot;&gt;&lt;div style=&quot;font-size: 10.5pt;&quot;&gt;&lt;div style=&quot;font-size: 10.5pt;&quot;&gt;&lt;div style=&quot;font-size: 10.5pt;&quot;&gt;&lt;div style=&quot;font-size: 10.5pt;&quot;&gt;&lt;div style=&quot;font-size: 10.5pt;&quot;&gt;&lt;div style=&quot;font-size: 10.5pt;&quot;&gt;&lt;div style=&quot;font-size: 10.5pt;&quot;&gt;&lt;div style=&quot;font-size: 10.5pt;&quot;&gt;&lt;div style=&quot;font-size: 10.5pt;&quot;&gt;&lt;div style=&quot;font-size: 10.5pt;&quot;&gt;&lt;div style=&quot;font-size: 10.5pt;&quot;&gt;&lt;div style=&quot;font-size: 10.5pt;&quot;&gt;&lt;div style=&quot;&quot;&gt;&lt;div style=&quot;font-size: 10.5pt;&quot;&gt;&lt;div style=&quot;&quot;&gt;&lt;div style=&quot;font-size: 10.5pt;&quot;&gt;&lt;div style=&quot;font-size: 10.5pt;&quot;&gt;&lt;div style=&quot;font-size: 10.5pt;&quot;&gt;&lt;div style=&quot;font-size: 10.5pt;&quot;&gt;&lt;div&gt;&lt;div style=&quot;font-size: 10.5pt;&quot;&gt;GameMode&lt;span style=&quot;&quot;&gt;-&amp;gt;&lt;/span&gt;PreLoginAsync&lt;span style=&quot;&quot;&gt;(&lt;/span&gt;Tmp&lt;span style=&quot;&quot;&gt;, &lt;/span&gt;Connection&lt;span style=&quot;&quot;&gt;-&amp;gt;&lt;/span&gt;LowLevelGetRemoteAddress&lt;span style=&quot;&quot;&gt;(), &lt;/span&gt;Connection&lt;span style=&quot;&quot;&gt;-&amp;gt;&lt;/span&gt;PlayerId&lt;span style=&quot;&quot;&gt;, &lt;/span&gt;OnComplete&lt;span style=&quot;&quot;&gt;)&lt;/span&gt;&lt;/div&gt;&lt;/div&gt;&lt;/div&gt;&lt;/div&gt;&lt;/div&gt;&lt;/div&gt;&lt;/div&gt;&lt;/div&gt;&lt;/div&gt;&lt;/div&gt;&lt;/div&gt;&lt;/div&gt;&lt;/div&gt;&lt;/div&gt;&lt;/div&gt;&lt;/div&gt;&lt;/div&gt;&lt;/div&gt;&lt;/div&gt;&lt;/div&gt;&lt;/div&gt;&lt;/div&gt;" style="rounded=1;whiteSpace=wrap;html=1;align=left;fontFamily=Helvetica;fontColor=#000000;labelBackgroundColor=none;" parent="1" vertex="1">
          <mxGeometry x="2190" y="7240" width="450" height="60" as="geometry" />
        </mxCell>
        <mxCell id="oJ5wStfypiaaaqxFmI3H-146" value="&lt;div style=&quot;&quot;&gt;&lt;div style=&quot;font-size: 10.5pt;&quot;&gt;&lt;div style=&quot;font-size: 10.5pt;&quot;&gt;&lt;div style=&quot;font-size: 10.5pt;&quot;&gt;&lt;div style=&quot;font-size: 10.5pt;&quot;&gt;&lt;div style=&quot;font-size: 10.5pt;&quot;&gt;&lt;div style=&quot;font-size: 10.5pt;&quot;&gt;&lt;div style=&quot;font-size: 10.5pt;&quot;&gt;&lt;div style=&quot;font-size: 10.5pt;&quot;&gt;&lt;div style=&quot;font-size: 10.5pt;&quot;&gt;&lt;div style=&quot;font-size: 10.5pt;&quot;&gt;&lt;div style=&quot;font-size: 10.5pt;&quot;&gt;&lt;div style=&quot;font-size: 10.5pt;&quot;&gt;&lt;div style=&quot;&quot;&gt;&lt;div style=&quot;font-size: 10.5pt;&quot;&gt;&lt;div style=&quot;&quot;&gt;&lt;div style=&quot;font-size: 10.5pt;&quot;&gt;&lt;div style=&quot;font-size: 10.5pt;&quot;&gt;&lt;div style=&quot;font-size: 10.5pt;&quot;&gt;&lt;div style=&quot;font-size: 10.5pt;&quot;&gt;&lt;div style=&quot;font-size: 10.5pt;&quot;&gt;&lt;div&gt;&lt;div style=&quot;font-size: 10.5pt;&quot;&gt;&lt;span style=&quot;&quot;&gt;UWorld&lt;/span&gt;::&lt;span style=&quot;&quot;&gt;PreLoginComplete&lt;/span&gt;&lt;/div&gt;&lt;/div&gt;&lt;/div&gt;&lt;/div&gt;&lt;/div&gt;&lt;/div&gt;&lt;/div&gt;&lt;/div&gt;&lt;/div&gt;&lt;/div&gt;&lt;/div&gt;&lt;/div&gt;&lt;/div&gt;&lt;/div&gt;&lt;/div&gt;&lt;/div&gt;&lt;/div&gt;&lt;/div&gt;&lt;/div&gt;&lt;/div&gt;&lt;/div&gt;&lt;/div&gt;&lt;/div&gt;" style="rounded=1;whiteSpace=wrap;html=1;align=left;fontFamily=Helvetica;fontColor=#000000;labelBackgroundColor=none;" parent="1" vertex="1">
          <mxGeometry x="2260" y="7300" width="450" height="60" as="geometry" />
        </mxCell>
        <mxCell id="oJ5wStfypiaaaqxFmI3H-147" value="&lt;div style=&quot;&quot;&gt;&lt;div style=&quot;font-size: 10.5pt;&quot;&gt;&lt;div style=&quot;font-size: 10.5pt;&quot;&gt;&lt;div style=&quot;font-size: 10.5pt;&quot;&gt;&lt;div style=&quot;font-size: 10.5pt;&quot;&gt;&lt;div&gt;&lt;div style=&quot;font-size: 10.5pt;&quot;&gt;&lt;span style=&quot;&quot;&gt;UIpNetDriver&lt;/span&gt;::&lt;span style=&quot;&quot;&gt;TickDispatch&lt;/span&gt;&lt;/div&gt;&lt;/div&gt;&lt;/div&gt;&lt;/div&gt;&lt;/div&gt;&lt;/div&gt;&lt;/div&gt;" style="rounded=1;whiteSpace=wrap;html=1;align=left;fontFamily=Helvetica;fontColor=#000000;labelBackgroundColor=none;" parent="1" vertex="1">
          <mxGeometry x="1960" y="7060" width="260" height="60" as="geometry" />
        </mxCell>
        <mxCell id="oJ5wStfypiaaaqxFmI3H-148" value="&lt;div style=&quot;&quot;&gt;&lt;div style=&quot;font-size: 10.5pt;&quot;&gt;&lt;div style=&quot;font-size: 10.5pt;&quot;&gt;&lt;div style=&quot;font-size: 10.5pt;&quot;&gt;&lt;div style=&quot;font-size: 10.5pt;&quot;&gt;&lt;div style=&quot;font-size: 10.5pt;&quot;&gt;&lt;div style=&quot;font-size: 10.5pt;&quot;&gt;&lt;div style=&quot;font-size: 10.5pt;&quot;&gt;&lt;div style=&quot;font-size: 10.5pt;&quot;&gt;&lt;div style=&quot;font-size: 10.5pt;&quot;&gt;&lt;div style=&quot;font-size: 10.5pt;&quot;&gt;&lt;div style=&quot;font-size: 10.5pt;&quot;&gt;&lt;div style=&quot;font-size: 10.5pt;&quot;&gt;&lt;div style=&quot;&quot;&gt;&lt;div style=&quot;font-size: 10.5pt;&quot;&gt;&lt;div style=&quot;&quot;&gt;&lt;div style=&quot;font-size: 10.5pt;&quot;&gt;&lt;div style=&quot;font-size: 10.5pt;&quot;&gt;&lt;div style=&quot;font-size: 10.5pt;&quot;&gt;&lt;div style=&quot;font-size: 10.5pt;&quot;&gt;&lt;div style=&quot;font-size: 10.5pt;&quot;&gt;&lt;div style=&quot;font-size: 10.5pt;&quot;&gt;&lt;div&gt;&lt;div style=&quot;font-size: 10.5pt;&quot;&gt;&lt;span style=&quot;&quot;&gt;WelcomePlayer&lt;/span&gt;&lt;span style=&quot;&quot;&gt;(Connection)&lt;/span&gt;&lt;/div&gt;&lt;/div&gt;&lt;/div&gt;&lt;/div&gt;&lt;/div&gt;&lt;/div&gt;&lt;/div&gt;&lt;/div&gt;&lt;/div&gt;&lt;/div&gt;&lt;/div&gt;&lt;/div&gt;&lt;/div&gt;&lt;/div&gt;&lt;/div&gt;&lt;/div&gt;&lt;/div&gt;&lt;/div&gt;&lt;/div&gt;&lt;/div&gt;&lt;/div&gt;&lt;/div&gt;&lt;/div&gt;&lt;/div&gt;" style="rounded=1;whiteSpace=wrap;html=1;align=left;fontFamily=Helvetica;fontColor=#000000;labelBackgroundColor=none;" parent="1" vertex="1">
          <mxGeometry x="2330" y="7360" width="450" height="60" as="geometry" />
        </mxCell>
        <mxCell id="oJ5wStfypiaaaqxFmI3H-149" value="&lt;div style=&quot;&quot;&gt;&lt;div style=&quot;font-size: 10.5pt;&quot;&gt;&lt;div style=&quot;font-size: 10.5pt;&quot;&gt;&lt;div style=&quot;font-size: 10.5pt;&quot;&gt;&lt;div style=&quot;font-size: 10.5pt;&quot;&gt;&lt;div style=&quot;font-size: 10.5pt;&quot;&gt;&lt;div style=&quot;font-size: 10.5pt;&quot;&gt;&lt;div style=&quot;font-size: 10.5pt;&quot;&gt;&lt;div style=&quot;font-size: 10.5pt;&quot;&gt;&lt;div style=&quot;font-size: 10.5pt;&quot;&gt;&lt;div style=&quot;font-size: 10.5pt;&quot;&gt;&lt;div style=&quot;font-size: 10.5pt;&quot;&gt;&lt;div style=&quot;font-size: 10.5pt;&quot;&gt;&lt;div style=&quot;&quot;&gt;&lt;div style=&quot;font-size: 10.5pt;&quot;&gt;&lt;div style=&quot;&quot;&gt;&lt;div style=&quot;font-size: 10.5pt;&quot;&gt;&lt;div style=&quot;font-size: 10.5pt;&quot;&gt;&lt;div style=&quot;font-size: 10.5pt;&quot;&gt;&lt;div style=&quot;font-size: 10.5pt;&quot;&gt;&lt;div style=&quot;font-size: 10.5pt;&quot;&gt;&lt;div style=&quot;font-size: 10.5pt;&quot;&gt;&lt;div style=&quot;font-size: 10.5pt;&quot;&gt;&lt;div style=&quot;font-size: 10.5pt;&quot;&gt;初始化一下参数&lt;/div&gt;&lt;/div&gt;&lt;/div&gt;&lt;/div&gt;&lt;/div&gt;&lt;/div&gt;&lt;/div&gt;&lt;/div&gt;&lt;/div&gt;&lt;/div&gt;&lt;/div&gt;&lt;/div&gt;&lt;/div&gt;&lt;/div&gt;&lt;/div&gt;&lt;/div&gt;&lt;/div&gt;&lt;/div&gt;&lt;/div&gt;&lt;/div&gt;&lt;/div&gt;&lt;/div&gt;&lt;/div&gt;&lt;/div&gt;" style="rounded=1;whiteSpace=wrap;html=1;align=left;fontFamily=Helvetica;fontColor=#000000;labelBackgroundColor=none;" parent="1" vertex="1">
          <mxGeometry x="2390" y="7420" width="450" height="60" as="geometry" />
        </mxCell>
        <mxCell id="oJ5wStfypiaaaqxFmI3H-179" style="rounded=0;orthogonalLoop=1;jettySize=auto;html=1;entryX=1;entryY=0.5;entryDx=0;entryDy=0;fontFamily=Helvetica;fontColor=#000000;labelBackgroundColor=none;" parent="1" source="oJ5wStfypiaaaqxFmI3H-150" target="oJ5wStfypiaaaqxFmI3H-157" edge="1">
          <mxGeometry relative="1" as="geometry" />
        </mxCell>
        <mxCell id="S93yyvXEkiN3lrwmMDB--9" value="返回NMT_Welcome" style="edgeLabel;html=1;align=center;verticalAlign=middle;resizable=0;points=[];fontFamily=Helvetica;fontColor=#000000;labelBackgroundColor=none;" parent="oJ5wStfypiaaaqxFmI3H-179" vertex="1" connectable="0">
          <mxGeometry x="-0.2599" relative="1" as="geometry">
            <mxPoint as="offset" />
          </mxGeometry>
        </mxCell>
        <mxCell id="oJ5wStfypiaaaqxFmI3H-150" value="&lt;div style=&quot;&quot;&gt;&lt;div style=&quot;font-size: 10.5pt;&quot;&gt;&lt;div style=&quot;font-size: 10.5pt;&quot;&gt;&lt;div style=&quot;font-size: 10.5pt;&quot;&gt;&lt;div style=&quot;font-size: 10.5pt;&quot;&gt;&lt;div style=&quot;font-size: 10.5pt;&quot;&gt;&lt;div style=&quot;font-size: 10.5pt;&quot;&gt;&lt;div style=&quot;font-size: 10.5pt;&quot;&gt;&lt;div style=&quot;font-size: 10.5pt;&quot;&gt;&lt;div style=&quot;font-size: 10.5pt;&quot;&gt;&lt;div style=&quot;font-size: 10.5pt;&quot;&gt;&lt;div style=&quot;font-size: 10.5pt;&quot;&gt;&lt;div style=&quot;font-size: 10.5pt;&quot;&gt;&lt;div style=&quot;&quot;&gt;&lt;div style=&quot;font-size: 10.5pt;&quot;&gt;&lt;div style=&quot;&quot;&gt;&lt;div style=&quot;font-size: 10.5pt;&quot;&gt;&lt;div style=&quot;font-size: 10.5pt;&quot;&gt;&lt;div style=&quot;font-size: 10.5pt;&quot;&gt;&lt;div style=&quot;font-size: 10.5pt;&quot;&gt;&lt;div style=&quot;font-size: 10.5pt;&quot;&gt;&lt;div style=&quot;font-size: 10.5pt;&quot;&gt;&lt;div style=&quot;font-size: 10.5pt;&quot;&gt;&lt;div&gt;&lt;div style=&quot;font-size: 10.5pt;&quot;&gt;FNetControlMessage&lt;span style=&quot;&quot;&gt;&amp;lt;&lt;/span&gt;NMT_Welcome&lt;span style=&quot;&quot;&gt;&amp;gt;&lt;/span&gt;::Send&lt;span style=&quot;&quot;&gt;(&lt;/span&gt;Connection&lt;span style=&quot;&quot;&gt;, &lt;/span&gt;LevelName&lt;span style=&quot;&quot;&gt;, &lt;/span&gt;GameName&lt;span style=&quot;&quot;&gt;, &lt;/span&gt;RedirectURL&lt;span style=&quot;&quot;&gt;)&lt;/span&gt;&lt;/div&gt;&lt;/div&gt;&lt;/div&gt;&lt;/div&gt;&lt;/div&gt;&lt;/div&gt;&lt;/div&gt;&lt;/div&gt;&lt;/div&gt;&lt;/div&gt;&lt;/div&gt;&lt;/div&gt;&lt;/div&gt;&lt;/div&gt;&lt;/div&gt;&lt;/div&gt;&lt;/div&gt;&lt;/div&gt;&lt;/div&gt;&lt;/div&gt;&lt;/div&gt;&lt;/div&gt;&lt;/div&gt;&lt;/div&gt;&lt;/div&gt;" style="rounded=1;whiteSpace=wrap;html=1;align=left;fontFamily=Helvetica;fontColor=#000000;labelBackgroundColor=none;" parent="1" vertex="1">
          <mxGeometry x="2390" y="7480" width="450" height="60" as="geometry" />
        </mxCell>
        <mxCell id="oJ5wStfypiaaaqxFmI3H-151" value="&lt;div style=&quot;&quot;&gt;&lt;div style=&quot;font-size: 10.5pt;&quot;&gt;&lt;div style=&quot;font-size: 10.5pt;&quot;&gt;&lt;div style=&quot;font-size: 10.5pt;&quot;&gt;&lt;div style=&quot;font-size: 10.5pt;&quot;&gt;&lt;div style=&quot;font-size: 10.5pt;&quot;&gt;&lt;div style=&quot;font-size: 10.5pt;&quot;&gt;&lt;div style=&quot;font-size: 10.5pt;&quot;&gt;&lt;div style=&quot;font-size: 10.5pt;&quot;&gt;&lt;div style=&quot;font-size: 10.5pt;&quot;&gt;&lt;div style=&quot;font-size: 10.5pt;&quot;&gt;&lt;div style=&quot;font-size: 10.5pt;&quot;&gt;&lt;div style=&quot;font-size: 10.5pt;&quot;&gt;&lt;div style=&quot;&quot;&gt;&lt;div style=&quot;font-size: 10.5pt;&quot;&gt;&lt;div style=&quot;&quot;&gt;&lt;div style=&quot;font-size: 10.5pt;&quot;&gt;&lt;div style=&quot;font-size: 10.5pt;&quot;&gt;&lt;div&gt;&lt;div style=&quot;font-size: 10.5pt;&quot;&gt;&lt;span style=&quot;&quot;&gt;case &lt;/span&gt;&lt;span style=&quot;&quot;&gt;NMT_Welcome&lt;/span&gt;:&lt;/div&gt;&lt;/div&gt;&lt;/div&gt;&lt;/div&gt;&lt;/div&gt;&lt;/div&gt;&lt;/div&gt;&lt;/div&gt;&lt;/div&gt;&lt;/div&gt;&lt;/div&gt;&lt;/div&gt;&lt;/div&gt;&lt;/div&gt;&lt;/div&gt;&lt;/div&gt;&lt;/div&gt;&lt;/div&gt;&lt;/div&gt;&lt;/div&gt;" style="rounded=1;whiteSpace=wrap;html=1;align=left;fontFamily=Helvetica;fontColor=#000000;labelBackgroundColor=none;" parent="1" vertex="1">
          <mxGeometry x="-460" y="7680" width="450" height="60" as="geometry" />
        </mxCell>
        <mxCell id="oJ5wStfypiaaaqxFmI3H-152" value="&lt;div style=&quot;&quot;&gt;&lt;div style=&quot;font-size: 10.5pt;&quot;&gt;&lt;div style=&quot;font-size: 10.5pt;&quot;&gt;&lt;div style=&quot;font-size: 10.5pt;&quot;&gt;&lt;div style=&quot;font-size: 10.5pt;&quot;&gt;&lt;div style=&quot;font-size: 10.5pt;&quot;&gt;&lt;div style=&quot;font-size: 10.5pt;&quot;&gt;&lt;div style=&quot;font-size: 10.5pt;&quot;&gt;&lt;div style=&quot;font-size: 10.5pt;&quot;&gt;&lt;div style=&quot;font-size: 10.5pt;&quot;&gt;&lt;div style=&quot;font-size: 10.5pt;&quot;&gt;&lt;div style=&quot;font-size: 10.5pt;&quot;&gt;&lt;div style=&quot;font-size: 10.5pt;&quot;&gt;&lt;div style=&quot;&quot;&gt;&lt;div style=&quot;font-size: 10.5pt;&quot;&gt;&lt;div style=&quot;&quot;&gt;&lt;div style=&quot;font-size: 10.5pt;&quot;&gt;&lt;div style=&quot;font-size: 10.5pt;&quot;&gt;&lt;div style=&quot;font-size: 10.5pt;&quot;&gt;&lt;div&gt;&lt;div style=&quot;font-size: 10.5pt;&quot;&gt;&lt;span style=&quot;&quot;&gt;bSuccessfullyConnected &lt;/span&gt;&lt;span style=&quot;&quot;&gt;= &lt;/span&gt;&lt;span style=&quot;&quot;&gt;true&lt;/span&gt;&lt;span style=&quot;&quot;&gt;;&lt;/span&gt;&lt;/div&gt;&lt;/div&gt;&lt;/div&gt;&lt;/div&gt;&lt;/div&gt;&lt;/div&gt;&lt;/div&gt;&lt;/div&gt;&lt;/div&gt;&lt;/div&gt;&lt;/div&gt;&lt;/div&gt;&lt;/div&gt;&lt;/div&gt;&lt;/div&gt;&lt;/div&gt;&lt;/div&gt;&lt;/div&gt;&lt;/div&gt;&lt;/div&gt;&lt;/div&gt;" style="rounded=1;whiteSpace=wrap;html=1;align=left;fontFamily=Helvetica;fontColor=#000000;labelBackgroundColor=none;" parent="1" vertex="1">
          <mxGeometry x="-400" y="7740" width="450" height="60" as="geometry" />
        </mxCell>
        <mxCell id="oJ5wStfypiaaaqxFmI3H-153" value="&lt;div style=&quot;&quot;&gt;&lt;div style=&quot;font-size: 10.5pt;&quot;&gt;&lt;div style=&quot;font-size: 10.5pt;&quot;&gt;&lt;div style=&quot;font-size: 10.5pt;&quot;&gt;&lt;div style=&quot;font-size: 10.5pt;&quot;&gt;&lt;div style=&quot;font-size: 10.5pt;&quot;&gt;&lt;div style=&quot;font-size: 10.5pt;&quot;&gt;&lt;div style=&quot;font-size: 10.5pt;&quot;&gt;&lt;div style=&quot;font-size: 10.5pt;&quot;&gt;&lt;div style=&quot;font-size: 10.5pt;&quot;&gt;&lt;div style=&quot;font-size: 10.5pt;&quot;&gt;&lt;div style=&quot;font-size: 10.5pt;&quot;&gt;&lt;div style=&quot;font-size: 10.5pt;&quot;&gt;&lt;div style=&quot;&quot;&gt;&lt;div style=&quot;font-size: 10.5pt;&quot;&gt;&lt;div style=&quot;&quot;&gt;&lt;div style=&quot;font-size: 10.5pt;&quot;&gt;&lt;div style=&quot;font-size: 10.5pt;&quot;&gt;&lt;div style=&quot;font-size: 10.5pt;&quot;&gt;&lt;div&gt;&lt;div style=&quot;font-size: 10.5pt;&quot;&gt;NetDriver&lt;span style=&quot;&quot;&gt;-&amp;gt;&lt;/span&gt;ServerConnection&lt;span style=&quot;&quot;&gt;-&amp;gt;&lt;/span&gt;FlushNet&lt;span style=&quot;&quot;&gt;();&lt;/span&gt;&lt;/div&gt;&lt;/div&gt;&lt;/div&gt;&lt;/div&gt;&lt;/div&gt;&lt;/div&gt;&lt;/div&gt;&lt;/div&gt;&lt;/div&gt;&lt;/div&gt;&lt;/div&gt;&lt;/div&gt;&lt;/div&gt;&lt;/div&gt;&lt;/div&gt;&lt;/div&gt;&lt;/div&gt;&lt;/div&gt;&lt;/div&gt;&lt;/div&gt;&lt;/div&gt;" style="rounded=1;whiteSpace=wrap;html=1;align=left;fontFamily=Helvetica;fontColor=#000000;labelBackgroundColor=none;" parent="1" vertex="1">
          <mxGeometry x="-400" y="7800" width="450" height="60" as="geometry" />
        </mxCell>
        <mxCell id="oJ5wStfypiaaaqxFmI3H-155" value="&lt;div style=&quot;&quot;&gt;&lt;div style=&quot;font-size: 10.5pt;&quot;&gt;&lt;div style=&quot;font-size: 10.5pt;&quot;&gt;&lt;div style=&quot;font-size: 10.5pt;&quot;&gt;&lt;div style=&quot;font-size: 10.5pt;&quot;&gt;&lt;div style=&quot;font-size: 10.5pt;&quot;&gt;&lt;div style=&quot;&quot;&gt;&lt;div style=&quot;font-size: 10.5pt;&quot;&gt;UPendingNetGame::Tick&lt;/div&gt;&lt;/div&gt;&lt;/div&gt;&lt;/div&gt;&lt;/div&gt;&lt;/div&gt;&lt;/div&gt;&lt;/div&gt;" style="rounded=1;whiteSpace=wrap;html=1;align=left;fontFamily=Helvetica;fontColor=#000000;labelBackgroundColor=none;" parent="1" vertex="1">
          <mxGeometry x="-590" y="7560" width="260" height="60" as="geometry" />
        </mxCell>
        <mxCell id="oJ5wStfypiaaaqxFmI3H-156" value="&lt;div style=&quot;&quot;&gt;&lt;div style=&quot;font-size: 10.5pt;&quot;&gt;&lt;div style=&quot;font-size: 10.5pt;&quot;&gt;&lt;div style=&quot;font-size: 10.5pt;&quot;&gt;&lt;div style=&quot;font-size: 10.5pt;&quot;&gt;&lt;div style=&quot;font-size: 10.5pt;&quot;&gt;&lt;div style=&quot;&quot;&gt;&lt;div style=&quot;font-size: 10.5pt;&quot;&gt;...&lt;/div&gt;&lt;/div&gt;&lt;/div&gt;&lt;/div&gt;&lt;/div&gt;&lt;/div&gt;&lt;/div&gt;&lt;/div&gt;" style="rounded=1;whiteSpace=wrap;html=1;align=left;fontFamily=Helvetica;fontColor=#000000;labelBackgroundColor=none;" parent="1" vertex="1">
          <mxGeometry x="-530" y="7620" width="260" height="60" as="geometry" />
        </mxCell>
        <mxCell id="oJ5wStfypiaaaqxFmI3H-157" value="&lt;div style=&quot;&quot;&gt;&lt;div style=&quot;font-size: 10.5pt;&quot;&gt;&lt;div style=&quot;font-size: 10.5pt;&quot;&gt;&lt;div style=&quot;font-size: 10.5pt;&quot;&gt;&lt;div style=&quot;font-size: 10.5pt;&quot;&gt;&lt;div style=&quot;font-size: 10.5pt;&quot;&gt;&lt;div style=&quot;&quot;&gt;&lt;div style=&quot;font-size: 10.5pt;&quot;&gt;&lt;div&gt;&lt;div style=&quot;font-size: 10.5pt;&quot;&gt;UEngine::TickWorldTravel&lt;/div&gt;&lt;/div&gt;&lt;/div&gt;&lt;/div&gt;&lt;/div&gt;&lt;/div&gt;&lt;/div&gt;&lt;/div&gt;&lt;/div&gt;&lt;/div&gt;" style="rounded=1;whiteSpace=wrap;html=1;align=left;fontFamily=Helvetica;fontColor=#000000;labelBackgroundColor=none;" parent="1" vertex="1">
          <mxGeometry x="-710" y="7440" width="260" height="60" as="geometry" />
        </mxCell>
        <mxCell id="oJ5wStfypiaaaqxFmI3H-158" value="&lt;div style=&quot;&quot;&gt;&lt;div style=&quot;font-size: 10.5pt;&quot;&gt;&lt;div style=&quot;font-size: 10.5pt;&quot;&gt;&lt;div style=&quot;font-size: 10.5pt;&quot;&gt;&lt;div style=&quot;font-size: 10.5pt;&quot;&gt;&lt;div style=&quot;font-size: 10.5pt;&quot;&gt;&lt;div style=&quot;&quot;&gt;&lt;div style=&quot;font-size: 10.5pt;&quot;&gt;&lt;div&gt;&lt;div style=&quot;font-size: 10.5pt;&quot;&gt;&lt;span style=&quot;&quot;&gt;else if &lt;/span&gt;&lt;span style=&quot;&quot;&gt;(&lt;/span&gt;Context&lt;span style=&quot;&quot;&gt;.&lt;/span&gt;PendingNetGame &lt;span style=&quot;&quot;&gt;&amp;amp;&amp;amp; &lt;/span&gt;Context&lt;span style=&quot;&quot;&gt;.&lt;/span&gt;PendingNetGame&lt;span style=&quot;&quot;&gt;-&amp;gt;&lt;/span&gt;bSuccessfullyConnected &lt;span style=&quot;&quot;&gt;&amp;amp;&amp;amp; !&lt;/span&gt;Context&lt;span style=&quot;&quot;&gt;.&lt;/span&gt;PendingNetGame&lt;span style=&quot;&quot;&gt;-&amp;gt;&lt;/span&gt;bSentJoinRequest &lt;span style=&quot;&quot;&gt;&amp;amp;&amp;amp; !&lt;/span&gt;Context&lt;span style=&quot;&quot;&gt;.&lt;/span&gt;PendingNetGame&lt;span style=&quot;&quot;&gt;-&amp;gt;&lt;/span&gt;bLoadedMapSuccessfully &lt;span style=&quot;&quot;&gt;&amp;amp;&amp;amp; (&lt;/span&gt;Context&lt;span style=&quot;&quot;&gt;.&lt;/span&gt;OwningGameInstance &lt;span style=&quot;&quot;&gt;== &lt;/span&gt;NULL &lt;span style=&quot;&quot;&gt;|| !&lt;/span&gt;Context&lt;span style=&quot;&quot;&gt;.&lt;/span&gt;OwningGameInstance&lt;span style=&quot;&quot;&gt;-&amp;gt;&lt;/span&gt;DelayPendingNetGameTravel&lt;span style=&quot;&quot;&gt;()))&lt;/span&gt;&lt;/div&gt;&lt;/div&gt;&lt;/div&gt;&lt;/div&gt;&lt;/div&gt;&lt;/div&gt;&lt;/div&gt;&lt;/div&gt;&lt;/div&gt;&lt;/div&gt;" style="rounded=1;whiteSpace=wrap;html=1;align=left;fontFamily=Helvetica;fontColor=#000000;labelBackgroundColor=none;" parent="1" vertex="1">
          <mxGeometry x="-590" y="7860" width="260" height="60" as="geometry" />
        </mxCell>
        <mxCell id="oJ5wStfypiaaaqxFmI3H-159" value="&lt;div style=&quot;&quot;&gt;&lt;div style=&quot;font-size: 10.5pt;&quot;&gt;&lt;div style=&quot;font-size: 10.5pt;&quot;&gt;&lt;div style=&quot;font-size: 10.5pt;&quot;&gt;&lt;div style=&quot;font-size: 10.5pt;&quot;&gt;&lt;div style=&quot;font-size: 10.5pt;&quot;&gt;&lt;div style=&quot;&quot;&gt;&lt;div style=&quot;font-size: 10.5pt;&quot;&gt;&lt;div style=&quot;font-size: 10.5pt;&quot;&gt;&lt;div&gt;&lt;div style=&quot;font-size: 10.5pt;&quot;&gt;&lt;span style=&quot;&quot;&gt;else if &lt;/span&gt;&lt;span style=&quot;&quot;&gt;(!&lt;/span&gt;&lt;span style=&quot;&quot;&gt;Context&lt;/span&gt;&lt;span style=&quot;&quot;&gt;.&lt;/span&gt;&lt;span style=&quot;&quot;&gt;PendingNetGame&lt;/span&gt;&lt;span style=&quot;&quot;&gt;-&amp;gt;&lt;/span&gt;&lt;span style=&quot;&quot;&gt;bLoadedMapSuccessfully&lt;/span&gt;&lt;span style=&quot;&quot;&gt;)&lt;/span&gt;&lt;/div&gt;&lt;/div&gt;&lt;/div&gt;&lt;/div&gt;&lt;/div&gt;&lt;/div&gt;&lt;/div&gt;&lt;/div&gt;&lt;/div&gt;&lt;/div&gt;&lt;/div&gt;" style="rounded=1;whiteSpace=wrap;html=1;align=left;fontFamily=Helvetica;fontColor=#000000;labelBackgroundColor=none;" parent="1" vertex="1">
          <mxGeometry x="-530" y="7920" width="260" height="60" as="geometry" />
        </mxCell>
        <mxCell id="oJ5wStfypiaaaqxFmI3H-160" value="&lt;div style=&quot;&quot;&gt;&lt;div style=&quot;font-size: 10.5pt;&quot;&gt;&lt;div style=&quot;font-size: 10.5pt;&quot;&gt;&lt;div style=&quot;font-size: 10.5pt;&quot;&gt;&lt;div style=&quot;font-size: 10.5pt;&quot;&gt;&lt;div style=&quot;font-size: 10.5pt;&quot;&gt;&lt;div style=&quot;&quot;&gt;&lt;div style=&quot;font-size: 10.5pt;&quot;&gt;&lt;div style=&quot;font-size: 10.5pt;&quot;&gt;&lt;div style=&quot;font-size: 10.5pt;&quot;&gt;&lt;div&gt;&lt;div style=&quot;font-size: 10.5pt;&quot;&gt;&lt;span style=&quot;&quot;&gt;const bool &lt;/span&gt;bLoadedMapSuccessfully &lt;span style=&quot;&quot;&gt;= &lt;/span&gt;LoadMap&lt;span style=&quot;&quot;&gt;(&lt;/span&gt;Context&lt;span style=&quot;&quot;&gt;, &lt;/span&gt;Context&lt;span style=&quot;&quot;&gt;.&lt;/span&gt;PendingNetGame&lt;span style=&quot;&quot;&gt;-&amp;gt;&lt;/span&gt;URL&lt;span style=&quot;&quot;&gt;, &lt;/span&gt;Context&lt;span style=&quot;&quot;&gt;.&lt;/span&gt;PendingNetGame&lt;span style=&quot;&quot;&gt;, &lt;/span&gt;Error&lt;span style=&quot;&quot;&gt;);&lt;/span&gt;&lt;/div&gt;&lt;/div&gt;&lt;/div&gt;&lt;/div&gt;&lt;/div&gt;&lt;/div&gt;&lt;/div&gt;&lt;/div&gt;&lt;/div&gt;&lt;/div&gt;&lt;/div&gt;&lt;/div&gt;" style="rounded=1;whiteSpace=wrap;html=1;align=left;fontFamily=Helvetica;fontColor=#000000;labelBackgroundColor=none;" parent="1" vertex="1">
          <mxGeometry x="-470" y="7980" width="260" height="60" as="geometry" />
        </mxCell>
        <mxCell id="oJ5wStfypiaaaqxFmI3H-161" value="&lt;div style=&quot;&quot;&gt;&lt;div style=&quot;font-size: 10.5pt;&quot;&gt;&lt;div style=&quot;font-size: 10.5pt;&quot;&gt;&lt;div style=&quot;font-size: 10.5pt;&quot;&gt;&lt;div style=&quot;font-size: 10.5pt;&quot;&gt;&lt;div style=&quot;font-size: 10.5pt;&quot;&gt;&lt;div style=&quot;&quot;&gt;&lt;div style=&quot;font-size: 10.5pt;&quot;&gt;&lt;div style=&quot;font-size: 10.5pt;&quot;&gt;&lt;div style=&quot;font-size: 10.5pt;&quot;&gt;&lt;div style=&quot;font-size: 10.5pt;&quot;&gt;&lt;div&gt;&lt;div style=&quot;font-size: 10.5pt;&quot;&gt;Context&lt;span style=&quot;&quot;&gt;.&lt;/span&gt;PendingNetGame&lt;span style=&quot;&quot;&gt;-&amp;gt;&lt;/span&gt;LoadMapCompleted&lt;span style=&quot;&quot;&gt;(&lt;/span&gt;this&lt;span style=&quot;&quot;&gt;, &lt;/span&gt;Context&lt;span style=&quot;&quot;&gt;, &lt;/span&gt;bLoadedMapSuccessfully&lt;span style=&quot;&quot;&gt;, &lt;/span&gt;Error&lt;span style=&quot;&quot;&gt;)&lt;/span&gt;&lt;/div&gt;&lt;/div&gt;&lt;/div&gt;&lt;/div&gt;&lt;/div&gt;&lt;/div&gt;&lt;/div&gt;&lt;/div&gt;&lt;/div&gt;&lt;/div&gt;&lt;/div&gt;&lt;/div&gt;&lt;/div&gt;" style="rounded=1;whiteSpace=wrap;html=1;align=left;fontFamily=Helvetica;fontColor=#000000;labelBackgroundColor=none;" parent="1" vertex="1">
          <mxGeometry x="-470" y="8040" width="260" height="60" as="geometry" />
        </mxCell>
        <mxCell id="oJ5wStfypiaaaqxFmI3H-162" value="&lt;div style=&quot;&quot;&gt;&lt;div style=&quot;font-size: 10.5pt;&quot;&gt;&lt;div style=&quot;font-size: 10.5pt;&quot;&gt;&lt;div style=&quot;font-size: 10.5pt;&quot;&gt;&lt;div style=&quot;font-size: 10.5pt;&quot;&gt;&lt;div style=&quot;font-size: 10.5pt;&quot;&gt;&lt;div style=&quot;&quot;&gt;&lt;div style=&quot;font-size: 10.5pt;&quot;&gt;&lt;div style=&quot;font-size: 10.5pt;&quot;&gt;&lt;div style=&quot;font-size: 10.5pt;&quot;&gt;&lt;div style=&quot;font-size: 10.5pt;&quot;&gt;&lt;div style=&quot;font-size: 10.5pt;&quot;&gt;&lt;div&gt;&lt;div style=&quot;font-size: 10.5pt;&quot;&gt;&lt;span style=&quot;&quot;&gt;bLoadedMapSuccessfully &lt;/span&gt;&lt;span style=&quot;&quot;&gt;= &lt;/span&gt;&lt;span style=&quot;&quot;&gt;bInLoadedMapSuccessfully&lt;/span&gt;&lt;span style=&quot;&quot;&gt;;&lt;/span&gt;&lt;/div&gt;&lt;/div&gt;&lt;/div&gt;&lt;/div&gt;&lt;/div&gt;&lt;/div&gt;&lt;/div&gt;&lt;/div&gt;&lt;/div&gt;&lt;/div&gt;&lt;/div&gt;&lt;/div&gt;&lt;/div&gt;&lt;/div&gt;" style="rounded=1;whiteSpace=wrap;html=1;align=left;fontFamily=Helvetica;fontColor=#000000;labelBackgroundColor=none;" parent="1" vertex="1">
          <mxGeometry x="-416" y="8100" width="260" height="60" as="geometry" />
        </mxCell>
        <mxCell id="oJ5wStfypiaaaqxFmI3H-163" value="&lt;div style=&quot;&quot;&gt;&lt;div style=&quot;font-size: 10.5pt;&quot;&gt;&lt;div style=&quot;font-size: 10.5pt;&quot;&gt;&lt;div style=&quot;font-size: 10.5pt;&quot;&gt;&lt;div style=&quot;font-size: 10.5pt;&quot;&gt;&lt;div style=&quot;font-size: 10.5pt;&quot;&gt;&lt;div style=&quot;&quot;&gt;&lt;div style=&quot;font-size: 10.5pt;&quot;&gt;&lt;div style=&quot;font-size: 10.5pt;&quot;&gt;&lt;div&gt;&lt;div style=&quot;font-size: 10.5pt;&quot;&gt;&lt;span style=&quot;&quot;&gt;if&lt;/span&gt;&lt;span style=&quot;&quot;&gt;( &lt;/span&gt;&lt;span style=&quot;&quot;&gt;Context&lt;/span&gt;&lt;span style=&quot;&quot;&gt;.&lt;/span&gt;&lt;span style=&quot;&quot;&gt;PendingNetGame &lt;/span&gt;&lt;span style=&quot;&quot;&gt;)&lt;/span&gt;&lt;/div&gt;&lt;/div&gt;&lt;/div&gt;&lt;/div&gt;&lt;/div&gt;&lt;/div&gt;&lt;/div&gt;&lt;/div&gt;&lt;/div&gt;&lt;/div&gt;&lt;/div&gt;" style="rounded=1;whiteSpace=wrap;html=1;align=left;fontFamily=Helvetica;fontColor=#000000;labelBackgroundColor=none;" parent="1" vertex="1">
          <mxGeometry x="-660" y="7500" width="260" height="60" as="geometry" />
        </mxCell>
        <mxCell id="oJ5wStfypiaaaqxFmI3H-164" value="&lt;div style=&quot;&quot;&gt;&lt;div style=&quot;font-size: 10.5pt;&quot;&gt;&lt;div style=&quot;font-size: 10.5pt;&quot;&gt;&lt;div style=&quot;font-size: 10.5pt;&quot;&gt;&lt;div style=&quot;font-size: 10.5pt;&quot;&gt;&lt;div style=&quot;font-size: 10.5pt;&quot;&gt;&lt;div style=&quot;&quot;&gt;&lt;div style=&quot;font-size: 10.5pt;&quot;&gt;&lt;div&gt;&lt;div style=&quot;font-size: 10.5pt;&quot;&gt;&lt;span style=&quot;&quot;&gt;if &lt;/span&gt;&lt;span style=&quot;&quot;&gt;(&lt;/span&gt;Context&lt;span style=&quot;&quot;&gt;.&lt;/span&gt;PendingNetGame &lt;span style=&quot;&quot;&gt;&amp;amp;&amp;amp; &lt;/span&gt;Context&lt;span style=&quot;&quot;&gt;.&lt;/span&gt;PendingNetGame&lt;span style=&quot;&quot;&gt;-&amp;gt;&lt;/span&gt;bLoadedMapSuccessfully &lt;span style=&quot;&quot;&gt;&amp;amp;&amp;amp; (&lt;/span&gt;Context&lt;span style=&quot;&quot;&gt;.&lt;/span&gt;OwningGameInstance &lt;span style=&quot;&quot;&gt;== &lt;/span&gt;NULL &lt;span style=&quot;&quot;&gt;|| !&lt;/span&gt;Context&lt;span style=&quot;&quot;&gt;.&lt;/span&gt;OwningGameInstance&lt;span style=&quot;&quot;&gt;-&amp;gt;&lt;/span&gt;DelayCompletionOfPendingNetGameTravel&lt;span style=&quot;&quot;&gt;()))&lt;/span&gt;&lt;/div&gt;&lt;/div&gt;&lt;/div&gt;&lt;/div&gt;&lt;/div&gt;&lt;/div&gt;&lt;/div&gt;&lt;/div&gt;&lt;/div&gt;&lt;/div&gt;" style="rounded=1;whiteSpace=wrap;html=1;align=left;fontFamily=Helvetica;fontColor=#000000;labelBackgroundColor=none;" parent="1" vertex="1">
          <mxGeometry x="-590" y="8160" width="260" height="60" as="geometry" />
        </mxCell>
        <mxCell id="oJ5wStfypiaaaqxFmI3H-165" value="&lt;div style=&quot;&quot;&gt;&lt;div style=&quot;font-size: 10.5pt;&quot;&gt;&lt;div style=&quot;font-size: 10.5pt;&quot;&gt;&lt;div style=&quot;font-size: 10.5pt;&quot;&gt;&lt;div style=&quot;font-size: 10.5pt;&quot;&gt;&lt;div style=&quot;font-size: 10.5pt;&quot;&gt;&lt;div style=&quot;&quot;&gt;&lt;div style=&quot;font-size: 10.5pt;&quot;&gt;&lt;div style=&quot;font-size: 10.5pt;&quot;&gt;&lt;div&gt;&lt;div style=&quot;font-size: 10.5pt;&quot;&gt;&lt;span style=&quot;&quot;&gt;if &lt;/span&gt;&lt;span style=&quot;&quot;&gt;(!&lt;/span&gt;&lt;span style=&quot;&quot;&gt;Context&lt;/span&gt;&lt;span style=&quot;&quot;&gt;.&lt;/span&gt;&lt;span style=&quot;&quot;&gt;PendingNetGame&lt;/span&gt;&lt;span style=&quot;&quot;&gt;-&amp;gt;HasFailedTravel&lt;/span&gt;&lt;span style=&quot;&quot;&gt;() )&lt;/span&gt;&lt;/div&gt;&lt;/div&gt;&lt;/div&gt;&lt;/div&gt;&lt;/div&gt;&lt;/div&gt;&lt;/div&gt;&lt;/div&gt;&lt;/div&gt;&lt;/div&gt;&lt;/div&gt;" style="rounded=1;whiteSpace=wrap;html=1;align=left;fontFamily=Helvetica;fontColor=#000000;labelBackgroundColor=none;" parent="1" vertex="1">
          <mxGeometry x="-542" y="8220" width="260" height="60" as="geometry" />
        </mxCell>
        <mxCell id="oJ5wStfypiaaaqxFmI3H-166" value="&lt;div style=&quot;&quot;&gt;&lt;div style=&quot;font-size: 10.5pt;&quot;&gt;&lt;div style=&quot;font-size: 10.5pt;&quot;&gt;&lt;div style=&quot;font-size: 10.5pt;&quot;&gt;&lt;div style=&quot;font-size: 10.5pt;&quot;&gt;&lt;div style=&quot;font-size: 10.5pt;&quot;&gt;&lt;div style=&quot;&quot;&gt;&lt;div style=&quot;font-size: 10.5pt;&quot;&gt;&lt;div style=&quot;font-size: 10.5pt;&quot;&gt;&lt;div&gt;&lt;div style=&quot;font-size: 10.5pt;&quot;&gt;&lt;span style=&quot;&quot;&gt;if &lt;/span&gt;&lt;span style=&quot;&quot;&gt;(!&lt;/span&gt;&lt;span style=&quot;&quot;&gt;Context&lt;/span&gt;&lt;span style=&quot;&quot;&gt;.&lt;/span&gt;&lt;span style=&quot;&quot;&gt;PendingNetGame&lt;/span&gt;&lt;span style=&quot;&quot;&gt;-&amp;gt;HasFailedTravel&lt;/span&gt;&lt;span style=&quot;&quot;&gt;() )&lt;/span&gt;&lt;/div&gt;&lt;/div&gt;&lt;/div&gt;&lt;/div&gt;&lt;/div&gt;&lt;/div&gt;&lt;/div&gt;&lt;/div&gt;&lt;/div&gt;&lt;/div&gt;&lt;/div&gt;" style="rounded=1;whiteSpace=wrap;html=1;align=left;fontFamily=Helvetica;fontColor=#000000;labelBackgroundColor=none;" parent="1" vertex="1">
          <mxGeometry x="-487" y="8280" width="260" height="60" as="geometry" />
        </mxCell>
        <mxCell id="oJ5wStfypiaaaqxFmI3H-167" value="&lt;div style=&quot;&quot;&gt;&lt;div style=&quot;font-size: 10.5pt;&quot;&gt;&lt;div style=&quot;font-size: 10.5pt;&quot;&gt;&lt;div style=&quot;font-size: 10.5pt;&quot;&gt;&lt;div style=&quot;font-size: 10.5pt;&quot;&gt;&lt;div style=&quot;font-size: 10.5pt;&quot;&gt;&lt;div style=&quot;&quot;&gt;&lt;div style=&quot;font-size: 10.5pt;&quot;&gt;&lt;div style=&quot;font-size: 10.5pt;&quot;&gt;&lt;div style=&quot;font-size: 10.5pt;&quot;&gt;&lt;div&gt;&lt;div style=&quot;font-size: 10.5pt;&quot;&gt;&lt;span style=&quot;&quot;&gt;Context&lt;/span&gt;&lt;span style=&quot;&quot;&gt;.&lt;/span&gt;&lt;span style=&quot;&quot;&gt;PendingNetGame&lt;/span&gt;&lt;span style=&quot;&quot;&gt;-&amp;gt;TravelCompleted&lt;/span&gt;&lt;span style=&quot;&quot;&gt;(&lt;/span&gt;&lt;span style=&quot;&quot;&gt;this&lt;/span&gt;&lt;span style=&quot;&quot;&gt;, &lt;/span&gt;&lt;span style=&quot;&quot;&gt;Context&lt;/span&gt;&lt;span style=&quot;&quot;&gt;);&lt;/span&gt;&lt;/div&gt;&lt;/div&gt;&lt;/div&gt;&lt;/div&gt;&lt;/div&gt;&lt;/div&gt;&lt;/div&gt;&lt;/div&gt;&lt;/div&gt;&lt;/div&gt;&lt;/div&gt;&lt;/div&gt;" style="rounded=1;whiteSpace=wrap;html=1;align=left;fontFamily=Helvetica;fontColor=#000000;labelBackgroundColor=none;" parent="1" vertex="1">
          <mxGeometry x="-420" y="8340" width="260" height="60" as="geometry" />
        </mxCell>
        <mxCell id="oJ5wStfypiaaaqxFmI3H-168" value="&lt;div style=&quot;&quot;&gt;&lt;div style=&quot;font-size: 10.5pt;&quot;&gt;&lt;div style=&quot;font-size: 10.5pt;&quot;&gt;&lt;div style=&quot;font-size: 10.5pt;&quot;&gt;&lt;div style=&quot;font-size: 10.5pt;&quot;&gt;&lt;div style=&quot;font-size: 10.5pt;&quot;&gt;&lt;div style=&quot;&quot;&gt;&lt;div style=&quot;font-size: 10.5pt;&quot;&gt;&lt;div style=&quot;font-size: 10.5pt;&quot;&gt;&lt;div style=&quot;font-size: 10.5pt;&quot;&gt;&lt;div style=&quot;font-size: 10.5pt;&quot;&gt;&lt;div&gt;&lt;div style=&quot;font-size: 10.5pt;&quot;&gt;&lt;span style=&quot;&quot;&gt;Context&lt;/span&gt;&lt;span style=&quot;&quot;&gt;.&lt;/span&gt;&lt;span style=&quot;&quot;&gt;PendingNetGame&lt;/span&gt;&lt;span style=&quot;&quot;&gt;-&amp;gt;SendJoin&lt;/span&gt;&lt;span style=&quot;&quot;&gt;();&lt;/span&gt;&lt;/div&gt;&lt;/div&gt;&lt;/div&gt;&lt;/div&gt;&lt;/div&gt;&lt;/div&gt;&lt;/div&gt;&lt;/div&gt;&lt;/div&gt;&lt;/div&gt;&lt;/div&gt;&lt;/div&gt;&lt;/div&gt;" style="rounded=1;whiteSpace=wrap;html=1;align=left;fontFamily=Helvetica;fontColor=#000000;labelBackgroundColor=none;" parent="1" vertex="1">
          <mxGeometry x="-355" y="8400" width="260" height="60" as="geometry" />
        </mxCell>
        <mxCell id="oJ5wStfypiaaaqxFmI3H-178" style="rounded=0;orthogonalLoop=1;jettySize=auto;html=1;entryX=0;entryY=0.5;entryDx=0;entryDy=0;fontFamily=Helvetica;fontColor=#000000;labelBackgroundColor=none;" parent="1" source="oJ5wStfypiaaaqxFmI3H-169" target="oJ5wStfypiaaaqxFmI3H-174" edge="1">
          <mxGeometry relative="1" as="geometry" />
        </mxCell>
        <mxCell id="S93yyvXEkiN3lrwmMDB--10" value="发送NMT_Join" style="edgeLabel;html=1;align=center;verticalAlign=middle;resizable=0;points=[];fontFamily=Helvetica;fontColor=#000000;labelBackgroundColor=none;" parent="oJ5wStfypiaaaqxFmI3H-178" vertex="1" connectable="0">
          <mxGeometry x="0.0704" y="1" relative="1" as="geometry">
            <mxPoint as="offset" />
          </mxGeometry>
        </mxCell>
        <mxCell id="oJ5wStfypiaaaqxFmI3H-169" value="&lt;div style=&quot;&quot;&gt;&lt;div style=&quot;font-size: 10.5pt;&quot;&gt;&lt;div style=&quot;font-size: 10.5pt;&quot;&gt;&lt;div style=&quot;font-size: 10.5pt;&quot;&gt;&lt;div style=&quot;font-size: 10.5pt;&quot;&gt;&lt;div style=&quot;font-size: 10.5pt;&quot;&gt;&lt;div style=&quot;&quot;&gt;&lt;div style=&quot;font-size: 10.5pt;&quot;&gt;&lt;div style=&quot;font-size: 10.5pt;&quot;&gt;&lt;div style=&quot;font-size: 10.5pt;&quot;&gt;&lt;div style=&quot;font-size: 10.5pt;&quot;&gt;&lt;div style=&quot;font-size: 10.5pt;&quot;&gt;&lt;div&gt;&lt;div style=&quot;font-size: 10.5pt;&quot;&gt;&lt;span style=&quot;&quot;&gt;FNetControlMessage&lt;/span&gt;&lt;span style=&quot;&quot;&gt;&amp;lt;&lt;/span&gt;&lt;span style=&quot;&quot;&gt;NMT_Join&lt;/span&gt;&lt;span style=&quot;&quot;&gt;&amp;gt;&lt;/span&gt;::&lt;span style=&quot;&quot;&gt;Send&lt;/span&gt;&lt;span style=&quot;&quot;&gt;(&lt;/span&gt;&lt;span style=&quot;&quot;&gt;NetDriver&lt;/span&gt;&lt;span style=&quot;&quot;&gt;-&amp;gt;&lt;/span&gt;&lt;span style=&quot;&quot;&gt;ServerConnection&lt;/span&gt;&lt;span style=&quot;&quot;&gt;);&lt;/span&gt;&lt;/div&gt;&lt;/div&gt;&lt;/div&gt;&lt;/div&gt;&lt;/div&gt;&lt;/div&gt;&lt;/div&gt;&lt;/div&gt;&lt;/div&gt;&lt;/div&gt;&lt;/div&gt;&lt;/div&gt;&lt;/div&gt;&lt;/div&gt;" style="rounded=1;whiteSpace=wrap;html=1;align=left;fontFamily=Helvetica;fontColor=#000000;labelBackgroundColor=none;" parent="1" vertex="1">
          <mxGeometry x="-290" y="8460" width="260" height="60" as="geometry" />
        </mxCell>
        <mxCell id="oJ5wStfypiaaaqxFmI3H-170" value="&lt;div style=&quot;&quot;&gt;&lt;div style=&quot;font-size: 10.5pt;&quot;&gt;&lt;div style=&quot;font-size: 10.5pt;&quot;&gt;&lt;div style=&quot;font-size: 10.5pt;&quot;&gt;&lt;div style=&quot;font-size: 10.5pt;&quot;&gt;&lt;div style=&quot;font-size: 10.5pt;&quot;&gt;&lt;div style=&quot;font-size: 10.5pt;&quot;&gt;&lt;div style=&quot;font-size: 10.5pt;&quot;&gt;&lt;div style=&quot;font-size: 10.5pt;&quot;&gt;&lt;div style=&quot;font-size: 10.5pt;&quot;&gt;&lt;div style=&quot;font-size: 10.5pt;&quot;&gt;&lt;div style=&quot;font-size: 10.5pt;&quot;&gt;&lt;div style=&quot;font-size: 10.5pt;&quot;&gt;&lt;div style=&quot;&quot;&gt;&lt;div style=&quot;font-size: 10.5pt;&quot;&gt;&lt;div style=&quot;&quot;&gt;&lt;div style=&quot;font-size: 10.5pt;&quot;&gt;&lt;div style=&quot;font-size: 10.5pt;&quot;&gt;&lt;div style=&quot;font-size: 10.5pt;&quot;&gt;&lt;div&gt;&lt;div style=&quot;font-size: 10.5pt;&quot;&gt;&lt;span style=&quot;&quot;&gt;case &lt;/span&gt;&lt;span style=&quot;&quot;&gt;NMT_Join&lt;/span&gt;:&lt;/div&gt;&lt;/div&gt;&lt;/div&gt;&lt;/div&gt;&lt;/div&gt;&lt;/div&gt;&lt;/div&gt;&lt;/div&gt;&lt;/div&gt;&lt;/div&gt;&lt;/div&gt;&lt;/div&gt;&lt;/div&gt;&lt;/div&gt;&lt;/div&gt;&lt;/div&gt;&lt;/div&gt;&lt;/div&gt;&lt;/div&gt;&lt;/div&gt;&lt;/div&gt;" style="rounded=1;whiteSpace=wrap;html=1;align=left;fontFamily=Helvetica;fontColor=#000000;labelBackgroundColor=none;" parent="1" vertex="1">
          <mxGeometry x="1170" y="8680" width="450" height="60" as="geometry" />
        </mxCell>
        <mxCell id="oJ5wStfypiaaaqxFmI3H-171" value="&lt;div style=&quot;&quot;&gt;&lt;div style=&quot;font-size: 10.5pt;&quot;&gt;&lt;span style=&quot;&quot;&gt;Connection&lt;/span&gt;&lt;span style=&quot;&quot;&gt;-&amp;gt;&lt;/span&gt;&lt;span style=&quot;&quot;&gt;PlayerController &lt;/span&gt;&lt;span style=&quot;&quot;&gt;= SpawnPlayActor&lt;/span&gt;&lt;span style=&quot;&quot;&gt;( &lt;/span&gt;&lt;span style=&quot;&quot;&gt;Connection&lt;/span&gt;&lt;span style=&quot;&quot;&gt;, &lt;/span&gt;&lt;span style=&quot;&quot;&gt;ROLE_AutonomousProxy&lt;/span&gt;&lt;span style=&quot;&quot;&gt;, InURL, &lt;/span&gt;&lt;span style=&quot;&quot;&gt;Connection&lt;/span&gt;&lt;span style=&quot;&quot;&gt;-&amp;gt;&lt;/span&gt;&lt;span style=&quot;&quot;&gt;PlayerId&lt;/span&gt;&lt;span style=&quot;&quot;&gt;, ErrorMsg );&lt;br&gt;&lt;/span&gt;&lt;/div&gt;&lt;/div&gt;" style="rounded=1;whiteSpace=wrap;html=1;align=left;fontFamily=Helvetica;fontColor=#000000;labelBackgroundColor=none;" parent="1" vertex="1">
          <mxGeometry x="1240" y="8740" width="450" height="60" as="geometry" />
        </mxCell>
        <mxCell id="oJ5wStfypiaaaqxFmI3H-172" value="&lt;div style=&quot;&quot;&gt;&lt;div style=&quot;font-size: 10.5pt;&quot;&gt;&lt;div style=&quot;font-size: 10.5pt;&quot;&gt;&lt;div style=&quot;font-size: 10.5pt;&quot;&gt;&lt;div style=&quot;font-size: 10.5pt;&quot;&gt;&lt;div style=&quot;font-size: 10.5pt;&quot;&gt;&lt;div style=&quot;font-size: 10.5pt;&quot;&gt;&lt;div style=&quot;font-size: 10.5pt;&quot;&gt;&lt;div style=&quot;font-size: 10.5pt;&quot;&gt;&lt;div style=&quot;font-size: 10.5pt;&quot;&gt;&lt;div style=&quot;font-size: 10.5pt;&quot;&gt;&lt;div style=&quot;font-size: 10.5pt;&quot;&gt;&lt;div style=&quot;font-size: 10.5pt;&quot;&gt;&lt;div style=&quot;&quot;&gt;&lt;div style=&quot;font-size: 10.5pt;&quot;&gt;&lt;div style=&quot;&quot;&gt;&lt;div style=&quot;font-size: 10.5pt;&quot;&gt;&lt;div style=&quot;font-size: 10.5pt;&quot;&gt;&lt;div style=&quot;font-size: 10.5pt;&quot;&gt;&lt;div style=&quot;font-size: 10.5pt;&quot;&gt;&lt;div style=&quot;font-size: 10.5pt;&quot;&gt;&lt;div&gt;&lt;div style=&quot;font-size: 10.5pt;&quot;&gt;&lt;span style=&quot;&quot;&gt;else &lt;/span&gt;&lt;span style=&quot;&quot;&gt;(&lt;/span&gt;&lt;span style=&quot;&quot;&gt;Connection&lt;/span&gt;&lt;span style=&quot;&quot;&gt;-&amp;gt;&lt;/span&gt;&lt;span style=&quot;&quot;&gt;PlayerController &lt;/span&gt;&lt;span style=&quot;&quot;&gt;== &lt;/span&gt;&lt;span style=&quot;&quot;&gt;NULL&lt;/span&gt;&lt;span style=&quot;&quot;&gt;)&lt;/span&gt;&lt;/div&gt;&lt;/div&gt;&lt;/div&gt;&lt;/div&gt;&lt;/div&gt;&lt;/div&gt;&lt;/div&gt;&lt;/div&gt;&lt;/div&gt;&lt;/div&gt;&lt;/div&gt;&lt;/div&gt;&lt;/div&gt;&lt;/div&gt;&lt;/div&gt;&lt;/div&gt;&lt;/div&gt;&lt;/div&gt;&lt;/div&gt;&lt;/div&gt;&lt;/div&gt;&lt;/div&gt;&lt;/div&gt;" style="rounded=1;whiteSpace=wrap;html=1;align=left;fontFamily=Helvetica;fontColor=#000000;labelBackgroundColor=none;" parent="1" vertex="1">
          <mxGeometry x="1310" y="8800" width="450" height="60" as="geometry" />
        </mxCell>
        <mxCell id="oJ5wStfypiaaaqxFmI3H-173" value="&lt;div style=&quot;&quot;&gt;&lt;div style=&quot;font-size: 10.5pt;&quot;&gt;&lt;div style=&quot;font-size: 10.5pt;&quot;&gt;&lt;div style=&quot;font-size: 10.5pt;&quot;&gt;&lt;div style=&quot;font-size: 10.5pt;&quot;&gt;&lt;div style=&quot;font-size: 10.5pt;&quot;&gt;&lt;div style=&quot;font-size: 10.5pt;&quot;&gt;&lt;div style=&quot;font-size: 10.5pt;&quot;&gt;&lt;div style=&quot;font-size: 10.5pt;&quot;&gt;&lt;div style=&quot;font-size: 10.5pt;&quot;&gt;&lt;div style=&quot;font-size: 10.5pt;&quot;&gt;&lt;div style=&quot;font-size: 10.5pt;&quot;&gt;&lt;div style=&quot;font-size: 10.5pt;&quot;&gt;&lt;div style=&quot;&quot;&gt;&lt;div style=&quot;font-size: 10.5pt;&quot;&gt;&lt;div style=&quot;&quot;&gt;&lt;div style=&quot;font-size: 10.5pt;&quot;&gt;&lt;div style=&quot;font-size: 10.5pt;&quot;&gt;&lt;div style=&quot;font-size: 10.5pt;&quot;&gt;&lt;div style=&quot;font-size: 10.5pt;&quot;&gt;&lt;div style=&quot;font-size: 10.5pt;&quot;&gt;&lt;div style=&quot;font-size: 10.5pt;&quot;&gt;&lt;div&gt;&lt;div style=&quot;font-size: 10.5pt;&quot;&gt;&lt;span style=&quot;&quot;&gt;Connection&lt;/span&gt;&lt;span style=&quot;&quot;&gt;-&amp;gt;&lt;/span&gt;&lt;span style=&quot;&quot;&gt;PlayerController&lt;/span&gt;&lt;span style=&quot;&quot;&gt;-&amp;gt;ClientTravel&lt;/span&gt;&lt;span style=&quot;&quot;&gt;(LevelName, &lt;/span&gt;&lt;span style=&quot;&quot;&gt;TRAVEL_Relative&lt;/span&gt;&lt;span style=&quot;&quot;&gt;, &lt;/span&gt;&lt;span style=&quot;&quot;&gt;true&lt;/span&gt;&lt;span style=&quot;&quot;&gt;);&lt;br&gt;&lt;/span&gt;&lt;/div&gt;&lt;/div&gt;&lt;/div&gt;&lt;/div&gt;&lt;/div&gt;&lt;/div&gt;&lt;/div&gt;&lt;/div&gt;&lt;/div&gt;&lt;/div&gt;&lt;/div&gt;&lt;/div&gt;&lt;/div&gt;&lt;/div&gt;&lt;/div&gt;&lt;/div&gt;&lt;/div&gt;&lt;/div&gt;&lt;/div&gt;&lt;/div&gt;&lt;/div&gt;&lt;/div&gt;&lt;/div&gt;&lt;/div&gt;" style="rounded=1;whiteSpace=wrap;html=1;align=left;fontFamily=Helvetica;fontColor=#000000;labelBackgroundColor=none;" parent="1" vertex="1">
          <mxGeometry x="1380" y="8860" width="450" height="60" as="geometry" />
        </mxCell>
        <mxCell id="oJ5wStfypiaaaqxFmI3H-174" value="&lt;div style=&quot;&quot;&gt;&lt;div style=&quot;font-size: 10.5pt;&quot;&gt;&lt;div style=&quot;font-size: 10.5pt;&quot;&gt;&lt;div style=&quot;font-size: 10.5pt;&quot;&gt;&lt;div style=&quot;font-size: 10.5pt;&quot;&gt;&lt;div&gt;&lt;div style=&quot;font-size: 10.5pt;&quot;&gt;&lt;span style=&quot;&quot;&gt;UIpNetDriver&lt;/span&gt;::&lt;span style=&quot;&quot;&gt;TickDispatch&lt;/span&gt;&lt;/div&gt;&lt;/div&gt;&lt;/div&gt;&lt;/div&gt;&lt;/div&gt;&lt;/div&gt;&lt;/div&gt;" style="rounded=1;whiteSpace=wrap;html=1;align=left;fontFamily=Helvetica;fontColor=#000000;labelBackgroundColor=none;" parent="1" vertex="1">
          <mxGeometry x="1080" y="8620" width="260" height="60" as="geometry" />
        </mxCell>
        <mxCell id="EVZz7WK3kGUIYtO4toiv-4" style="rounded=0;orthogonalLoop=1;jettySize=auto;html=1;dashed=1;fontFamily=Helvetica;fontColor=#000000;labelBackgroundColor=none;" edge="1" parent="1" source="EVZz7WK3kGUIYtO4toiv-1" target="EVZz7WK3kGUIYtO4toiv-10">
          <mxGeometry relative="1" as="geometry" />
        </mxCell>
        <mxCell id="EVZz7WK3kGUIYtO4toiv-1" value="&lt;div style=&quot;&quot;&gt;&lt;div style=&quot;font-size: 10.5pt;&quot;&gt;&lt;div style=&quot;font-size: 10.5pt;&quot;&gt;&lt;div style=&quot;font-size: 10.5pt;&quot;&gt;&lt;div style=&quot;font-size: 10.5pt;&quot;&gt;&lt;div style=&quot;font-size: 10.5pt;&quot;&gt;&lt;div style=&quot;font-size: 10.5pt;&quot;&gt;&lt;div style=&quot;&quot;&gt;&lt;div style=&quot;font-size: 10.5pt;&quot;&gt;&lt;div style=&quot;&quot;&gt;&lt;div style=&quot;font-size: 9.8pt;&quot;&gt;&lt;font&gt;// 发送不出去，因为Socket还没创建&lt;/font&gt;&lt;/div&gt;&lt;div style=&quot;font-size: 9.8pt;&quot;&gt;&lt;span style=&quot;&quot;&gt;if &lt;/span&gt;&lt;span style=&quot;&quot;&gt;(&lt;/span&gt;&lt;span style=&quot;&quot;&gt;Driver&lt;/span&gt;&lt;span style=&quot;&quot;&gt;-&amp;gt;&lt;/span&gt;&lt;span style=&quot;&quot;&gt;IsNetResourceValid&lt;/span&gt;&lt;span style=&quot;&quot;&gt;())&lt;/span&gt;&lt;/div&gt;&lt;/div&gt;&lt;/div&gt;&lt;/div&gt;&lt;/div&gt;&lt;/div&gt;&lt;/div&gt;&lt;/div&gt;&lt;/div&gt;&lt;/div&gt;&lt;/div&gt;" style="rounded=1;whiteSpace=wrap;html=1;align=left;fontFamily=Helvetica;fontColor=#000000;labelBackgroundColor=none;" vertex="1" parent="1">
          <mxGeometry x="-320" y="1100" width="342" height="60" as="geometry" />
        </mxCell>
        <mxCell id="EVZz7WK3kGUIYtO4toiv-3" value="&lt;div style=&quot;&quot;&gt;&lt;div style=&quot;font-size: 10.5pt;&quot;&gt;&lt;div style=&quot;font-size: 10.5pt;&quot;&gt;&lt;div style=&quot;font-size: 10.5pt;&quot;&gt;&lt;div style=&quot;font-size: 10.5pt;&quot;&gt;&lt;div style=&quot;&quot;&gt;&lt;div style=&quot;font-size: 9.8pt;&quot;&gt;&lt;span style=&quot;&quot;&gt;void &lt;/span&gt;&lt;span style=&quot;&quot;&gt;StatelessConnectHandlerComponent&lt;/span&gt;::&lt;span style=&quot;&quot;&gt;Tick&lt;/span&gt;&lt;span style=&quot;&quot;&gt;(&lt;/span&gt;&lt;span style=&quot;&quot;&gt;float &lt;/span&gt;&lt;span style=&quot;&quot;&gt;DeltaTime&lt;/span&gt;&lt;span style=&quot;&quot;&gt;)&lt;/span&gt;&lt;/div&gt;&lt;/div&gt;&lt;/div&gt;&lt;/div&gt;&lt;/div&gt;&lt;/div&gt;&lt;/div&gt;" style="rounded=1;whiteSpace=wrap;html=1;align=left;fontFamily=Helvetica;fontColor=#000000;labelBackgroundColor=none;" vertex="1" parent="1">
          <mxGeometry x="-500" y="1600" width="410" height="60" as="geometry" />
        </mxCell>
        <mxCell id="EVZz7WK3kGUIYtO4toiv-6" value="&lt;div style=&quot;&quot;&gt;&lt;div style=&quot;font-size: 10.5pt;&quot;&gt;&lt;div style=&quot;font-size: 10.5pt;&quot;&gt;&lt;div style=&quot;font-size: 10.5pt;&quot;&gt;&lt;div style=&quot;font-size: 10.5pt;&quot;&gt;&lt;div style=&quot;&quot;&gt;&lt;div style=&quot;font-size: 9.8pt;&quot;&gt;&lt;div&gt;&lt;div style=&quot;font-size: 9.8pt;&quot;&gt;&lt;span style=&quot;&quot;&gt;if &lt;/span&gt;&lt;span style=&quot;&quot;&gt;(&lt;/span&gt;&lt;span style=&quot;&quot;&gt;Handler&lt;/span&gt;&lt;span style=&quot;&quot;&gt;-&amp;gt;&lt;/span&gt;&lt;span style=&quot;&quot;&gt;Mode &lt;/span&gt;&lt;span style=&quot;&quot;&gt;== &lt;/span&gt;&lt;span style=&quot;&quot;&gt;UE&lt;/span&gt;::&lt;span style=&quot;&quot;&gt;Handler&lt;/span&gt;::&lt;span style=&quot;&quot;&gt;Mode&lt;/span&gt;::&lt;span style=&quot;&quot;&gt;Client&lt;/span&gt;&lt;span style=&quot;&quot;&gt;)&lt;/span&gt;&lt;/div&gt;&lt;/div&gt;&lt;/div&gt;&lt;/div&gt;&lt;/div&gt;&lt;/div&gt;&lt;/div&gt;&lt;/div&gt;&lt;/div&gt;" style="rounded=1;whiteSpace=wrap;html=1;align=left;fontFamily=Helvetica;fontColor=#000000;labelBackgroundColor=none;" vertex="1" parent="1">
          <mxGeometry x="-440" y="1660" width="410" height="60" as="geometry" />
        </mxCell>
        <mxCell id="EVZz7WK3kGUIYtO4toiv-7" value="&lt;div style=&quot;&quot;&gt;&lt;div style=&quot;font-size: 10.5pt;&quot;&gt;&lt;div style=&quot;font-size: 10.5pt;&quot;&gt;&lt;div style=&quot;font-size: 10.5pt;&quot;&gt;&lt;div style=&quot;font-size: 10.5pt;&quot;&gt;&lt;div style=&quot;&quot;&gt;&lt;div style=&quot;font-size: 9.8pt;&quot;&gt;&lt;div style=&quot;font-size: 9.8pt;&quot;&gt;&lt;div&gt;&lt;div style=&quot;font-size: 9.8pt;&quot;&gt;&lt;span style=&quot;&quot;&gt;if &lt;/span&gt;&lt;span style=&quot;&quot;&gt;(ServerConn != &lt;/span&gt;&lt;span style=&quot;&quot;&gt;nullptr&lt;/span&gt;&lt;span style=&quot;&quot;&gt;)&lt;/span&gt;&lt;/div&gt;&lt;/div&gt;&lt;/div&gt;&lt;/div&gt;&lt;/div&gt;&lt;/div&gt;&lt;/div&gt;&lt;/div&gt;&lt;/div&gt;&lt;/div&gt;" style="rounded=1;whiteSpace=wrap;html=1;align=left;fontFamily=Helvetica;fontColor=#000000;labelBackgroundColor=none;" vertex="1" parent="1">
          <mxGeometry x="-378" y="1720" width="410" height="60" as="geometry" />
        </mxCell>
        <mxCell id="EVZz7WK3kGUIYtO4toiv-8" value="&lt;div style=&quot;&quot;&gt;&lt;div style=&quot;font-size: 10.5pt;&quot;&gt;&lt;div style=&quot;font-size: 10.5pt;&quot;&gt;&lt;div style=&quot;font-size: 10.5pt;&quot;&gt;&lt;div style=&quot;font-size: 10.5pt;&quot;&gt;&lt;div style=&quot;&quot;&gt;&lt;div style=&quot;font-size: 9.8pt;&quot;&gt;&lt;div style=&quot;font-size: 9.8pt;&quot;&gt;&lt;div style=&quot;font-size: 9.8pt;&quot;&gt;&lt;div&gt;&lt;div style=&quot;font-size: 9.8pt;&quot;&gt;SendToServer&lt;span style=&quot;&quot;&gt;(&lt;/span&gt;HandshakeVersion&lt;span style=&quot;&quot;&gt;, &lt;/span&gt;EHandshakePacketType::InitialPacket&lt;span style=&quot;&quot;&gt;, &lt;/span&gt;InitialPacket&lt;span style=&quot;&quot;&gt;);&lt;/span&gt;&lt;/div&gt;&lt;/div&gt;&lt;/div&gt;&lt;/div&gt;&lt;/div&gt;&lt;/div&gt;&lt;/div&gt;&lt;/div&gt;&lt;/div&gt;&lt;/div&gt;&lt;/div&gt;" style="rounded=1;whiteSpace=wrap;html=1;align=left;fontFamily=Helvetica;fontColor=#000000;labelBackgroundColor=none;" vertex="1" parent="1">
          <mxGeometry x="-333" y="1780" width="610" height="60" as="geometry" />
        </mxCell>
        <mxCell id="EVZz7WK3kGUIYtO4toiv-10" value="&lt;div style=&quot;&quot;&gt;&lt;div style=&quot;font-size: 10.5pt;&quot;&gt;&lt;div style=&quot;font-size: 10.5pt;&quot;&gt;&lt;div style=&quot;font-size: 10.5pt;&quot;&gt;&lt;div style=&quot;font-size: 10.5pt;&quot;&gt;&lt;div style=&quot;&quot;&gt;&lt;div style=&quot;font-size: 9.8pt;&quot;&gt;&lt;div&gt;&lt;div style=&quot;font-size: 9.8pt;&quot;&gt;&lt;span style=&quot;&quot;&gt;void &lt;/span&gt;&lt;span style=&quot;&quot;&gt;UIpConnection&lt;/span&gt;::void &lt;span style=&quot;font-size: 9.8pt; white-space: normal;&quot;&gt;UIpConnection&lt;/span&gt;&lt;span style=&quot;font-size: 9.8pt; white-space: normal;&quot;&gt;::&lt;/span&gt;&lt;span style=&quot;font-size: 9.8pt; white-space: normal;&quot;&gt;Tick&lt;/span&gt;&lt;span style=&quot;font-size: 9.8pt; white-space: normal;&quot;&gt;(&lt;/span&gt;&lt;span style=&quot;font-size: 9.8pt; white-space: normal;&quot;&gt;float &lt;/span&gt;&lt;span style=&quot;font-size: 9.8pt; white-space: normal;&quot;&gt;DeltaSeconds&lt;/span&gt;&lt;span style=&quot;font-size: 9.8pt; white-space: normal;&quot;&gt;)&lt;/span&gt;&lt;/div&gt;&lt;/div&gt;&lt;/div&gt;&lt;/div&gt;&lt;/div&gt;&lt;/div&gt;&lt;/div&gt;&lt;/div&gt;&lt;/div&gt;" style="rounded=1;whiteSpace=wrap;html=1;align=left;fontFamily=Helvetica;fontColor=#000000;labelBackgroundColor=none;" vertex="1" parent="1">
          <mxGeometry x="-440" y="1280" width="481" height="60" as="geometry" />
        </mxCell>
        <mxCell id="EVZz7WK3kGUIYtO4toiv-11" value="&lt;div style=&quot;&quot;&gt;&lt;div style=&quot;font-size: 10.5pt;&quot;&gt;&lt;div style=&quot;font-size: 10.5pt;&quot;&gt;&lt;div style=&quot;font-size: 10.5pt;&quot;&gt;&lt;div style=&quot;font-size: 10.5pt;&quot;&gt;&lt;div style=&quot;&quot;&gt;&lt;div style=&quot;font-size: 9.8pt;&quot;&gt;&lt;div style=&quot;font-size: 9.8pt;&quot;&gt;&lt;div&gt;&lt;div style=&quot;font-size: 9.8pt;&quot;&gt;&lt;span style=&quot;&quot;&gt;if &lt;/span&gt;&lt;span style=&quot;&quot;&gt;(&lt;/span&gt;CheckResult &lt;span style=&quot;&quot;&gt;== &lt;/span&gt;ECheckAddressResolutionResult::TryFirstAddress &lt;span style=&quot;&quot;&gt;|| &lt;/span&gt;CheckResult &lt;span style=&quot;&quot;&gt;== &lt;/span&gt;ECheckAddressResolutionResult::TryNextAddress&lt;span style=&quot;&quot;&gt;)&lt;/span&gt;&lt;/div&gt;&lt;/div&gt;&lt;/div&gt;&lt;/div&gt;&lt;/div&gt;&lt;/div&gt;&lt;/div&gt;&lt;/div&gt;&lt;/div&gt;&lt;/div&gt;" style="rounded=1;whiteSpace=wrap;html=1;align=left;fontFamily=Helvetica;fontColor=#000000;labelBackgroundColor=none;" vertex="1" parent="1">
          <mxGeometry x="-384" y="1340" width="924" height="60" as="geometry" />
        </mxCell>
        <mxCell id="EVZz7WK3kGUIYtO4toiv-12" value="&lt;div style=&quot;&quot;&gt;&lt;div style=&quot;font-size: 10.5pt;&quot;&gt;&lt;div style=&quot;font-size: 10.5pt;&quot;&gt;&lt;div style=&quot;font-size: 10.5pt;&quot;&gt;&lt;div style=&quot;font-size: 10.5pt;&quot;&gt;&lt;div style=&quot;&quot;&gt;&lt;div style=&quot;font-size: 9.8pt;&quot;&gt;&lt;div style=&quot;font-size: 9.8pt;&quot;&gt;&lt;div style=&quot;font-size: 9.8pt;&quot;&gt;&lt;div&gt;&lt;div style=&quot;font-size: 9.8pt;&quot;&gt;&lt;span style=&quot;&quot;&gt;SetSocket_Local&lt;/span&gt;&lt;span style=&quot;&quot;&gt;(&lt;/span&gt;&lt;span style=&quot;&quot;&gt;Resolver&lt;/span&gt;&lt;span style=&quot;&quot;&gt;-&amp;gt;GetResolutionSocket&lt;/span&gt;&lt;span style=&quot;&quot;&gt;());&lt;/span&gt;&lt;/div&gt;&lt;/div&gt;&lt;/div&gt;&lt;/div&gt;&lt;/div&gt;&lt;/div&gt;&lt;/div&gt;&lt;/div&gt;&lt;/div&gt;&lt;/div&gt;&lt;/div&gt;" style="rounded=1;whiteSpace=wrap;html=1;align=left;fontFamily=Helvetica;fontColor=#000000;labelBackgroundColor=none;" vertex="1" parent="1">
          <mxGeometry x="-316" y="1400" width="396" height="60" as="geometry" />
        </mxCell>
        <mxCell id="EVZz7WK3kGUIYtO4toiv-14" style="rounded=0;orthogonalLoop=1;jettySize=auto;html=1;dashed=1;fontFamily=Helvetica;fontColor=#000000;labelBackgroundColor=none;" edge="1" parent="1" source="EVZz7WK3kGUIYtO4toiv-13" target="EVZz7WK3kGUIYtO4toiv-3">
          <mxGeometry relative="1" as="geometry" />
        </mxCell>
        <mxCell id="EVZz7WK3kGUIYtO4toiv-13" value="&lt;div style=&quot;&quot;&gt;&lt;div style=&quot;font-size: 10.5pt;&quot;&gt;&lt;div style=&quot;font-size: 10.5pt;&quot;&gt;&lt;div style=&quot;font-size: 10.5pt;&quot;&gt;&lt;div style=&quot;font-size: 10.5pt;&quot;&gt;&lt;div style=&quot;&quot;&gt;&lt;div style=&quot;font-size: 9.8pt;&quot;&gt;&lt;div style=&quot;font-size: 9.8pt;&quot;&gt;&lt;div style=&quot;font-size: 9.8pt;&quot;&gt;&lt;div style=&quot;font-size: 9.8pt;&quot;&gt;&lt;div&gt;&lt;div style=&quot;font-size: 9.8pt;&quot;&gt;&lt;span style=&quot;&quot;&gt;SocketPrivate &lt;/span&gt;&lt;span style=&quot;&quot;&gt;= &lt;/span&gt;&lt;span style=&quot;&quot;&gt;InSocket&lt;/span&gt;&lt;span style=&quot;&quot;&gt;;&lt;/span&gt;&lt;/div&gt;&lt;/div&gt;&lt;/div&gt;&lt;/div&gt;&lt;/div&gt;&lt;/div&gt;&lt;/div&gt;&lt;/div&gt;&lt;/div&gt;&lt;/div&gt;&lt;/div&gt;&lt;/div&gt;" style="rounded=1;whiteSpace=wrap;html=1;align=left;fontFamily=Helvetica;fontColor=#000000;labelBackgroundColor=none;" vertex="1" parent="1">
          <mxGeometry x="-252" y="1460" width="396" height="60" as="geometry" />
        </mxCell>
      </root>
    </mxGraphModel>
  </diagram>
</mxfile>
